<svg width="201" height="91" viewBox="0 0 201 91" fill="none" xmlns="http://www.w3.org/2000/svg">
<path d="M73.5234 0C48.8903 0 28.9375 20.2192 28.9375 45.1811C28.9375 70.1431 48.8903 90.3623 73.5234 90.3623C98.1564 90.3623 118.109 70.1431 118.109 45.1811C118.109 20.2192 98.1564 0 73.5234 0ZM73.5234 63.0289C63.7933 63.0289 55.9107 55.0411 55.9107 45.1811C55.9107 35.3212 63.7933 27.4581 73.5234 27.4581C83.2534 27.4581 91.136 35.446 91.136 45.3059C91.0128 55.0411 83.1303 63.0289 73.5234 63.0289Z" fill="#222229"/>
<path d="M29.1902 4.07422H0V86.4486H29.1902V4.07422Z" fill="#222229"/>
<path d="M201 87.8662H200.63L152.472 38.1919L104.315 87.8662H103.945L152.472 2.62109L201 87.8662Z" fill="#A2001C"/>
</svg>
