<svg width="375" height="218" viewBox="0 0 375 218" fill="none" xmlns="http://www.w3.org/2000/svg">
<path d="M375 131.224V158.586V186.171C375 186.171 235.093 218.111 187.5 218C139.907 217.888 0 185.166 0 185.166V165.398H13.4717V147.865H26.9435V156.464H33.1272V133.011H54.439V145.184H60.4019V52.1546L130.521 51.4846V92.9179H133.171H136.484V57.1803H141.232V46.9057H148.079V16.752H158.017V46.9057H164.863V57.1803H169.611V78.2878H175.243V10.6096H178.335V0H205.278V10.6096H208.37V60.8657L217.314 60.6423V28.4784H242.933L244.037 88.8974L247.902 88.6741V68.2366H256.184V52.2663H261.153V41.4333H280.587V52.2663H285.557V68.3483H293.838V105.984L300.905 105.761V68.3483H324.647V109.223H339.112V91.4661H356.67V131.224H375Z" fill="url(#paint0_linear)"/>
<defs>
<linearGradient id="paint0_linear" x1="187.5" y1="7.62939e-06" x2="187.5" y2="218" gradientUnits="userSpaceOnUse">
<stop offset="0.0677083" stop-color="#E7E7E7"/>
<stop offset="1" stop-color="#E7E7E7" stop-opacity="0"/>
</linearGradient>
</defs>
</svg>
