<svg width="15" height="21" viewBox="0 0 15 21" fill="none" xmlns="http://www.w3.org/2000/svg">
<path d="M9.99128 15.5135L9.99074 15.5145C9.69466 16.0573 9.34628 16.4381 8.95579 16.6846C8.56766 16.9296 8.1115 17.0586 7.57031 17.0586C6.52505 17.0586 5.72058 16.5729 5.12532 15.5007C4.51997 14.3962 4.19141 12.7596 4.19141 10.5391C4.19141 8.34326 4.52351 6.71868 5.13614 5.61421C5.74145 4.52907 6.54431 4.04297 7.57031 4.04297C8.59713 4.04297 9.39057 4.52575 9.97956 5.59979L9.98076 5.60196C10.5935 6.70624 10.9258 8.33473 10.9258 10.5391C10.9258 12.7685 10.5969 14.4091 9.99128 15.5135ZM2.72654 17.3584C3.8687 19.046 5.50222 19.8984 7.57031 19.8984C9.63015 19.8984 11.256 19.0503 12.3905 17.3703C13.5153 15.7162 14.0469 13.4311 14.0469 10.5742C14.0469 7.72362 13.5108 5.43233 12.3798 3.75626C11.24 2.05542 9.61944 1.19141 7.57031 1.19141C5.51521 1.19141 3.88702 2.04984 2.73857 3.74274C1.60656 5.41141 1.07031 7.69569 1.07031 10.5391C1.07031 13.4041 1.60197 15.6967 2.72654 17.3584Z" stroke="#222229"/>
</svg>
