<svg id="eywqzIDiv6g1" xmlns="http://www.w3.org/2000/svg" xmlns:xlink="http://www.w3.org/1999/xlink" viewBox="0 0 375 812" shape-rendering="geometricPrecision" text-rendering="geometricPrecision" width="375" height="812"><style><![CDATA[#eywqzIDiv6g3_to {animation: eywqzIDiv6g3_to__to 1900ms linear 1 normal forwards}@keyframes eywqzIDiv6g3_to__to { 0% {transform: translate(187.499999px,408.181000px);animation-timing-function: cubic-bezier(0,0,0.580000,1)} 56.842105% {transform: translate(187.499999px,408.181000px);animation-timing-function: cubic-bezier(0,0,0.580000,1)} 67.368421% {transform: translate(167.585499px,408.181000px)} 100% {transform: translate(167.585499px,408.181000px)}} #eywqzIDiv6g3_ts {animation: eywqzIDiv6g3_ts__ts 1900ms linear 1 normal forwards}@keyframes eywqzIDiv6g3_ts__ts { 0% {transform: scale(1,1);animation-timing-function: cubic-bezier(0,0,0.580000,1)} 29.473684% {transform: scale(1,1);animation-timing-function: cubic-bezier(0,0,0.580000,1)} 56.842105% {transform: scale(2.411336,2.411336);animation-timing-function: cubic-bezier(0,0,0.580000,1)} 67.368421% {transform: scale(1,1)} 100% {transform: scale(1,1)}} #eywqzIDiv6g3 {animation: eywqzIDiv6g3_c_o 1900ms linear 1 normal forwards}@keyframes eywqzIDiv6g3_c_o { 0% {opacity: 0;animation-timing-function: cubic-bezier(0,0,0.580000,1)} 29.473684% {opacity: 0;animation-timing-function: cubic-bezier(0,0,0.580000,1)} 30% {opacity: 1} 56.842105% {opacity: 1} 67.368421% {opacity: 1} 71.578947% {opacity: 1} 86.315789% {opacity: 0} 100% {opacity: 0}} #eywqzIDiv6g4_to {animation: eywqzIDiv6g4_to__to 1900ms linear 1 normal forwards}@keyframes eywqzIDiv6g4_to__to { 0% {transform: translate(507.473000px,408.243500px)} 4.210526% {transform: translate(507.473000px,408.243500px);animation-timing-function: cubic-bezier(0,0,0.580000,1)} 57.368421% {transform: translate(448.527000px,408.243500px);animation-timing-function: cubic-bezier(0,0,0.580000,1)} 67.368421% {transform: translate(247.477000px,408.243500px)} 86.315789% {transform: translate(247.477000px,408.243500px)} 100% {transform: translate(247.477000px,408.243500px)}} #eywqzIDiv6g4 {animation: eywqzIDiv6g4_c_o 1900ms linear 1 normal forwards}@keyframes eywqzIDiv6g4_c_o { 0% {opacity: 0} 24.736842% {opacity: 0} 57.368421% {opacity: 1} 67.368421% {opacity: 1} 71.578947% {opacity: 1} 86.315789% {opacity: 0} 100% {opacity: 0}} #eywqzIDiv6g5_to {animation: eywqzIDiv6g5_to__to 1900ms linear 1 normal forwards}@keyframes eywqzIDiv6g5_to__to { 0% {transform: translate(-190.404999px,408.261505px);animation-timing-function: cubic-bezier(0,0,0.580000,1)} 57.368421% {transform: translate(-190.404999px,408.261505px);animation-timing-function: cubic-bezier(0,0,0.580000,1)} 67.368421% {transform: translate(109.595001px,408.261505px)} 86.315789% {transform: translate(109.595001px,408.261505px)} 100% {transform: translate(109.595001px,408.261505px)}} #eywqzIDiv6g5 {animation: eywqzIDiv6g5_c_o 1900ms linear 1 normal forwards}@keyframes eywqzIDiv6g5_c_o { 0% {opacity: 0} 24.736842% {opacity: 0} 61.052632% {opacity: 1} 67.368421% {opacity: 1} 71.578947% {opacity: 1} 86.315789% {opacity: 0} 100% {opacity: 0}} #eywqzIDiv6g6_to {animation: eywqzIDiv6g6_to__to 1900ms linear 1 normal forwards}@keyframes eywqzIDiv6g6_to__to { 0% {transform: translate(195px,883.917999px)} 57.368421% {transform: translate(195px,883.917999px);animation-timing-function: cubic-bezier(0,0,0.580000,1)} 67.368421% {transform: translate(195px,483.920000px)} 100% {transform: translate(195px,483.920000px)}} #eywqzIDiv6g6 {animation: eywqzIDiv6g6_c_o 1900ms linear 1 normal forwards}@keyframes eywqzIDiv6g6_c_o { 0% {opacity: 0} 24.736842% {opacity: 0} 61.052632% {opacity: 1} 67.368421% {opacity: 1} 71.578947% {opacity: 1} 86.315789% {opacity: 0} 100% {opacity: 0}} #eywqzIDiv6g14_to {animation: eywqzIDiv6g14_to__to 1900ms linear 1 normal forwards}@keyframes eywqzIDiv6g14_to__to { 0% {transform: translate(187.500000px,406px);animation-timing-function: cubic-bezier(0,0,0.580000,1)} 59.473684% {transform: translate(187.110000px,406px)} 100% {transform: translate(187.110000px,406px)}} #eywqzIDiv6g14_ts {animation: eywqzIDiv6g14_ts__ts 1900ms linear 1 normal forwards}@keyframes eywqzIDiv6g14_ts__ts { 0% {transform: scale(1,1);animation-timing-function: cubic-bezier(0,0,0.580000,1)} 11.052632% {transform: scale(1,1);animation-timing-function: cubic-bezier(0,0,0.580000,1)} 30% {transform: scale(29.381295,29.381295);animation-timing-function: cubic-bezier(0,0,0.580000,1)} 59.473684% {transform: scale(29.381295,29.380000)} 100% {transform: scale(29.381295,29.380000)}} #eywqzIDiv6g14 {animation: eywqzIDiv6g14_c_o 1900ms linear 1 normal forwards}@keyframes eywqzIDiv6g14_c_o { 0% {opacity: 1} 30% {opacity: 1;animation-timing-function: cubic-bezier(0,0,0.580000,1)} 30.526316% {opacity: 0} 71.578947% {opacity: 0} 86.315789% {opacity: 0} 100% {opacity: 0}}]]></style><rect id="eywqzIDiv6g2" width="375" height="812" rx="0" ry="0" fill="rgb(255,255,255)" stroke="none" stroke-width="1" stroke-miterlimit="1"/><g id="eywqzIDiv6g3_to" transform="translate(187.499999,408.181000)"><g id="eywqzIDiv6g3_ts" transform="scale(1,1)"><path id="eywqzIDiv6g3" d="M168.806630,363C144.016926,363,123.938000,383.347787,123.938000,408.468786C123.938000,433.589784,144.016926,453.937572,168.806630,453.937572C193.596334,453.937572,213.676266,433.589784,213.676266,408.468786C213.676266,383.347787,193.596334,363,168.806630,363ZM168.806630,426.430471C159.014732,426.430471,151.082590,418.391590,151.082590,408.468786C151.082590,398.545981,159.014732,390.632897,168.806630,390.632897C178.598528,390.632897,186.531676,398.671778,186.531676,408.594582C186.407893,418.391590,178.474745,426.430471,168.806630,426.430471Z" transform="translate(-168.523499,-408.181000)" opacity="0" fill="rgb(34,34,41)" stroke="none" stroke-width="1" stroke-miterlimit="1"/></g></g><g id="eywqzIDiv6g4_to" transform="translate(507.473000,408.243500)"><path id="eywqzIDiv6g4" d="M296,450.866000L295.631000,450.866000L247.473000,401.192000L199.315000,450.866000L198.946000,450.866000L247.473000,365.621000L296,450.866000Z" transform="translate(-247.473000,-408.243500)" opacity="0" fill="rgb(10,128,255)" stroke="none" stroke-width="1" stroke-miterlimit="1"/></g><g id="eywqzIDiv6g5_to" transform="translate(-190.404999,408.261505)"><path id="eywqzIDiv6g5" d="M124.190000,367.074000L95,367.074000L95,449.449000L124.190000,449.449000L124.190000,367.074000Z" transform="translate(-109.595001,-408.261505)" opacity="0" fill="rgb(34,34,41)" stroke="none" stroke-width="1" stroke-miterlimit="1"/></g><g id="eywqzIDiv6g6_to" transform="translate(195,883.917999)"><g id="eywqzIDiv6g6" transform="translate(-195,-483.917999)" opacity="0"><path id="eywqzIDiv6g7" d="M108.582000,498.947000C105.848000,498.947000,103.238000,498.476000,100.752000,497.536000C98.302200,496.559000,96.384800,495.312000,95,493.792000L96.225000,491.731000C97.538800,493.141000,99.296400,494.299000,101.498000,495.203000C103.735000,496.071000,106.078000,496.505000,108.528000,496.505000C112.079000,496.505000,114.760000,495.818000,116.571000,494.444000C118.382000,493.069000,119.287000,491.279000,119.287000,489.072000C119.287000,487.372000,118.808000,486.016000,117.849000,485.003000C116.890000,483.990000,115.701000,483.213000,114.281000,482.670000C112.860000,482.128000,110.943000,481.567000,108.528000,480.988000C105.794000,480.301000,103.593000,479.632000,101.924000,478.981000C100.291000,478.330000,98.888100,477.335000,97.716300,475.997000C96.580100,474.622000,96.012000,472.796000,96.012000,470.517000C96.012000,468.672000,96.491300,466.990000,97.450000,465.471000C98.408700,463.916000,99.864500,462.686000,101.817000,461.782000C103.806000,460.878000,106.274000,460.425000,109.221000,460.425000C111.280000,460.425000,113.304000,460.733000,115.293000,461.348000C117.281000,461.963000,119.003000,462.795000,120.459000,463.844000L119.447000,466.068000C117.956000,465.019000,116.305000,464.223000,114.494000,463.681000C112.718000,463.138000,110.961000,462.867000,109.221000,462.867000C105.777000,462.867000,103.167000,463.572000,101.391000,464.983000C99.616000,466.394000,98.728300,468.220000,98.728300,470.463000C98.728300,472.163000,99.207600,473.519000,100.166000,474.532000C101.125000,475.545000,102.315000,476.322000,103.735000,476.865000C105.155000,477.407000,107.090000,477.986000,109.540000,478.601000C112.274000,479.288000,114.458000,479.957000,116.091000,480.608000C117.725000,481.259000,119.110000,482.254000,120.246000,483.592000C121.418000,484.895000,122.003000,486.667000,122.003000,488.909000C122.003000,490.754000,121.506000,492.436000,120.512000,493.955000C119.553000,495.474000,118.062000,496.686000,116.038000,497.590000C114.014000,498.495000,111.529000,498.947000,108.582000,498.947000Z" fill="rgb(34,34,41)" stroke="none" stroke-width="1" stroke-miterlimit="1"/><path id="eywqzIDiv6g8" d="M144.371000,470.137000C147.851000,470.137000,150.603000,471.168000,152.627000,473.230000C154.650000,475.291000,155.662000,478.257000,155.662000,482.128000L155.662000,498.675000L152.999000,498.675000L152.999000,482.345000C152.999000,479.162000,152.200000,476.738000,150.603000,475.074000C149.040000,473.411000,146.839000,472.579000,143.998000,472.579000C140.732000,472.579000,138.157000,473.573000,136.275000,475.563000C134.393000,477.552000,133.452000,480.229000,133.452000,483.592000L133.452000,498.675000L130.789000,498.675000L130.789000,458.418000L133.452000,458.418000L133.452000,476.268000C134.411000,474.315000,135.831000,472.814000,137.713000,471.765000C139.595000,470.680000,141.814000,470.137000,144.371000,470.137000Z" fill="rgb(34,34,41)" stroke="none" stroke-width="1" stroke-miterlimit="1"/><path id="eywqzIDiv6g9" d="M176.404000,470.137000C179.848000,470.137000,182.494000,471.041000,184.340000,472.850000C186.187000,474.622000,187.110000,477.245000,187.110000,480.717000L187.110000,498.675000L184.553000,498.675000L184.553000,493.630000C183.666000,495.294000,182.370000,496.596000,180.665000,497.536000C178.961000,498.440000,176.919000,498.892000,174.540000,498.892000C171.451000,498.892000,169.001000,498.151000,167.190000,496.668000C165.415000,495.185000,164.527000,493.232000,164.527000,490.808000C164.527000,488.457000,165.344000,486.558000,166.977000,485.112000C168.646000,483.629000,171.291000,482.887000,174.913000,482.887000L184.447000,482.887000L184.447000,480.608000C184.447000,477.968000,183.737000,475.961000,182.316000,474.586000C180.931000,473.212000,178.890000,472.524000,176.191000,472.524000C174.345000,472.524000,172.569000,472.850000,170.865000,473.501000C169.196000,474.152000,167.776000,475.020000,166.604000,476.105000L165.273000,474.152000C166.657000,472.886000,168.326000,471.909000,170.279000,471.222000C172.232000,470.499000,174.274000,470.137000,176.404000,470.137000ZM174.913000,496.668000C177.221000,496.668000,179.174000,496.125000,180.772000,495.040000C182.405000,493.955000,183.630000,492.382000,184.447000,490.320000L184.447000,485.003000L174.966000,485.003000C172.232000,485.003000,170.244000,485.509000,169.001000,486.522000C167.794000,487.535000,167.190000,488.928000,167.190000,490.700000C167.190000,492.545000,167.865000,494.009000,169.214000,495.095000C170.563000,496.144000,172.463000,496.668000,174.913000,496.668000Z" fill="rgb(34,34,41)" stroke="none" stroke-width="1" stroke-miterlimit="1"/><path id="eywqzIDiv6g10" d="M201.042000,476.539000C201.895000,474.478000,203.226000,472.904000,205.037000,471.819000C206.848000,470.698000,209.049000,470.137000,211.641000,470.137000L211.641000,472.796000L211.002000,472.741000C207.913000,472.741000,205.499000,473.736000,203.759000,475.725000C202.019000,477.679000,201.149000,480.409000,201.149000,483.918000L201.149000,498.675000L198.486000,498.675000L198.486000,470.354000L201.042000,470.354000L201.042000,476.539000Z" fill="rgb(34,34,41)" stroke="none" stroke-width="1" stroke-miterlimit="1"/><path id="eywqzIDiv6g11" d="M219.383000,470.354000L222.046000,470.354000L222.046000,498.675000L219.383000,498.675000L219.383000,470.354000ZM220.714000,463.464000C220.111000,463.464000,219.596000,463.265000,219.170000,462.867000C218.744000,462.433000,218.531000,461.908000,218.531000,461.294000C218.531000,460.679000,218.744000,460.154000,219.170000,459.720000C219.596000,459.286000,220.111000,459.069000,220.714000,459.069000C221.318000,459.069000,221.833000,459.286000,222.259000,459.720000C222.685000,460.118000,222.898000,460.624000,222.898000,461.239000C222.898000,461.854000,222.685000,462.379000,222.259000,462.813000C221.833000,463.247000,221.318000,463.464000,220.714000,463.464000Z" fill="rgb(34,34,41)" stroke="none" stroke-width="1" stroke-miterlimit="1"/><path id="eywqzIDiv6g12" d="M247.256000,470.137000C250.736000,470.137000,253.488000,471.168000,255.511000,473.230000C257.535000,475.291000,258.547000,478.257000,258.547000,482.128000L258.547000,498.675000L255.884000,498.675000L255.884000,482.345000C255.884000,479.162000,255.085000,476.738000,253.488000,475.074000C251.925000,473.411000,249.724000,472.579000,246.883000,472.579000C243.616000,472.579000,241.042000,473.573000,239.160000,475.563000C237.278000,477.552000,236.337000,480.229000,236.337000,483.592000L236.337000,498.675000L233.674000,498.675000L233.674000,470.354000L236.231000,470.354000L236.231000,476.485000C237.190000,474.496000,238.610000,472.940000,240.492000,471.819000C242.409000,470.698000,244.664000,470.137000,247.256000,470.137000Z" fill="rgb(34,34,41)" stroke="none" stroke-width="1" stroke-miterlimit="1"/><path id="eywqzIDiv6g13" d="M295,470.354000L295,495.637000C295,500.339000,293.882000,503.812000,291.645000,506.054000C289.408000,508.297000,286.034000,509.418000,281.525000,509.418000C278.968000,509.418000,276.554000,509.020000,274.281000,508.224000C272.009000,507.429000,270.180000,506.325000,268.795000,504.915000L270.233000,502.853000C271.618000,504.155000,273.287000,505.168000,275.240000,505.891000C277.193000,506.615000,279.270000,506.976000,281.472000,506.976000C285.164000,506.976000,287.898000,506.072000,289.674000,504.264000C291.449000,502.491000,292.337000,499.724000,292.337000,495.963000L292.337000,491.188000C291.201000,493.250000,289.621000,494.841000,287.597000,495.963000C285.573000,497.084000,283.300000,497.645000,280.779000,497.645000C278.187000,497.645000,275.826000,497.066000,273.695000,495.908000C271.601000,494.715000,269.949000,493.069000,268.742000,490.971000C267.535000,488.873000,266.931000,486.504000,266.931000,483.864000C266.931000,481.223000,267.535000,478.854000,268.742000,476.756000C269.949000,474.658000,271.601000,473.031000,273.695000,471.873000C275.826000,470.716000,278.187000,470.137000,280.779000,470.137000C283.336000,470.137000,285.644000,470.716000,287.703000,471.873000C289.763000,473.031000,291.343000,474.658000,292.443000,476.756000L292.443000,470.354000L295,470.354000ZM280.992000,495.203000C283.158000,495.203000,285.111000,494.733000,286.851000,493.792000C288.591000,492.816000,289.940000,491.478000,290.899000,489.778000C291.893000,488.041000,292.390000,486.070000,292.390000,483.864000C292.390000,481.657000,291.893000,479.704000,290.899000,478.004000C289.940000,476.304000,288.591000,474.984000,286.851000,474.044000C285.111000,473.067000,283.158000,472.579000,280.992000,472.579000C278.826000,472.579000,276.873000,473.067000,275.134000,474.044000C273.429000,474.984000,272.080000,476.304000,271.086000,478.004000C270.127000,479.704000,269.648000,481.657000,269.648000,483.864000C269.648000,486.070000,270.127000,488.041000,271.086000,489.778000C272.080000,491.478000,273.429000,492.816000,275.134000,493.792000C276.873000,494.733000,278.826000,495.203000,280.992000,495.203000Z" fill="rgb(34,34,41)" stroke="none" stroke-width="1" stroke-miterlimit="1"/></g></g><g id="eywqzIDiv6g14_to" transform="translate(187.500000,406)"><g id="eywqzIDiv6g14_ts" transform="scale(1,1)"><ellipse id="eywqzIDiv6g14" rx="16" ry="16" transform="translate(-0,-0)" fill="rgb(34,34,41)" stroke="none" stroke-width="0" stroke-miterlimit="1"/></g></g></svg>