<svg width="18" height="21" viewBox="0 0 18 21" fill="none" xmlns="http://www.w3.org/2000/svg">
<path d="M17.3336 11.4302L13.7289 12.6705L12.2754 11.8372V10.5V9.18217L13.7289 8.34884L17.3336 9.58915C17.5855 9.68605 17.8762 9.53101 17.9537 9.27907C18.0506 9.02713 17.8956 8.73643 17.6436 8.65891L14.8529 7.7093L17.4692 6.19767C17.7018 6.06202 17.7793 5.75194 17.6436 5.51938C17.508 5.28682 17.1979 5.2093 16.9653 5.34496L14.3491 6.85659L14.9111 3.96899C14.9692 3.69767 14.7948 3.44574 14.5235 3.3876C14.2522 3.32946 14.0002 3.50388 13.9421 3.77519L13.2057 7.5155L11.7522 8.34884L10.6475 7.7093L10.6281 7.68992L9.50411 7.03101V5.36434L12.3723 2.86434C12.5855 2.68992 12.6049 2.37985 12.4111 2.16667C12.2367 1.95349 11.9266 1.93411 11.7134 2.12791L9.50411 4.06589V1.00388C9.50411 0.732558 9.29093 0.5 9.00023 0.5C8.72891 0.5 8.49636 0.713178 8.49636 1.00388V4.02713L6.28705 2.10853C6.07387 1.93411 5.7638 1.95349 5.58938 2.14729C5.41496 2.36047 5.43434 2.67054 5.62814 2.84496L8.49636 5.34496V7.01163L7.37232 7.67054L6.24829 8.32946L4.79481 7.49612L4.05837 3.75581C4.00023 3.4845 3.74829 3.31008 3.47698 3.36822C3.20566 3.42636 3.03124 3.67829 3.08938 3.94961L3.65139 6.83721L1.03512 5.32558C0.802558 5.18992 0.49248 5.26744 0.356821 5.5C0.221162 5.73256 0.298682 6.04264 0.53124 6.17829L3.14752 7.68992L0.356821 8.63953C0.104883 8.73643 -0.0501554 9.00775 0.0467438 9.25969C0.143643 9.51163 0.414961 9.66667 0.666899 9.56977L4.27155 8.32946L5.72504 9.16279V10.5V11.8178H5.74442L4.29093 12.6512L0.686279 11.4109C0.434341 11.314 0.143643 11.469 0.0661236 11.7209C-0.0307756 11.9729 0.124263 12.2636 0.376201 12.3411L3.1669 13.2907L0.55062 14.8023C0.318062 14.938 0.240542 15.2481 0.376201 15.4806C0.51186 15.7132 0.821938 15.7907 1.0545 15.655L3.67077 14.1434L3.10876 17.031C3.05062 17.3023 3.22504 17.5543 3.49636 17.6124C3.76767 17.6705 4.01961 17.4961 4.07775 17.2248L4.81419 13.4845L6.26767 12.6512L7.41109 13.3101L8.53512 13.969V15.6357L5.6669 18.1357C5.45372 18.3101 5.43434 18.6202 5.62814 18.8333C5.80256 19.0465 6.11264 19.0659 6.32581 18.8721L8.53512 16.9341V19.9961C8.53512 20.2674 8.74829 20.5 9.03899 20.5C9.31031 20.5 9.54287 20.2868 9.54287 19.9961V16.9729L11.7522 18.9109C11.9653 19.0853 12.2754 19.0659 12.4498 18.8721C12.6243 18.6589 12.6049 18.3488 12.4111 18.1744L9.50411 15.655V13.9884L10.6281 13.3295L11.7522 12.6705L13.2057 13.5039L13.9421 17.2442C14.0002 17.5155 14.2522 17.6899 14.5235 17.6318C14.7948 17.5736 14.9692 17.3217 14.9111 17.0504L14.3491 14.1628L16.9653 15.6744C17.1979 15.8101 17.508 15.7326 17.6436 15.5C17.7793 15.2674 17.7018 14.9574 17.4692 14.8217L14.8529 13.3101L17.6436 12.3605C17.8956 12.2636 18.0506 11.9922 17.9537 11.7403C17.8568 11.4884 17.5855 11.3333 17.3336 11.4302ZM11.2289 10.5V11.8178L10.1049 12.4767L9.00023 13.1163L7.85682 12.4574L6.73279 11.7984V10.5V9.18217L7.85682 8.52326L8.98085 7.86434L10.1049 8.52326L10.1243 8.54264L11.2289 9.18217V10.5Z" fill="#979797"/>
</svg>
