<svg width="17" height="26" viewBox="0 0 17 26" fill="none" xmlns="http://www.w3.org/2000/svg">
<path d="M15.9046 17.4595L9.72761 12.8356L15.856 8.21171C16.1478 7.96576 16.3424 7.62142 16.3424 7.2279C16.3424 6.83437 16.1478 6.49004 15.856 6.24409L8.12255 0.439613C7.73345 0.144471 7.24706 0.144471 6.85796 0.341232C6.46885 0.537994 6.17702 0.980709 6.17702 1.42342V10.5237L1.94551 7.32628C1.41049 6.93276 0.632278 7.03114 0.243173 7.57223C-0.145932 8.11333 -0.0486554 8.90037 0.486364 9.2939L5.20426 12.8356L0.486364 16.3773C-0.0486554 16.7709 -0.145932 17.5579 0.243173 18.099C0.486364 18.4433 0.826831 18.5909 1.21594 18.5909C1.45913 18.5909 1.70232 18.4925 1.94551 18.3449L6.17702 15.1476V24.1986C6.17702 24.6413 6.42022 25.084 6.85796 25.2808C7.05251 25.3792 7.19843 25.4284 7.39298 25.4284C7.63617 25.4284 7.928 25.33 8.12255 25.1824L15.856 19.3779C16.1478 19.132 16.3424 18.7877 16.3424 18.3941C16.3424 18.0006 16.1965 17.6563 15.9046 17.4595ZM8.60893 3.88295L13.0836 7.27709L8.60893 10.6712V3.88295ZM8.60893 21.7883V15.0492L13.0836 18.4433L8.60893 21.7883Z" fill="url(#paint0_linear)"/>
<defs>
<linearGradient id="paint0_linear" x1="16.3424" y1="25.4284" x2="-1.11813" y2="24.6243" gradientUnits="userSpaceOnUse">
<stop stop-color="#7B61FF"/>
<stop offset="1" stop-color="#0A84FF"/>
</linearGradient>
</defs>
</svg>
