<svg width="10" height="16" viewBox="0 0 10 16" fill="none" xmlns="http://www.w3.org/2000/svg">
<path d="M9.65412 10.5267L6.1361 7.89327L9.62642 5.25981C9.79263 5.11973 9.90343 4.92362 9.90343 4.6995C9.90343 4.47537 9.79263 4.27926 9.62642 4.13919L5.22196 0.83335C5.00036 0.665257 4.72335 0.665257 4.50174 0.777319C4.28013 0.889382 4.11392 1.14152 4.11392 1.39366V6.57654L1.70394 4.75553C1.39923 4.5314 0.95601 4.58744 0.734402 4.89561C0.512794 5.20378 0.568196 5.65203 0.872907 5.87615L3.5599 7.89327L0.872907 9.91039C0.568196 10.1345 0.512794 10.5828 0.734402 10.8909C0.872907 11.087 1.06681 11.1711 1.28842 11.1711C1.42693 11.1711 1.56543 11.1151 1.70394 11.031L4.11392 9.21V14.3649C4.11392 14.617 4.25243 14.8691 4.50174 14.9812C4.61254 15.0372 4.69564 15.0653 4.80645 15.0653C4.94495 15.0653 5.11116 15.0092 5.22196 14.9252L9.62642 11.6193C9.79263 11.4793 9.90343 11.2832 9.90343 11.059C9.90343 10.8349 9.82033 10.6388 9.65412 10.5267ZM5.49897 2.79444L8.04746 4.72751L5.49897 6.66059V2.79444ZM5.49897 12.9921V9.15397L8.04746 11.087L5.49897 12.9921Z" fill="#979797"/>
</svg>
