<svg width="17" height="15" viewBox="0 0 17 15" fill="none" xmlns="http://www.w3.org/2000/svg">
<path fill-rule="evenodd" clip-rule="evenodd" d="M4.99983 0.999999C4.99983 0.447714 5.44754 0 5.99983 0H10.2902C10.8424 0 11.2901 0.447715 11.2901 1V2.41935H15.9355C16.4878 2.41935 16.9355 2.86707 16.9355 3.41935V14C16.9355 14.5523 16.4878 15 15.9355 15H1C0.447716 15 0 14.5523 0 14V3.41935C0 2.86707 0.447715 2.41935 1 2.41935H4.99983V0.999999ZM5.99983 2.41935H10.3547V2C10.3547 1.44772 9.90695 1 9.35467 1H6.99983C6.44754 1 5.99983 1.44772 5.99983 2V2.41935Z" fill="#979797"/>
</svg>
