<svg width="263" height="169" viewBox="0 0 263 169" fill="none" xmlns="http://www.w3.org/2000/svg">
<g filter="url(#filter0_d)">
<path d="M4 150.171C4 158.361 10.5993 165 18.7399 165H244.26C252.401 165 259 158.361 259 150.171V19.6793C259 11.4896 252.401 4.85059 244.26 4.85059H18.7399C10.5993 4.85059 4 11.4896 4 19.6793V150.171Z" fill="#030303"/>
<path fill-rule="evenodd" clip-rule="evenodd" d="M214.629 152.704H228.259V128.077H214.629V152.704Z" fill="#FF5F00"/>
<path fill-rule="evenodd" clip-rule="evenodd" d="M215.495 140.391C215.495 135.395 217.822 130.946 221.445 128.078C218.795 125.981 215.452 124.729 211.818 124.729C203.215 124.729 196.242 131.742 196.242 140.391C196.242 149.041 203.215 156.053 211.818 156.053C215.452 156.053 218.795 154.802 221.445 152.705C217.822 149.837 215.495 145.388 215.495 140.391Z" fill="#EB001B"/>
<path fill-rule="evenodd" clip-rule="evenodd" d="M246.161 150.096V149.488H246.003L245.822 149.906L245.64 149.488H245.482V150.096H245.593V149.637L245.764 150.033H245.879L246.05 149.636V150.096H246.161ZM245.161 150.096V149.591H245.364V149.489H244.849V149.591H245.051V150.096H245.161ZM246.647 140.391C246.647 149.04 239.674 156.052 231.071 156.052C227.437 156.052 224.094 154.801 221.444 152.704C225.067 149.836 227.394 145.387 227.394 140.391C227.394 135.395 225.067 130.945 221.444 128.077C224.094 125.98 227.437 124.729 231.071 124.729C239.674 124.729 246.647 131.741 246.647 140.391Z" fill="#F79E1B"/>
<path fill-rule="evenodd" clip-rule="evenodd" d="M50.1969 30.8978L50.5795 29.7048L49.3129 29.744C49.2066 29.744 48.4282 29.7214 47.6746 29.1894C47.7312 29.1939 47.7863 29.2022 47.8453 29.2022C48.6214 29.2022 49.3734 28.7464 49.6738 28.0945L50.2186 26.9173C49.5356 26.9263 48.9109 26.8426 48.9109 26.8426C48.9055 26.8426 48.4134 26.78 47.8445 26.2133C47.4363 25.808 46.9311 25.593 46.384 25.593C46.1673 25.5938 45.9522 25.6271 45.746 25.6918C45.7747 25.5967 45.8019 25.4994 45.8182 25.3998C45.9913 24.2981 45.2641 23.459 45.2641 23.459L44.3118 22.3105L43.7212 23.6597C43.7189 23.6642 43.5699 23.9812 43.3037 24.1351C43.2229 23.7382 43.025 23.2922 42.6028 22.8659C41.8058 22.063 40.8365 21.9422 40.3289 21.9422C40.0938 21.9422 39.9253 21.9679 39.885 21.9739L38.7356 22.1943C38.8016 21.9445 38.9436 21.5076 39.2013 21.116L39.8361 20.1539L38.2397 20.3312L37.7313 19.2793L36.7465 19.7735L35.8361 18.8975L34.9281 19.7728L33.9417 19.2793L33.4341 20.3304L31.8385 20.1531L32.4741 21.1167C32.7326 21.5084 32.873 21.943 32.939 22.1928L31.8424 21.9815L31.8044 21.9762C31.6529 21.953 31.4998 21.9417 31.3465 21.9422C30.8389 21.9422 29.8696 22.063 29.0749 22.8659C28.6519 23.2915 28.4532 23.7382 28.3725 24.1351C28.1079 23.9819 27.9596 23.671 27.9596 23.671L27.3682 22.3128L26.4005 23.4703C26.2825 23.619 25.6997 24.4083 25.8572 25.4021C25.8743 25.5009 25.9007 25.5975 25.9294 25.6926C25.7238 25.6277 25.5091 25.5943 25.293 25.5937C24.7451 25.5937 24.2398 25.8088 23.8308 26.214C23.2643 26.7784 22.7746 26.8426 22.7785 26.8426C22.7785 26.8426 22.2608 26.9331 21.4591 26.918L22.0016 28.0952C22.3027 28.7472 23.0555 29.203 23.8301 29.203C23.889 29.203 23.9441 29.1947 24.0016 29.1901C23.2488 29.7229 22.4711 29.7448 22.3772 29.7448L21.0881 29.7048L21.4785 30.897C21.6756 31.5128 22.3322 32.5307 23.5895 32.6401C23.4529 33.1985 23.1494 33.8248 22.4835 34.095L21.5227 34.4798L22.0466 35.3687C22.3423 35.8479 23.0369 36.4086 24.0249 36.4086C24.2383 36.4086 24.4447 36.3867 24.6442 36.3459C24.6946 36.5648 24.7583 36.7836 24.8335 37.0024C25.1269 37.8551 24.8739 38.4498 24.8708 38.4565L24.3974 39.4239L25.4552 39.6956C25.4684 39.7001 25.7889 39.7861 26.1886 39.7861C26.3702 39.7861 26.544 39.7673 26.707 39.7295C26.8296 39.7016 26.9476 39.6639 27.0617 39.6194C27.1991 39.8586 27.3651 40.0774 27.5592 40.2729C28.2375 40.9512 29.1998 41.2946 30.4167 41.2946H30.4206L31.2898 41.2833L29.4939 42.0107L30.8575 42.6528C31.3535 42.8883 31.9402 43.166 32.5393 43.3788L32.3686 43.8323L32.8381 44.0413C32.88 44.0602 33.7849 44.4533 35.2867 44.5371C35.2867 44.5371 35.6491 44.5537 35.8486 44.5537C36.0488 44.5537 36.4073 44.5363 36.4073 44.5363C37.899 44.4503 38.7961 44.0602 38.838 44.0413L39.3091 43.8323L39.1376 43.378C39.7523 43.1592 40.3615 42.8694 40.8372 42.6438L42.1752 42.0099L40.3848 41.2833L41.2579 41.2946C42.4763 41.2946 43.4387 40.9505 44.1162 40.2721C44.3095 40.0774 44.4748 39.8593 44.6129 39.6194C44.8899 39.7308 45.187 39.7872 45.4868 39.7854C45.8803 39.7854 46.2039 39.7009 46.2124 39.6979L47.2757 39.4239L46.8124 38.4739C46.8015 38.4498 46.5485 37.8551 46.8418 37.0009C46.9171 36.7836 46.98 36.564 47.0312 36.3459C47.2307 36.3867 47.4394 36.4078 47.6544 36.4086C48.9132 36.4086 49.517 35.5461 49.6334 35.3589L50.1526 34.4791L49.1918 34.095C48.5244 33.8256 48.2217 33.1993 48.0867 32.6416C49.3277 32.536 49.9928 31.5173 50.1976 30.8985L50.1969 30.8978Z" fill="#FFFFFE"/>
<path fill-rule="evenodd" clip-rule="evenodd" d="M35.8361 22.552C34.8194 22.5527 34.0565 22.8772 33.8904 23.2598L35.8361 24.0068L37.7825 23.2598C37.618 22.8772 36.8551 22.5527 35.8361 22.552ZM35.857 42.3518H35.8182C35.202 42.3555 34.3522 42.2325 33.944 42.1156L33.4519 43.4127C33.7763 43.5251 34.8753 43.741 35.8384 43.741C36.8 43.741 37.8997 43.5251 38.2233 43.4127L37.7321 42.1163C37.3215 42.2325 36.4732 42.3555 35.857 42.3518ZM39.5799 41.0614C39.2136 41.2636 38.3964 41.567 37.9207 41.7073L38.3196 42.7789C39.0553 42.5827 39.663 42.354 40.1643 42.1088L39.3355 41.8409L39.5799 41.0614ZM32.0946 41.0614L32.3398 41.8409L31.5102 42.1088C32.0107 42.354 32.6207 42.5827 33.3541 42.7781L33.7538 41.7066C33.2789 41.5662 32.4601 41.2636 32.0946 41.0614ZM35.8361 21.3122C36.6036 21.3122 37.3549 21.491 37.9338 21.8041C37.9866 21.6321 38.0603 21.4223 38.1605 21.2027L37.9416 21.2284L37.7127 21.251L37.6156 21.048L37.3223 20.4466L36.7899 20.7168L36.5819 20.8194L36.4158 20.6609L35.8361 20.1025L35.2579 20.6609L35.0926 20.8194L34.8854 20.7168L34.3499 20.4466L34.0604 21.048L33.9618 21.2518L33.7321 21.2284L33.5148 21.2027C33.6149 21.4223 33.6879 21.6321 33.7414 21.8041C34.3219 21.491 35.0732 21.3122 35.8369 21.3122H35.8361ZM47.5434 28.2672C47.6435 28.3005 47.7444 28.3155 47.8445 28.3155C48.2791 28.3155 48.6982 28.0416 48.8418 27.7292C48.8418 27.7292 48.0463 27.6824 47.191 26.8365C46.9194 26.5634 46.6307 26.4811 46.3839 26.4811C45.9997 26.4811 45.711 26.6781 45.711 26.6781C46.7448 27.2138 46.9551 28.0741 47.5434 28.2672ZM23.83 28.3148C23.9309 28.3148 24.0318 28.3005 24.1288 28.2665C24.7186 28.0733 24.9313 27.2138 25.9627 26.6788C25.9627 26.6788 25.674 26.4811 25.2921 26.4811C25.0438 26.4811 24.7559 26.5626 24.4827 26.8373C23.6282 27.6824 22.8335 27.73 22.8335 27.73C22.9763 28.0416 23.3962 28.3155 23.83 28.3155V28.3148Z" fill="#FFFFFE"/>
<path fill-rule="evenodd" clip-rule="evenodd" d="M47.2321 34.4388C46.4327 34.0539 45.9282 33.0352 45.8056 32.6685C45.6737 34.6893 44.6609 36.0913 43.4773 37.4405C42.8627 38.1408 42.6485 38.8214 42.6485 38.8214C42.6485 38.8214 42.7672 38.0503 43.2981 37.4224C44.4024 36.1306 45.4517 34.5218 45.5301 32.6609C45.5836 31.363 45.2414 30.3104 44.7059 29.4426C45.0055 30.3458 44.9628 31.4528 43.9469 32.4859C43.9469 32.4859 45.9701 30.1255 43.1421 27.7048C42.0105 26.7842 40.7719 26.2152 40.1347 25.8122C42.4374 26.5442 43.5627 25.7383 43.5627 25.7383C42.827 26.3593 41.8747 26.3488 41.2841 26.259C41.4448 26.3352 41.6116 26.4152 41.7901 26.508C43.7327 27.5357 45.4773 29.2268 45.7753 31.5675V31.5494C46.2262 33.8487 47.2321 34.4388 47.2321 34.4388ZM47.8234 31.76C47.8413 31.7615 47.8568 31.7615 47.8747 31.7615C48.9573 31.7615 49.3236 30.6318 49.3236 30.6318H49.3027C49.104 30.6318 47.4944 30.5866 46.3566 29.1777C45.6085 28.2518 44.9946 27.4376 43.7823 27.1177L43.6628 27.0966L43.6372 26.9781C43.6038 26.7977 43.7303 26.6287 44.0191 26.4469C45.6915 25.3799 44.5546 24.0186 44.5546 24.0186C44.5546 24.0186 44.078 25.1067 43.0094 25.1067L42.9294 25.1052C42.8084 25.0991 42.6912 25.0954 42.5732 25.0705L42.3761 25.0327C42.3761 25.0327 42.6811 24.2253 41.9453 23.4851C41.392 22.9252 40.7176 22.8301 40.3288 22.8301C40.1324 22.8301 40.0082 22.855 40.0082 22.855C40.3776 23.3251 40.6446 24.1061 40.2178 24.5875C39.8491 25.001 38.9489 25.0214 38.9489 25.6387C38.9489 25.8998 39.1995 26.2046 39.6497 26.4785C41.0032 27.3086 42.3466 28.4103 42.9054 29.887C43.6038 31.7283 42.8169 32.9507 41.6947 33.6517C41.6947 33.6517 42.047 33.9671 42.5569 34.0079C42.6609 34.0177 42.7626 34.0222 42.8572 34.0222C43.9352 34.0222 44.4925 33.5295 44.4925 33.5295C44.4925 33.5295 44.4001 34.2101 43.8406 34.8417C43.3221 35.4243 42.643 35.7684 41.607 35.7827C41.607 35.7827 41.5744 36.2505 42.033 36.6565C42.3272 36.9123 43.0047 36.9961 43.0047 36.9961C43.0047 36.9961 41.735 37.2459 41.5946 39.0727C41.5185 40.0628 41.2593 40.4061 41.2593 40.4061H41.2818C44.2278 40.4061 44.1525 37.9446 44.1525 37.9446C44.1525 37.9446 44.3574 38.6735 45.1793 38.8637C45.2786 38.8894 45.385 38.8992 45.4859 38.8992C45.7497 38.8992 45.9802 38.8388 45.9802 38.8388C45.9802 38.8388 45.5495 37.9544 45.9763 36.7176C46.331 35.6906 46.2736 34.93 46.2736 34.93C46.2736 34.93 46.6702 35.5148 47.655 35.5201H47.6651C47.8978 35.5236 48.1275 35.47 48.3332 35.3642C48.5389 35.2584 48.7137 35.1039 48.8417 34.9149C46.8774 34.1203 47.0714 31.557 47.0714 31.557C47.0714 31.557 47.326 31.7426 47.8234 31.7607V31.76ZM28.1969 37.4405C27.0134 36.0913 26.0006 34.6893 25.8671 32.6685C25.7453 33.036 25.2416 34.0547 24.443 34.4388C24.443 34.4388 25.4473 33.8487 25.8982 31.5494V31.5675C26.197 29.2268 27.9416 27.5357 29.8842 26.5087C30.0627 26.4144 30.2303 26.3352 30.3894 26.2597C29.7996 26.3488 28.8465 26.3593 28.1116 25.739C28.1116 25.739 29.2369 26.5442 31.5388 25.8122C30.9024 26.2152 29.6638 26.7842 28.533 27.7048C25.7042 30.1255 27.7274 32.4859 27.7274 32.4859C26.7107 31.4521 26.6688 30.3466 26.9684 29.4426C26.4329 30.3104 26.0899 31.363 26.1457 32.6617C26.2226 34.5218 27.2711 36.1306 28.3731 37.4232C28.9071 38.0495 29.0274 38.8207 29.0274 38.8207C29.0274 38.8207 28.8101 38.1408 28.1969 37.4405ZM28.6704 36.9953C28.6704 36.9953 29.3479 36.9123 29.642 36.6558C30.0999 36.2505 30.0681 35.7827 30.0681 35.7827C29.0312 35.7684 28.3529 35.4243 27.8322 34.8417C27.275 34.2101 27.1818 33.5295 27.1818 33.5295C27.1818 33.5295 27.7391 34.0222 28.8155 34.0222C28.9125 34.0222 29.0134 34.0177 29.1166 34.0079C29.4351 33.9765 29.7365 33.8524 29.9812 33.6517C28.8574 32.9507 28.0704 31.7283 28.7681 29.8863C29.3269 28.4111 30.6696 27.3086 32.0246 26.4778C32.474 26.2046 32.7239 25.8998 32.7239 25.6387C32.7239 25.0214 31.8252 25.001 31.4565 24.5875C31.0297 24.1061 31.2974 23.3251 31.6661 22.855C31.6661 22.855 31.5427 22.8301 31.3455 22.8301C30.9575 22.8301 30.2831 22.9252 29.7289 23.4851C28.9917 24.2261 29.2982 25.0335 29.2982 25.0335L29.1011 25.0712C28.9839 25.0946 28.8652 25.0991 28.7441 25.1059L28.6665 25.1067C27.5955 25.1067 27.1197 24.0193 27.1197 24.0193C27.1197 24.0193 25.9843 25.3799 27.6568 26.4469C27.9439 26.6287 28.0704 26.7985 28.0371 26.9781L28.0115 27.0958L27.8896 27.1169C26.6797 27.4376 26.0658 28.2518 25.3161 29.1777C24.1784 30.5866 22.5703 30.6318 22.3709 30.6318H22.3491C22.3491 30.6318 22.7162 31.7615 23.7996 31.7615C23.8167 31.7615 23.8322 31.7615 23.8509 31.76C24.3483 31.7426 24.6037 31.557 24.6037 31.557C24.6037 31.557 24.7961 34.1203 22.8326 34.9149C22.8326 34.9149 23.1904 35.5208 24.0099 35.5208H24.0193C25.0049 35.5148 25.4007 34.93 25.4007 34.93C25.4007 34.93 25.3433 35.6914 25.6964 36.7176C26.1232 37.9552 25.6948 38.838 25.6948 38.838C25.6948 38.838 25.9238 38.8984 26.1884 38.8984C26.2909 38.8984 26.3956 38.8894 26.4942 38.8637C27.3153 38.6735 27.521 37.9446 27.521 37.9446C27.521 37.9446 27.4457 40.4061 30.3925 40.4061H30.4142C30.4142 40.4061 30.1558 40.0628 30.0805 39.0727C29.9408 37.2466 28.6696 36.9953 28.6696 36.9953H28.6704ZM35.1716 27.9251H36.5608V28.3892C36.3979 28.1945 36.0797 28.2345 36.0797 28.2345V28.9038C36.0797 28.9038 36.0905 29.2328 36.2101 29.3754H35.5224C35.6427 29.2328 35.6528 28.9038 35.6528 28.9038V28.2345C35.6528 28.2345 35.3362 28.1945 35.1716 28.3892V27.9251ZM33.6583 27.9945C33.7064 28.0451 33.7537 28.1002 33.7995 28.1553C33.8104 28.1681 33.8205 28.1794 33.8313 28.1945C33.874 28.2488 33.9167 28.3077 33.9578 28.3665L33.9858 28.4065C34.0347 28.479 34.0812 28.5537 34.1278 28.6314C34.5531 29.346 35.233 29.7731 35.836 29.7739C36.4406 29.7731 37.1196 29.346 37.5457 28.6314C37.593 28.5522 37.6404 28.4752 37.6901 28.4028C37.7467 28.3184 37.8073 28.2365 37.8717 28.1575C37.919 28.1002 37.9679 28.0443 38.0176 27.993C38.0261 27.9855 38.0331 27.9772 38.0416 27.9704C38.2589 27.7546 38.5158 27.5901 38.8542 27.4988L38.7036 27.4135H38.6959L38.0967 27.0754L37.4828 26.7321L35.8406 27.6029L35.836 27.5991L35.8337 27.6029L34.1915 26.7321L33.5768 27.0754L32.9776 27.4135H32.9707L32.8193 27.4988C33.1569 27.5893 33.4146 27.7523 33.6319 27.9689C33.6412 27.9764 33.6474 27.987 33.6583 27.9945Z" fill="#FFFFFE"/>
<path fill-rule="evenodd" clip-rule="evenodd" d="M35.3141 24.9746V25.4123L35.2279 25.373C35.2241 25.37 35.0968 25.3429 34.8771 25.1723C34.5132 24.8976 34.5062 24.6441 34.5062 24.6441L35.3133 24.9746H35.3141ZM35.6944 27.0248V24.3068L33.9187 23.7197L34.3874 26.3533L35.6951 27.0248H35.6944ZM36.3618 24.9746L37.1689 24.6441C37.1689 24.6441 37.1627 24.8976 36.7972 25.1723C36.5776 25.3421 36.4511 25.37 36.4472 25.373L36.3618 25.4115V24.9746ZM37.2877 26.354L37.7541 23.7205L35.9792 24.3068V27.0248L37.2877 26.3533V26.354ZM33.1829 33.3257C33.356 33.3861 33.5656 33.3989 33.6734 33.3989C33.6773 33.3861 33.6835 33.3702 33.689 33.3506C33.6975 33.3204 33.7068 33.2887 33.7138 33.2555C33.7441 33.1046 33.7541 32.9348 33.7573 32.8247C33.658 32.7673 33.5771 32.6842 33.5237 32.5847C33.4577 32.4496 33.3638 32.3862 33.2264 32.3862C33.0479 32.3862 32.8562 32.4919 32.7732 32.5402C32.708 32.916 32.9928 33.257 33.1829 33.325V33.3257ZM37.1115 31.8837C36.7824 32.2331 36.136 32.842 36.1049 32.8722L36.0661 32.9099L34.025 32.879C34.0233 33.0432 34.0014 33.2066 33.9598 33.3657L33.9435 33.4283L36.3703 33.8539C36.6226 33.6819 37.3172 33.1876 37.5872 32.9937C37.3909 32.7145 37.3723 32.3832 37.4165 32.1508C37.3 32.0792 37.1969 31.9889 37.1115 31.8837Z" fill="#FFFFFE"/>
<path fill-rule="evenodd" clip-rule="evenodd" d="M37.3882 29.4929C36.9179 29.9472 36.467 30.1155 36.0642 30.1547C35.9905 30.1625 35.9164 30.1665 35.8422 30.1668H35.8321C35.684 30.1668 35.5362 30.1516 35.3913 30.1215C35.3649 30.2234 35.3316 30.4369 35.427 30.6392C35.5124 30.8225 35.6855 30.9591 35.9385 31.0504L36.0238 31.0829L36.0246 31.1719C36.0246 31.1983 36.0448 31.7763 36.692 31.9371C36.7976 31.8314 36.8938 31.7356 36.9637 31.6549C36.8317 31.3523 36.9016 31.0429 37.0933 30.8912C37.0855 30.9237 37.0002 31.682 37.6249 31.9642L37.7281 32.0118L37.6971 32.1182C37.687 32.1506 37.479 32.8848 38.2357 33.158L38.3692 33.2078L38.3094 33.3338C38.2962 33.3617 37.9998 34.0281 38.6982 34.4069H40.2124V33.235C39.6738 33.1708 39.4464 32.749 39.3874 32.4502C39.1367 32.4087 38.9435 32.3038 38.8108 32.1325C38.4926 31.725 38.7658 31.3515 38.7696 31.3311C38.7689 31.3342 38.7696 31.7311 39.0211 31.9771C39.146 32.0948 39.2935 32.1868 39.5178 32.2072L39.6272 32.217L39.6365 32.3264C39.6389 32.3498 39.6986 32.8879 40.2124 32.9724L40.2116 30.5803C40.2116 30.2091 40.3226 29.8363 40.4561 29.4922H37.3882V29.4929ZM33.3114 30.5894L33.271 32.1121L33.4495 32.1393L33.8842 30.6777L33.663 30.2279L33.3122 30.5894H33.3114ZM34.2536 36.2292C34.2416 36.2288 34.2299 36.2261 34.2191 36.2212C34.2083 36.2162 34.1986 36.2092 34.1907 36.2005C34.1828 36.1918 34.1768 36.1817 34.173 36.1706C34.1693 36.1596 34.1679 36.148 34.169 36.1364C34.1697 36.1249 34.1727 36.1138 34.1779 36.1035C34.1831 36.0932 34.1903 36.084 34.1992 36.0765C34.2081 36.069 34.2185 36.0633 34.2297 36.0597C34.2409 36.0561 34.2527 36.0547 34.2644 36.0556C34.3157 36.0579 34.3514 36.1009 34.3498 36.1477C34.348 36.1709 34.3369 36.1924 34.3189 36.2077C34.3009 36.2229 34.2774 36.2307 34.2536 36.2292ZM38.1045 37.5777C38.1177 37.5777 38.1332 37.5792 38.1472 37.5829C38.4188 37.6584 38.4864 38.6077 38.9606 38.6922C39.0071 38.702 39.0506 38.7043 39.0878 38.7043C39.2252 38.7043 39.3067 38.6477 39.3952 38.5458C39.3952 38.5458 39.1561 38.1813 38.9776 37.9346C38.7409 37.6116 38.557 37.2215 38.1154 37.2215C38.1045 37.2215 38.0921 37.2215 38.0805 37.223C37.9964 37.2263 37.915 37.253 37.8461 37.3C37.6987 37.2052 37.5261 37.154 37.3494 37.1528C37.0739 37.1528 36.8581 37.2766 36.7503 37.2766H36.7464L35.7607 37.1815C35.6063 37.1664 35.4845 37.0155 35.4402 36.9566L35.4231 36.931C35.4231 36.9046 35.4231 36.8782 35.4216 36.8548C35.3882 36.0692 34.7642 35.7334 34.5415 35.7274C34.5415 35.7274 34.5679 35.578 34.5081 35.5214L34.2908 35.778L33.5768 35.4293L34.0859 36.0089L33.6552 36.4805C33.6009 36.5341 33.6079 36.6065 33.6304 36.6374L33.8166 36.7974L34.0526 36.6578C34.0642 36.6495 34.0859 36.6465 34.1123 36.6465C34.1775 36.6465 34.2753 36.6631 34.363 36.6631C34.46 36.6631 34.5431 36.6435 34.5531 36.5552C34.5237 36.8465 34.2458 37.3528 34.4282 37.7505L34.5632 38.0508L33.6917 37.9286L33.2835 38.5994C33.1577 38.8227 33.1376 39.0642 33.2586 39.1955L33.4115 39.3819C33.4115 39.3819 33.6257 39.1608 33.6731 39.0152L33.604 38.9412C33.5458 38.8786 33.5489 38.8227 33.5846 38.7556L33.8407 38.3421L34.869 38.5783L34.9233 38.4877C34.9932 38.3745 35.0941 38.3413 35.2043 38.3413C35.2501 38.3413 35.2966 38.3466 35.3448 38.3541C35.5357 38.3911 35.85 38.4402 36.1643 38.4402C36.5097 38.4402 36.8519 38.3798 37.0343 38.1813C37.4068 38.7194 38.1627 38.8046 38.103 39.0786L37.9043 40.0007C38.0362 39.9946 38.1627 39.9863 38.283 39.9705L38.4724 39.0114C38.4877 38.93 38.5012 38.8482 38.5127 38.7662C38.4398 38.6937 38.2636 38.542 38.1635 38.3572C38.0308 38.1074 38.103 37.9768 37.9788 37.6524C37.9788 37.6524 38.0176 37.5769 38.1045 37.5769V37.5777Z" fill="#FFFFFE"/>
<path fill-rule="evenodd" clip-rule="evenodd" d="M32.8478 38.4486C32.8478 38.4486 33.1893 38.3127 33.2203 38.2146L33.1737 38.1045C33.1419 38.032 33.1458 37.9536 33.2087 37.9113L33.5765 37.663L34.192 37.7785C34.192 37.7785 34.0802 37.6427 34.0911 37.4616L33.5043 37.3408L32.9502 37.6691C32.8535 37.7388 32.7837 37.838 32.7517 37.9508C32.7198 38.0636 32.7277 38.1836 32.7741 38.2916L32.8478 38.4493V38.4486ZM37.1993 40.0121C37.3087 40.0076 37.4314 40.006 37.5641 40.006C37.5641 40.006 37.8807 39.1043 37.8986 39.0756C37.6634 38.969 37.4339 38.8508 37.2109 38.7217C37.3048 38.8591 37.533 39.0153 37.488 39.136L37.1993 40.0121Z" fill="#FFFFFE"/>
<path fill-rule="evenodd" clip-rule="evenodd" d="M40.2125 34.6652H31.4622V37.8714C31.4622 39.1829 32.4361 40.0032 33.8742 40.0032C35.0748 40.0032 35.3915 40.0484 35.8377 40.4808C36.1458 40.1812 36.4004 40.0703 36.9243 40.0281L36.9359 39.979L37.2114 39.1482C37.1959 39.1293 36.7458 38.6305 36.7458 38.6305C36.5673 38.6886 36.4167 38.6985 36.1637 38.6985C35.9053 38.6985 35.6127 38.6683 35.2953 38.6109C35.2655 38.6041 35.235 38.6005 35.2044 38.6004C35.1656 38.6004 35.1633 38.6034 35.1525 38.6222L35.0981 38.7105L34.9972 38.872L34.8086 38.829L33.9689 38.6366L33.8533 38.8215L33.8711 38.8418L33.9728 38.9512L33.9278 39.0946C33.8657 39.281 33.6655 39.4991 33.6042 39.5595L33.3946 39.7783L33.2029 39.5436L33.0593 39.3678C32.908 39.2033 32.8731 38.9512 32.9585 38.6871C32.956 38.6889 32.953 38.69 32.9499 38.6902L32.7132 38.786L32.6069 38.5596L32.5316 38.4004C32.4593 38.2375 32.4463 38.0555 32.4947 37.8844C32.5431 37.7134 32.65 37.5635 32.7978 37.4594L33.473 37.0874L34.1172 37.2104C34.1327 37.15 34.156 36.9357 34.1738 36.8806C34.1614 36.8791 34.1497 36.8769 34.1373 36.8769L33.7664 37.0112L33.4094 36.7712C33.4094 36.7712 33.2697 36.6399 33.3962 36.5086L33.7415 35.9978L32.8645 34.9262L34.2126 35.465L34.3026 35.3571L34.4842 35.1443L34.6907 35.336C34.745 35.3876 34.7827 35.4534 34.7993 35.5254C35.1703 35.6665 35.8362 36.0823 35.8952 36.7584L35.6872 36.8391V36.8444C35.7345 36.8995 35.7741 36.9221 35.7865 36.9244L36.7489 37.0165C36.7737 37.0119 36.8032 37.0014 36.8373 36.9923C36.9576 36.9523 37.1369 36.8942 37.3496 36.8942C37.5234 36.8942 37.691 36.9335 37.8517 37.0074C37.9114 36.9848 37.9836 36.9689 38.069 36.9636L38.1156 36.9621C38.6301 36.9621 38.8862 37.3372 39.0919 37.6367C39.126 37.6888 39.1602 37.7371 39.1959 37.7854C39.3759 38.0329 39.6111 38.3944 39.6204 38.4102L39.7267 38.5709L39.5963 38.7188C39.497 38.832 39.3457 38.9641 39.088 38.9641C39.0296 38.9636 38.9714 38.9578 38.9141 38.9467C38.8614 38.9369 38.8098 38.9214 38.7605 38.9007C38.7526 38.9539 38.7435 39.007 38.7333 39.0599L38.5649 39.9179C39.5738 39.6764 40.2149 38.9339 40.2149 37.8714L40.2125 34.6652ZM31.4622 34.4071H38.2684C37.9285 34.0645 37.9339 33.6321 38.0201 33.3506C37.9283 33.3078 37.8429 33.2529 37.7663 33.1877C37.5001 33.3786 36.6883 33.9543 36.4765 34.0992L36.4307 34.1294L33.7594 33.6585H33.705C33.6414 33.6585 33.5475 33.6563 33.4451 33.6434C33.4341 33.6911 33.4092 33.7347 33.3732 33.7689C33.3373 33.8031 33.292 33.8264 33.2427 33.8361C33.1935 33.8458 33.1424 33.8413 33.0956 33.8233C33.0489 33.8053 33.0085 33.7746 32.9794 33.7347C32.9589 33.7075 32.9443 33.6766 32.9363 33.6439C32.9283 33.6111 32.9271 33.5771 32.9328 33.5438L32.9429 33.4872C32.6682 33.2986 32.4129 32.876 32.5262 32.4308L32.537 32.384L32.5758 32.3568C32.615 32.3309 32.6554 32.3067 32.6969 32.2844L32.5029 32.2542C32.4684 32.2485 32.4376 32.2299 32.4171 32.2024C32.3965 32.1749 32.3877 32.1407 32.3927 32.1071C32.4051 32.0361 32.4726 31.9863 32.5448 31.9992L33.0066 32.0701L33.0493 30.4847L33.7369 29.7754L34.1668 30.656L33.7136 32.1818L34.1218 32.2444C34.1567 32.25 34.1878 32.2687 34.2085 32.2966C34.2292 32.3245 34.2376 32.3592 34.232 32.3931C34.227 32.4231 34.2111 32.4504 34.1872 32.4701C34.1633 32.4897 34.1329 32.5004 34.1016 32.5002L34.0807 32.4995L33.7477 32.4466C33.7524 32.4572 33.7586 32.4625 33.7633 32.4731C33.8003 32.5355 33.8561 32.5856 33.9231 32.6164L35.9588 32.6489C36.045 32.5666 36.2584 32.3629 36.4788 32.1471C36.2869 32.0786 36.1185 31.9595 35.9924 31.8032C35.8663 31.6468 35.7875 31.4594 35.7648 31.2619C35.4854 31.1457 35.2914 30.9722 35.1843 30.7458C35.0539 30.4651 35.1005 30.1844 35.1354 30.0478C34.8637 29.952 34.5781 29.7754 34.2863 29.4932H31.2192C31.3512 29.8373 31.4622 30.21 31.4622 30.5805V34.4063V34.4071Z" fill="#FFE52B"/>
<path fill-rule="evenodd" clip-rule="evenodd" d="M34.2645 36.0545C34.2527 36.0535 34.2408 36.0549 34.2296 36.0586C34.2183 36.0622 34.208 36.068 34.1991 36.0756C34.1902 36.0832 34.1829 36.0924 34.1778 36.1028C34.1726 36.1132 34.1696 36.1245 34.1691 36.136C34.1681 36.1475 34.1696 36.159 34.1734 36.17C34.1771 36.1809 34.1832 36.191 34.1911 36.1996C34.199 36.2082 34.2086 36.2152 34.2194 36.2201C34.2301 36.2249 34.2418 36.2277 34.2537 36.228C34.2774 36.2295 34.3007 36.2219 34.3187 36.2068C34.3367 36.1917 34.3479 36.1703 34.3499 36.1473C34.3512 36.124 34.3429 36.1011 34.3269 36.0838C34.3109 36.0664 34.2885 36.0558 34.2645 36.0545ZM38.3204 42.7779L37.9207 41.7064C38.3964 41.5653 39.2136 41.2619 39.5807 41.0604L39.3363 41.8399L40.1643 42.1078C39.663 42.3523 39.0561 42.581 38.3204 42.7771V42.7779ZM35.8384 43.74C34.8753 43.74 33.7764 43.5242 33.452 43.4118L33.944 42.1154C34.3522 42.2316 35.2013 42.3546 35.8183 42.3508H35.8571C36.4733 42.3546 37.3215 42.2308 37.7321 42.1154L38.2233 43.4118C37.8989 43.5249 36.8 43.74 35.8384 43.74ZM31.511 42.1078L32.3398 41.8399L32.0946 41.0604C32.4601 41.2619 33.2797 41.566 33.7539 41.7064L33.3542 42.7779C32.6208 42.5817 32.0115 42.3523 31.511 42.1078ZM40.2016 41.8701L39.6971 41.6815L39.8368 41.1744L39.9897 40.6213C39.9897 40.6213 39.0972 41.0936 37.8376 41.4476C37.4806 41.5472 37.2106 41.5932 37.2106 41.5932V41.9697C37.2106 41.9697 36.5369 42.0829 35.8571 42.0829H35.8183C35.1368 42.0829 34.4648 41.9697 34.4648 41.9697V41.5924C34.4648 41.5924 34.1939 41.5472 33.8369 41.4476C32.5789 41.0929 31.6864 40.6213 31.6864 40.6213L31.8369 41.1744L31.9797 41.6815L31.4737 41.8701L30.9126 42.0739C31.5552 42.3765 32.4461 42.8164 33.261 43.0337L33.0693 43.5453C33.0693 43.5453 34.1031 44.0041 35.8252 44.0086V44.0094H35.8485V44.0086C37.573 44.0041 38.6067 43.5453 38.6067 43.5453L38.4127 43.0337C39.2284 42.8164 40.1209 42.3772 40.7604 42.0739L40.2016 41.8701ZM33.7329 21.2267L33.9618 21.2508L34.0604 21.0471L34.3491 20.4457L34.8846 20.7158L35.0926 20.8192L35.8361 20.1008L36.4158 20.6592L36.5819 20.8192L36.7899 20.7158L37.3223 20.4457L37.6157 21.0471L37.7127 21.2508L37.9416 21.2267L38.1605 21.2018C38.0604 21.4214 37.9866 21.6304 37.9331 21.804C37.3549 21.4893 36.6037 21.3112 35.8369 21.3112C35.0732 21.3112 34.322 21.4893 33.7414 21.804C33.6788 21.5989 33.6031 21.3977 33.5148 21.2018L33.7321 21.2267H33.7329ZM35.8361 21.6244C36.8629 21.6244 37.6832 21.9564 38.1372 22.3088C38.1372 22.3088 38.2722 21.5187 38.7317 20.8222L37.9052 20.9128L37.4729 20.0186L36.6425 20.4359L35.8361 19.6602L35.0328 20.4359L34.2009 20.0186L33.7694 20.9135L32.9428 20.8215C33.4031 21.5187 33.5373 22.308 33.5373 22.308C33.9937 21.9556 34.8117 21.6244 35.8361 21.6244ZM48.8418 34.9135C48.8418 34.9135 48.4848 35.5195 47.6652 35.5195H47.6551C46.6711 35.5134 46.2737 34.9286 46.2737 34.9286C46.2737 34.9286 46.3311 35.6892 45.9772 36.7162C45.5504 37.9538 45.9804 38.8367 45.9804 38.8367C45.9804 38.8367 45.7506 38.8978 45.486 38.8978C45.3851 38.8978 45.2795 38.888 45.1794 38.8623C44.3575 38.6729 44.1527 37.944 44.1527 37.944C44.1527 37.944 44.2287 40.4047 41.2819 40.4047H41.2586C41.2586 40.4047 41.5186 40.0614 41.5955 39.0713C41.7351 37.2452 43.0048 36.9939 43.0048 36.9939C43.0048 36.9939 42.3273 36.9109 42.0332 36.6551C41.5745 36.2499 41.6063 35.7813 41.6063 35.7813C42.6432 35.767 43.323 35.4236 43.8407 34.8403C44.1743 34.4671 44.3993 34.0141 44.4926 33.5281C44.4926 33.5281 43.9354 34.0208 42.8574 34.0208C42.7627 34.0208 42.6618 34.0163 42.5578 34.0065C42.0471 33.9665 41.6948 33.6503 41.6948 33.6503C42.817 32.9493 43.604 31.7261 42.9063 29.8849C42.3475 28.4097 41.0033 27.3072 39.6506 26.4772C39.2004 26.2032 38.949 25.8984 38.949 25.6365C38.949 25.02 39.8493 25.0004 40.2187 24.5861C40.6455 24.1047 40.3778 23.3237 40.0084 22.8536C40.0084 22.8536 40.1325 22.8287 40.3289 22.8287C40.7185 22.8287 41.3921 22.9238 41.9462 23.4837C42.6812 24.2247 42.3762 25.0321 42.3762 25.0321L42.5733 25.0698C42.6913 25.0932 42.8085 25.0985 42.9303 25.1046L43.0095 25.1053C44.0782 25.1053 44.5555 24.0172 44.5555 24.0172C44.5555 24.0172 45.6916 25.3785 44.0192 26.4455C43.7312 26.6273 43.604 26.7971 43.6373 26.9767L43.6637 27.0952L43.7825 27.1155C44.9947 27.4362 45.6086 28.2512 46.3575 29.1763C47.4953 30.5852 49.1049 30.6304 49.3028 30.6304H49.3245C49.3245 30.6304 48.9574 31.7601 47.8748 31.7601C47.8569 31.7601 47.8414 31.7601 47.8236 31.7586C47.3269 31.7412 47.0708 31.5556 47.0708 31.5556C47.0708 31.5556 46.8775 34.1189 48.8418 34.9135ZM47.8748 32.1057C49.2019 32.1057 49.6458 30.7904 49.6644 30.7346L49.8119 30.2705L49.3152 30.2856H49.3136C49.1375 30.2856 47.6738 30.2479 46.6361 28.9628L46.5376 28.8436C45.8593 28.0037 45.2159 27.2046 44.0657 26.8401C44.1117 26.801 44.1607 26.7654 44.2124 26.7337C44.8224 26.3428 45.1779 25.8682 45.2663 25.3166C45.3975 24.4873 44.8535 23.8263 44.8302 23.7991L44.4608 23.3539L44.2295 23.8821C44.214 23.9146 43.8259 24.7597 43.0095 24.7597H42.9489C42.8931 24.7574 42.8395 24.7552 42.7867 24.7506C42.8155 24.3734 42.7448 23.7908 42.2016 23.243C41.5489 22.5842 40.748 22.4854 40.3289 22.4854C40.1054 22.4854 39.9564 22.5125 39.9401 22.514L39.382 22.6219L39.7259 23.0634C39.9959 23.4045 40.2412 24.033 39.9509 24.3613C39.8578 24.4669 39.6669 24.5507 39.4845 24.6359C39.1089 24.8042 38.5951 25.0397 38.5951 25.6365C38.5951 26.0229 38.9032 26.4281 39.462 26.7715C41.1135 27.7834 42.1333 28.8398 42.5733 30.0056C43.2547 31.7986 42.3661 32.8218 41.5023 33.3606L41.1158 33.6028L41.455 33.9061C41.5008 33.9454 41.9144 34.3008 42.5268 34.3521C42.6432 34.3596 42.7542 34.3657 42.8581 34.3657C43.2501 34.3657 43.5846 34.3053 43.8562 34.2253C43.775 34.3631 43.6804 34.493 43.5737 34.6132C43.0809 35.1701 42.474 35.4236 41.6009 35.4372L41.2765 35.4417L41.2516 35.7587C41.2485 35.8228 41.2245 36.4106 41.7949 36.9102C41.8826 36.9871 41.9882 37.0513 42.0991 37.1026C41.7111 37.4422 41.3184 38.0338 41.2423 39.0464C41.1779 39.8916 40.9707 40.2047 40.9684 40.2085L40.6098 40.7413L41.2579 40.7496C42.3281 40.7496 43.1476 40.4628 43.7149 39.8923C44.0088 39.5927 44.2281 39.2316 44.356 38.8367C44.6711 39.0979 45.0718 39.2414 45.486 39.2411C45.7887 39.2411 46.0417 39.1785 46.0696 39.1725L46.4833 39.0653L46.3009 38.6895C46.2869 38.6593 45.9423 37.9047 46.3133 36.8279C46.4732 36.3623 46.5547 35.9458 46.5942 35.6206C46.855 35.7534 47.2035 35.862 47.6544 35.8636C48.6788 35.8636 49.1297 35.1188 49.1499 35.0878L49.3517 34.7452L48.9776 34.5958C47.7576 34.1023 47.4875 32.7773 47.4332 32.0604C47.5442 32.0808 47.6699 32.0996 47.8119 32.1034L47.8748 32.1057Z" fill="#1A1919"/>
<path fill-rule="evenodd" clip-rule="evenodd" d="M46.3843 26.4811C46.631 26.4811 46.9198 26.5634 47.1914 26.8373C48.0466 27.6825 48.8421 27.73 48.8421 27.73C48.6978 28.0416 48.2787 28.3156 47.8448 28.3156C47.7447 28.3156 47.6431 28.3005 47.5445 28.2665C46.9555 28.0733 46.7451 27.2139 45.7122 26.6789C45.7122 26.6789 45.9993 26.4811 46.3843 26.4811ZM45.5437 26.9837C46.0381 27.2403 46.3268 27.5851 46.5798 27.89C46.8282 28.188 47.0633 28.4748 47.4335 28.594C47.5639 28.6378 47.7028 28.6589 47.8448 28.6589C48.3982 28.6589 48.9547 28.3284 49.1658 27.8711L49.3776 27.4138L48.8646 27.3836C48.8406 27.3836 48.1801 27.324 47.4459 26.5936C47.1433 26.2933 46.7777 26.1363 46.3843 26.1363C45.9031 26.1363 45.5461 26.3702 45.5073 26.3944L45.0354 26.7181L45.5437 26.9837ZM45.7758 31.5498V31.5671C45.4778 29.2264 43.7331 27.5361 41.7906 26.5083C41.6121 26.4147 41.4452 26.3348 41.2846 26.2593C41.8752 26.3483 42.8274 26.3589 43.5632 25.7386C43.5632 25.7386 42.4378 26.5438 40.1352 25.8118C40.7716 26.2148 42.011 26.7837 43.1425 27.7043C45.9698 30.1251 43.9473 32.4855 43.9473 32.4855C44.964 31.4524 45.0059 30.3462 44.7063 29.4422C45.2418 30.31 45.5833 31.3626 45.5306 32.6613C45.4529 34.5213 44.4029 36.1301 43.2985 37.4228C42.7677 38.0491 42.6497 38.8203 42.6497 38.8203C42.6497 38.8203 42.8639 38.1404 43.4778 37.4409C44.6613 36.0901 45.6741 34.6889 45.8061 32.6681C45.9287 33.0356 46.4331 34.0543 47.2325 34.4383C47.2325 34.4383 46.2275 33.8482 45.7758 31.5498ZM30.3937 40.4057C27.4469 40.4057 27.5222 37.9449 27.5222 37.9449C27.5222 37.9449 27.3158 38.6739 26.4954 38.8633C26.3952 38.8878 26.2922 38.8997 26.1889 38.8987C25.925 38.8987 25.6953 38.8384 25.6953 38.8384C25.6953 38.8384 26.1245 37.954 25.6968 36.7172C25.3445 35.691 25.4019 34.9296 25.4019 34.9296C25.4019 34.9296 25.0053 35.5144 24.0205 35.5204H24.0104C23.1916 35.5204 22.8339 34.9145 22.8339 34.9145C24.7974 34.1199 24.6049 31.5565 24.6049 31.5565C24.6049 31.5565 24.3488 31.7422 23.8521 31.7603H23.8001C22.7167 31.7603 22.3496 30.6314 22.3496 30.6314H22.3721C22.5723 30.6314 24.1796 30.5861 25.3166 29.1773C26.0655 28.2514 26.6801 27.4372 27.8901 27.1173L28.0119 27.0961L28.0375 26.9777C28.0717 26.7981 27.9444 26.6283 27.6572 26.4464C25.9848 25.3794 27.1202 24.0189 27.1202 24.0189C27.1202 24.0189 27.5952 25.1063 28.6669 25.1063L28.7445 25.1055C28.8656 25.0995 28.9844 25.0942 29.1015 25.0701L29.2987 25.0331C29.2987 25.0331 28.9929 24.2257 29.7302 23.4847C30.2843 22.9247 30.9572 22.8297 31.346 22.8297C31.5439 22.8297 31.6657 22.8546 31.6657 22.8546C31.2979 23.3247 31.0309 24.1057 31.4562 24.5871C31.8256 25.0014 32.7251 25.021 32.7251 25.6375C32.7251 25.8994 32.4744 26.2042 32.0251 26.4781C30.6708 27.3082 29.3274 28.4099 28.7686 29.8866C28.0717 31.7278 28.8586 32.9503 29.9816 33.6521C29.9816 33.6521 29.6285 33.9675 29.1178 34.0075C29.0178 34.0168 28.9173 34.0216 28.8167 34.0218C27.7395 34.0218 27.1823 33.5298 27.1823 33.5298C27.1823 33.5298 27.2754 34.2097 27.8326 34.842C28.3526 35.4246 29.0317 35.7679 30.0678 35.7823C30.0678 35.7823 30.1011 36.2501 29.6425 36.6561C29.3483 36.9127 28.6708 36.9957 28.6708 36.9957C28.6708 36.9957 29.9413 37.2462 30.081 39.0723C30.157 40.0623 30.4147 40.4057 30.4147 40.4057H30.3937ZM30.7065 40.2095C30.7057 40.2057 30.5001 39.8925 30.4341 39.0474C30.3565 38.0347 29.9638 37.4431 29.575 37.1036C29.6875 37.0523 29.7923 36.9881 29.8792 36.9111C30.4496 36.4116 30.4255 35.8245 30.4217 35.7596L30.3999 35.4427L30.0732 35.4382C29.2024 35.4246 28.5948 35.1711 28.1019 34.6142C27.9957 34.4936 27.9011 34.3638 27.8194 34.2263C28.0911 34.307 28.4232 34.3667 28.8167 34.3667C28.9215 34.3667 29.0317 34.3606 29.1473 34.3531C29.5434 34.3146 29.918 34.1593 30.2207 33.9079L30.5598 33.6038L30.1733 33.3623C29.3072 32.8228 28.4217 31.8003 29.1023 30.0066C29.5424 28.8408 30.5598 27.7851 32.2144 26.7724C32.7732 26.4291 33.079 26.0239 33.079 25.6375C33.079 25.0406 32.5668 24.8052 32.1911 24.6369C32.008 24.5517 31.8171 24.4671 31.7247 24.3622C31.4337 24.034 31.6782 23.4054 31.949 23.0643L32.2951 22.6229L31.734 22.515C31.7185 22.5127 31.5711 22.4863 31.346 22.4863C30.9277 22.4863 30.1275 22.5852 29.4756 23.2439C28.9316 23.7918 28.8602 24.3751 28.8881 24.7516C28.8353 24.7561 28.7826 24.7584 28.7267 24.7607H28.6669C27.8474 24.7607 27.4609 23.9155 27.4461 23.8831L27.2156 23.3549L26.8431 23.8001C26.8222 23.8272 26.2766 24.4883 26.4101 25.3176C26.4978 25.8684 26.8532 26.3438 27.4632 26.7347C27.53 26.7762 27.5758 26.8117 27.6091 26.8411C26.4574 27.2056 25.8156 28.0047 25.1373 28.8445L25.0395 28.9638C24.0026 30.2488 22.5351 30.2873 22.3597 30.2873L21.8599 30.2722L22.012 30.7355C22.0298 30.7914 22.4722 32.1066 23.8001 32.1066L23.8637 32.1044C24.0042 32.1006 24.1307 32.0817 24.2425 32.0606C24.1881 32.7775 23.9165 34.1033 22.6965 34.5961L22.324 34.747L22.5257 35.0888C22.5444 35.1197 22.9976 35.8645 24.0236 35.8645C24.3908 35.8681 24.7535 35.7852 25.0806 35.6231C25.1202 35.9475 25.2025 36.3633 25.3623 36.8289C25.7333 37.9049 25.388 38.6603 25.3748 38.6905L25.1916 39.0663L25.6053 39.1727C25.6332 39.1802 25.8878 39.2421 26.1889 39.2421C26.6032 39.2431 27.0041 39.0996 27.3189 38.8376C27.4314 39.1749 27.6246 39.556 27.9591 39.8933C28.5288 40.463 29.3476 40.7505 30.417 40.7505L31.065 40.7422L30.7065 40.2095Z" fill="#1A1919"/>
<path fill-rule="evenodd" clip-rule="evenodd" d="M24.4827 26.8372C24.7559 26.5632 25.0438 26.4802 25.2922 26.4802C25.674 26.4802 25.9635 26.6787 25.9635 26.6787C24.9313 27.2145 24.7186 28.0732 24.1288 28.2671C24.0327 28.2995 23.9317 28.3156 23.83 28.3147C23.3962 28.3147 22.9763 28.0415 22.8335 27.7298C22.8335 27.7298 23.6282 27.6823 24.4827 26.8372ZM23.83 28.6588C23.972 28.6588 24.111 28.6376 24.2429 28.5939C24.6123 28.4746 24.8482 28.1886 25.0966 27.8898C25.3504 27.5857 25.636 27.2409 26.1311 26.9843L26.6402 26.7179L26.1668 26.3935C26.128 26.3701 25.7733 26.1369 25.2922 26.1369C24.8979 26.1369 24.5316 26.2931 24.2297 26.5934C23.4947 27.3246 22.8358 27.3835 22.8118 27.3842L22.2996 27.4137L22.5091 27.8717C22.7218 28.3282 23.2774 28.6588 23.83 28.6588ZM26.1451 32.6611C26.0908 31.3625 26.4322 30.3098 26.9677 29.442C26.6697 30.346 26.7101 31.4523 27.7283 32.4861C27.7283 32.4861 25.7043 30.1242 28.5331 27.7049C29.6646 26.7836 30.9025 26.2146 31.5389 25.8117C29.237 26.5436 28.1125 25.7377 28.1125 25.7377C28.8474 26.3587 29.7997 26.3489 30.3903 26.2584C30.2304 26.3346 30.0628 26.4138 29.8843 26.5082C27.9417 27.5352 26.1979 29.2262 25.8983 31.567V31.5496C25.4474 33.8481 24.4431 34.4382 24.4431 34.4382C25.2425 34.0533 25.7454 33.0346 25.868 32.6679C26.0015 34.6887 27.0135 36.0907 28.1963 37.4407C28.8109 38.1402 29.0267 38.8201 29.0267 38.8201C29.0267 38.8201 28.9072 38.0497 28.374 37.4226C27.272 36.13 26.2227 34.5212 26.1451 32.6611ZM35.1718 27.9245V28.3894C35.3363 28.1939 35.6529 28.2339 35.6529 28.2339V28.9032C35.6529 28.9032 35.6428 29.2322 35.5225 29.3749H36.2102C36.0906 29.2322 36.079 28.9032 36.079 28.9032V28.2339C36.079 28.2339 36.3972 28.1939 36.5602 28.3894V27.9245H35.171H35.1718ZM34.8768 25.1718C35.0965 25.3416 35.2238 25.3702 35.2276 25.3725L35.313 25.411V24.9741L34.5059 24.6436C34.5059 24.6436 34.5129 24.8971 34.8768 25.1718ZM36.7969 25.1718C37.1616 24.8971 37.1694 24.6436 37.1694 24.6436L36.3615 24.9741V25.4117L36.4469 25.3725C36.4508 25.3702 36.5773 25.3416 36.7969 25.1718Z" fill="#1A1919"/>
<path fill-rule="evenodd" clip-rule="evenodd" d="M35.837 24.0078L33.8914 23.2592C34.0567 22.8774 34.8196 22.5529 35.837 22.5521C36.8553 22.5529 37.6182 22.8774 37.7835 23.2592L35.837 24.0078ZM37.2875 26.3538L35.9798 27.0254V24.3058L37.7548 23.7187L37.2875 26.3523V26.3538ZM38.0978 27.0752L38.6954 27.4132H38.7039L38.8545 27.4985C38.5169 27.5891 38.2584 27.7543 38.0419 27.9701L38.0186 27.9928C37.9676 28.0457 37.9186 28.1006 37.8719 28.1573L37.8448 28.192C37.7982 28.2501 37.754 28.3097 37.7128 28.3716L37.6903 28.4025C37.64 28.4772 37.5921 28.5535 37.5468 28.6312C37.1199 29.3458 36.4408 29.7729 35.837 29.7744C35.2332 29.7729 34.5534 29.3458 34.1281 28.6312C34.0829 28.5549 34.0355 28.48 33.9861 28.4063L33.9581 28.3663C33.9176 28.308 33.8756 28.2507 33.8324 28.1942C33.8215 28.1792 33.8114 28.1678 33.8006 28.155C33.755 28.1 33.7077 28.0464 33.6586 27.9943C33.6485 27.9867 33.6415 27.9769 33.6322 27.9686C33.4104 27.7429 33.1295 27.5803 32.8196 27.4985L32.9717 27.4132H32.9779L33.5778 27.0752L34.1917 26.7318L35.8339 27.6026L35.837 27.5996L35.8417 27.6026L37.4831 26.7318L38.0978 27.0752ZM40.4571 29.4929C40.3228 29.837 40.2118 30.2098 40.2118 30.5803L40.2134 32.9723C39.7004 32.8893 39.6391 32.3505 39.6375 32.3272L39.6282 32.2177L39.5172 32.2079C39.329 32.1918 39.1532 32.1101 39.0221 31.9778C38.7699 31.7325 38.7699 31.3356 38.7699 31.3318C38.7668 31.3522 38.4936 31.7242 38.8102 32.1317C38.9437 32.3038 39.1377 32.4102 39.3876 32.4517C39.4466 32.7497 39.6748 33.1715 40.2134 33.2364V34.4061H38.6992C38.0008 34.028 38.2965 33.3625 38.3104 33.3338L38.3694 33.207L38.2359 33.158C37.4792 32.8848 37.688 32.1498 37.6981 32.1181L37.7291 32.011L37.6251 31.9642C37.0012 31.682 37.0858 30.9229 37.0943 30.8912C36.9018 31.0428 36.8328 31.3515 36.9647 31.6556C36.8933 31.7356 36.7971 31.8314 36.6923 31.937C36.51 31.8983 36.3459 31.8023 36.2252 31.6639C36.1046 31.5255 36.0342 31.3523 36.0248 31.1711L36.0241 31.0821L35.9387 31.0504C35.6865 30.9598 35.5134 30.8225 35.4273 30.6391C35.3318 30.4361 35.3652 30.2241 35.3916 30.1207C35.5366 30.15 35.6843 30.1651 35.8324 30.166H35.8425C35.9177 30.166 35.9915 30.1615 36.0644 30.1547C36.468 30.1154 36.9181 29.9472 37.3884 29.4929H40.4571ZM38.565 39.9176L38.7342 39.0596L38.7613 38.9012C38.8658 38.941 38.9767 38.9622 39.0888 38.9638C39.3465 38.9638 39.4971 38.831 39.5972 38.7186L39.726 38.5714L39.6205 38.4099C39.6112 38.3941 39.376 38.0326 39.1959 37.7851C39.1602 37.7362 39.1258 37.6864 39.0927 37.6357C38.8871 37.3369 38.6302 36.9619 38.1149 36.9619L38.0691 36.9634C37.9949 36.9673 37.9216 36.9818 37.8518 37.0064C37.6949 36.9335 37.5234 36.8953 37.3496 36.8947C37.1748 36.8988 37.0019 36.9315 36.8382 36.9913C36.804 37.0011 36.773 37.0117 36.7489 37.0162L35.7866 36.9241C35.7742 36.9211 35.7354 36.8985 35.6873 36.8442V36.8389L35.8952 36.7581C35.837 36.082 35.1704 35.6662 34.7994 35.5251C34.783 35.4528 34.7452 35.3867 34.6908 35.335L34.4843 35.1441L34.3027 35.3561L34.2135 35.4648L32.8646 34.9252L33.7416 35.9975L33.3962 36.5084C33.269 36.6389 33.4094 36.771 33.4094 36.771L33.7664 37.0109L34.1374 36.8758C34.1498 36.8758 34.1607 36.8789 34.1739 36.8804C34.156 36.9355 34.1327 37.1505 34.1172 37.2101L33.4738 37.0871L32.7987 37.4591C32.4502 37.7082 32.4028 38.1187 32.5325 38.4001L32.607 38.5601L32.7133 38.7857L32.95 38.6906C32.9539 38.6891 32.957 38.6884 32.9593 38.6861C32.8739 38.951 32.9089 39.2023 33.0602 39.3675L33.2038 39.5433L33.3947 39.7788L33.6042 39.5592C33.6663 39.4988 33.8665 39.2807 33.9279 39.0936L33.9729 38.951L33.8712 38.8416L33.8541 38.8212L33.969 38.6363L34.8087 38.8295L34.9981 38.8717L35.099 38.7095L35.1533 38.622C35.1634 38.6031 35.1657 38.6001 35.2045 38.6001C35.2348 38.6001 35.2643 38.6031 35.2961 38.6107C35.5825 38.6656 35.8734 38.6947 36.1653 38.6974C36.416 38.6974 36.5673 38.6884 36.7458 38.6303C36.7458 38.6303 37.1967 39.1283 37.2123 39.1479L36.936 39.978L36.9236 40.0278C36.4013 40.0693 36.1467 40.181 35.8386 40.4805C35.3916 40.0489 35.0757 40.0029 33.8751 40.0029C32.437 40.0029 31.4622 39.1826 31.4622 37.8704V34.6649H40.2134L40.2149 37.8704C40.2149 38.9336 39.5739 39.6754 38.565 39.9176ZM33.1751 38.1051L33.2208 38.216C33.1898 38.3126 32.8483 38.4499 32.8483 38.4499L32.7754 38.2922C32.7288 38.1841 32.7208 38.064 32.7527 37.951C32.7847 37.838 32.8547 37.7387 32.9515 37.6689L33.5049 37.3407L34.0924 37.4614C34.0807 37.6433 34.1925 37.7791 34.1925 37.7791L33.5778 37.6644L33.2092 37.9119C33.1471 37.9542 33.1425 38.0326 33.1751 38.1051ZM38.4719 39.0106L38.2833 39.9697C38.1622 39.9863 38.0349 39.9953 37.9045 39.9999L38.1032 39.0793C38.1622 38.8046 37.4078 38.7193 37.0345 38.1813C36.8522 38.3805 36.5099 38.4401 36.1653 38.4401C35.8502 38.4401 35.5367 38.3911 35.345 38.3541C35.2988 38.3463 35.2521 38.342 35.2053 38.3413C35.0943 38.3413 34.9942 38.3745 34.9244 38.4884L34.87 38.579L33.8409 38.3428L33.5848 38.7555C33.5491 38.8227 33.546 38.8785 33.6042 38.9412L33.6741 39.0151C33.626 39.1608 33.4118 39.3819 33.4118 39.3819L33.2589 39.1955C33.1378 39.0642 33.158 38.8227 33.2837 38.5993L33.6919 37.9278L34.5635 38.0507L34.4284 37.7497C34.2461 37.352 34.5239 36.8464 34.5534 36.5551C34.5433 36.6434 34.4603 36.6631 34.364 36.6631C34.2755 36.6631 34.1778 36.6472 34.1126 36.6472C34.087 36.6472 34.0645 36.6495 34.0528 36.6578L33.8169 36.7974L33.6306 36.6374C33.6081 36.6072 33.6011 36.534 33.6555 36.4797L34.087 36.0088L33.5778 35.4293L34.2903 35.7787L34.5084 35.5214C34.5681 35.5787 34.5417 35.7274 34.5417 35.7274C34.7645 35.7334 35.3892 36.0692 35.4218 36.854C35.4242 36.8781 35.4242 36.9045 35.4242 36.9309L35.4405 36.9566C35.4847 37.0162 35.6065 37.1679 35.761 37.1815L36.7466 37.2765H36.7505C36.8591 37.2765 37.0741 37.1528 37.3496 37.1528C37.501 37.1528 37.6678 37.1905 37.8463 37.2999C37.8463 37.2999 37.9364 37.2305 38.0815 37.223C38.0923 37.2215 38.1048 37.2215 38.1149 37.2215C38.5572 37.2215 38.7412 37.6108 38.9786 37.9345C39.1571 38.1805 39.3954 38.5458 39.3954 38.5458C39.3077 38.6476 39.2254 38.7042 39.0881 38.7042C39.0453 38.7044 39.0027 38.7003 38.9608 38.6922C38.4874 38.6069 38.4183 37.6584 38.1482 37.5829C38.134 37.5793 38.1194 37.5775 38.1048 37.5776C38.0178 37.5776 37.9798 37.6531 37.9798 37.6531C38.104 37.9768 38.031 38.1073 38.1645 38.3571C38.2639 38.542 38.44 38.6937 38.513 38.7661C38.513 38.7661 38.4936 38.9065 38.4719 39.0113V39.0106ZM37.5646 40.0067C37.4327 40.0067 37.3101 40.0082 37.1998 40.0127L37.4886 39.1366C37.5336 39.0151 37.3054 38.8589 37.2115 38.7216C37.3535 38.8091 37.7222 39.0008 37.8999 39.0762C37.7847 39.3852 37.6729 39.6954 37.5646 40.0067ZM33.2713 32.1121L33.3124 30.5893L33.6632 30.2279L33.8836 30.6776L33.449 32.1393L33.2705 32.1129L33.2713 32.1121ZM33.5235 32.5845C33.5768 32.6837 33.6574 32.7665 33.7563 32.8237C33.7536 32.9684 33.7394 33.1127 33.7137 33.2553C33.7059 33.2885 33.6981 33.3194 33.688 33.3504C33.6834 33.37 33.6772 33.3858 33.6733 33.3987C33.5654 33.3987 33.3551 33.3858 33.1836 33.3247C32.9927 33.2568 32.7078 32.9157 32.7738 32.54C32.8561 32.4909 33.047 32.386 33.2263 32.386C33.3636 32.386 33.4576 32.4494 33.5235 32.5845ZM37.5871 32.9935C37.3178 33.1874 36.6224 33.6817 36.3702 33.8537L33.9426 33.4281L33.9597 33.3655C33.9907 33.2425 34.0241 33.075 34.0256 32.878L36.066 32.9097L36.1048 32.872C36.1358 32.8418 36.7823 32.2328 37.1114 31.8835C37.1898 31.9793 37.2875 32.0698 37.4164 32.1498C37.3729 32.3837 37.3908 32.7143 37.5871 32.9935ZM34.2864 29.4929C34.579 29.7751 34.8638 29.9509 35.1355 30.0475C35.1005 30.1834 35.054 30.4656 35.1843 30.7455C35.2914 30.9719 35.4855 31.1455 35.7656 31.2617C35.7967 31.5409 35.9775 31.9612 36.4796 32.1468C36.2592 32.3626 36.045 32.5664 35.9597 32.6479L33.9232 32.6169C33.8559 32.5856 33.8001 32.5351 33.7633 32.472C33.7594 32.4622 33.7525 32.4569 33.7478 32.4464L34.0807 32.4992L34.1017 32.5C34.133 32.5002 34.1634 32.4895 34.1873 32.4698C34.2112 32.4502 34.2271 32.4229 34.2321 32.3928C34.2377 32.359 34.2294 32.3244 34.2089 32.2966C34.1884 32.2687 34.1574 32.2499 34.1227 32.2441L33.7137 32.1808L34.1669 30.6557L33.7377 29.7751L33.0493 30.4844L33.0074 32.0698L32.5449 31.9982C32.4735 31.9846 32.4052 32.0359 32.392 32.1061C32.3868 32.14 32.3955 32.1746 32.4163 32.2024C32.437 32.2302 32.4681 32.249 32.503 32.2547L32.697 32.2834C32.6271 32.3219 32.5813 32.3528 32.5759 32.3566L32.5371 32.3837L32.5262 32.4305C32.4137 32.8757 32.6683 33.2983 32.943 33.487L32.9329 33.5436C32.922 33.6115 32.9376 33.6794 32.9795 33.7345C33.0033 33.7679 33.0353 33.7952 33.0725 33.8139C33.1097 33.8326 33.151 33.8421 33.1929 33.8416C33.2517 33.8412 33.3086 33.8214 33.3544 33.7855C33.4002 33.7496 33.4322 33.6997 33.4451 33.6439C33.5476 33.6552 33.6415 33.6583 33.7051 33.6583H33.7602L36.4307 34.1284L36.4765 34.0989C36.6892 33.9541 37.501 33.3783 37.7664 33.1874C37.8401 33.2485 37.9216 33.3044 38.0202 33.3504C37.934 33.6318 37.9286 34.0642 38.2685 34.4068H31.4622V30.581C31.4622 30.2098 31.3512 29.837 31.2193 29.4929H34.2864ZM33.9185 23.7203L35.695 24.3066V27.0246L34.3873 26.353L33.9185 23.7195V23.7203ZM38.2522 23.392C38.2522 22.7287 37.1059 22.1318 35.8409 22.1318H35.8332C34.5681 22.1318 33.4226 22.7287 33.4226 23.392L33.4475 23.555L33.9527 26.3794L33.4451 26.6662L32.1328 27.4132H32.1374C32.1374 27.4132 31.8425 27.5611 31.7051 27.6517C31.2053 27.9897 31.099 28.4833 31.3893 28.687C31.4607 28.2848 31.7874 27.8645 32.3982 27.8645C32.839 27.8645 33.1743 28.0863 33.4459 28.4176C33.5158 28.5014 33.5817 28.5912 33.643 28.687C33.7191 28.8085 33.7959 28.9156 33.8712 29.0183H30.489C30.7374 29.505 30.9741 30.0204 30.9741 30.5803V37.8712C30.9741 39.6354 32.3671 40.4775 33.8743 40.4775C35.0392 40.4775 35.196 40.4262 35.8386 41.0495C36.4781 40.4262 36.6356 40.4775 37.8013 40.4775C39.3093 40.4775 40.7 39.6354 40.7 37.8712V30.5803C40.7 30.0204 40.9367 29.505 41.1866 29.0183H37.8029C37.8789 28.9156 37.955 28.8085 38.031 28.687C38.0931 28.5912 38.1591 28.5014 38.2274 28.4176C38.5006 28.0848 38.8358 27.8645 39.2767 27.8645C39.8874 27.8645 40.2134 28.2848 40.2856 28.687C40.5758 28.4833 40.4711 27.9897 39.9674 27.6517C39.8339 27.5611 39.5374 27.4132 39.5374 27.4132H39.5429L38.2274 26.6662L37.7229 26.3794L38.2274 23.555L38.2522 23.392Z" fill="#1A1919"/>
<path d="M59.9858 35.5441H62.3141V30.277H65.5116V28.3604H56.7883V30.277H59.9858V35.5441ZM72.574 28.3604L68.6935 32.5408V28.3604H66.4429V35.5441H68.4296L72.3101 31.3636V35.5441H74.5607V28.3604H72.574ZM78.5165 32.8728H82.133V35.5441H84.3837V28.3604H82.133V30.9863H78.5165V28.3604H76.2658V35.5441H78.5165V32.8728ZM90.6514 35.5441C91.1636 35.5441 91.6292 35.4988 92.0639 35.3781C93.228 35.0611 93.9886 34.1405 93.9886 32.8879C93.9886 31.6957 93.3366 30.8656 92.2967 30.4883C91.8 30.3072 91.2102 30.2921 90.6514 30.2921H88.3386V28.3604H86.088V35.5441H90.6514ZM88.3386 31.9824H90.2633C90.5738 31.9824 90.8687 31.9824 91.1325 32.073C91.5051 32.1937 91.7224 32.4955 91.7224 32.8577C91.7224 33.235 91.5051 33.552 91.1481 33.7029C90.8997 33.8085 90.6514 33.8085 90.2633 33.8085H88.3386V31.9824ZM97.4033 32.8275H98.0242L100.709 35.5441H103.705L99.9644 31.8013L103.565 28.3604H100.741L98.0242 31.0618H97.4033V28.3604H95.1527V35.5441H97.4033V32.8275Z" fill="white"/>
<path d="M108.336 28.1634C105.309 28.1634 103.493 29.8235 103.493 31.9666C103.493 34.1096 105.309 35.7697 108.336 35.7697C111.347 35.7697 113.163 34.1096 113.163 31.9666C113.163 29.8235 111.347 28.1634 108.336 28.1634ZM108.336 34.0191C106.831 34.0191 105.868 33.1438 105.868 31.9666C105.868 30.7894 106.831 29.9292 108.336 29.9292C109.826 29.9292 110.804 30.7894 110.804 31.9666C110.804 33.1438 109.826 34.0191 108.336 34.0191ZM120.659 28.6766V27.9521H118.408V28.6766C115.583 28.7369 113.891 29.899 113.891 31.9515C113.891 34.004 115.583 35.0755 118.408 35.1359V35.8603H120.659V35.1359C123.499 35.0755 125.191 34.004 125.191 31.9515C125.191 29.899 123.499 28.7369 120.659 28.6766ZM118.408 33.5965C116.856 33.5361 116.173 32.9174 116.173 31.9515C116.173 30.9856 116.856 30.2914 118.408 30.231V33.5965ZM120.659 33.5965V30.231C122.227 30.2914 122.894 30.9856 122.894 31.9515C122.894 32.9174 122.227 33.5361 120.659 33.5965ZM132.679 28.6766V27.9521H130.428V28.6766C127.603 28.7369 125.911 29.899 125.911 31.9515C125.911 34.004 127.603 35.0755 130.428 35.1359V35.8603H132.679V35.1359C135.519 35.0755 137.211 34.004 137.211 31.9515C137.211 29.899 135.519 28.7369 132.679 28.6766ZM130.428 33.5965C128.876 33.5361 128.193 32.9174 128.193 31.9515C128.193 30.9856 128.876 30.2914 130.428 30.231V33.5965ZM132.679 33.5965V30.231C134.247 30.2914 134.914 30.9856 134.914 31.9515C134.914 32.9174 134.247 33.5361 132.679 33.5965Z" fill="white"/>
<path d="M34.9724 140.23C34.9724 138.754 33.777 137.557 32.3024 137.557C30.8277 137.557 29.6323 138.754 29.6323 140.23C29.6323 141.706 30.8277 142.902 32.3024 142.902C33.777 142.902 34.9724 141.706 34.9724 140.23Z" fill="white"/>
<path d="M42.4485 140.23C42.4485 138.754 41.253 137.557 39.7784 137.557C38.3038 137.557 37.1084 138.754 37.1084 140.23C37.1084 141.706 38.3038 142.902 39.7784 142.902C41.253 142.902 42.4485 141.706 42.4485 140.23Z" fill="white"/>
<path d="M49.9245 140.23C49.9245 138.754 48.7291 137.557 47.2545 137.557C45.7799 137.557 44.5845 138.754 44.5845 140.23C44.5845 141.706 45.7799 142.902 47.2545 142.902C48.7291 142.902 49.9245 141.706 49.9245 140.23Z" fill="white"/>
<path d="M57.4006 140.23C57.4006 138.754 56.2052 137.557 54.7306 137.557C53.256 137.557 52.0606 138.754 52.0606 140.23C52.0606 141.706 53.256 142.902 54.7306 142.902C56.2052 142.902 57.4006 141.706 57.4006 140.23Z" fill="white"/>
<path d="M73.5152 147.436C72.4454 147.436 71.5412 147.14 70.8024 146.548C70.0695 145.957 69.6115 145.164 69.4283 144.17H70.6694C70.829 144.833 71.1629 145.362 71.6712 145.758C72.1854 146.155 72.8059 146.353 73.5329 146.353C74.6558 146.353 75.5306 145.862 76.157 144.88C76.7835 143.892 77.1204 142.499 77.1677 140.701C77.1736 140.665 77.1647 140.612 77.1411 140.541C77.1234 140.47 77.1145 140.425 77.1145 140.408H77.0613C76.7835 141.118 76.3137 141.688 75.6517 142.12C74.9957 142.546 74.251 142.759 73.4177 142.759C72.1942 142.759 71.1836 142.36 70.3857 141.561C69.5937 140.757 69.1978 139.742 69.1978 138.518C69.1978 137.24 69.6115 136.187 70.4389 135.359C71.2722 134.524 72.3272 134.107 73.6038 134.107C74.4667 134.107 75.2291 134.32 75.8911 134.746C76.5589 135.166 77.0938 135.773 77.4957 136.565C78.0631 137.559 78.3468 138.873 78.3468 140.505C78.3468 142.682 77.9212 144.383 77.0702 145.608C76.225 146.826 75.04 147.436 73.5152 147.436ZM73.6127 141.703C74.5288 141.703 75.2971 141.402 75.9177 140.798C76.5382 140.189 76.8485 139.44 76.8485 138.553C76.8485 137.601 76.5382 136.802 75.9177 136.157C75.303 135.506 74.5376 135.181 73.6216 135.181C72.7114 135.181 71.949 135.498 71.3343 136.131C70.7255 136.764 70.4212 137.547 70.4212 138.482C70.4212 139.417 70.7196 140.189 71.3166 140.798C71.9135 141.402 72.6789 141.703 73.6127 141.703Z" fill="white"/>
<path d="M84.498 147.436C83.4282 147.436 82.5239 147.14 81.7852 146.548C81.0523 145.957 80.5943 145.164 80.411 144.17H81.6522C81.8118 144.833 82.1457 145.362 82.654 145.758C83.1682 146.155 83.7887 146.353 84.5157 146.353C85.6386 146.353 86.5133 145.862 87.1398 144.88C87.7663 143.892 88.1032 142.499 88.1505 140.701C88.1564 140.665 88.1475 140.612 88.1239 140.541C88.1062 140.47 88.0973 140.425 88.0973 140.408H88.0441C87.7663 141.118 87.2965 141.688 86.6345 142.12C85.9785 142.546 85.2338 142.759 84.4004 142.759C83.177 142.759 82.1664 142.36 81.3685 141.561C80.5765 140.757 80.1805 139.742 80.1805 138.518C80.1805 137.24 80.5943 136.187 81.4217 135.359C82.255 134.524 83.31 134.107 84.5866 134.107C85.4495 134.107 86.2119 134.32 86.8739 134.746C87.5417 135.166 88.0766 135.773 88.4785 136.565C89.0459 137.559 89.3296 138.873 89.3296 140.505C89.3296 142.682 88.904 144.383 88.053 145.608C87.2078 146.826 86.0228 147.436 84.498 147.436ZM84.5955 141.703C85.5116 141.703 86.2799 141.402 86.9005 140.798C87.521 140.189 87.8313 139.44 87.8313 138.553C87.8313 137.601 87.521 136.802 86.9005 136.157C86.2858 135.506 85.5204 135.181 84.6043 135.181C83.6942 135.181 82.9318 135.498 82.3171 136.131C81.7083 136.764 81.404 137.547 81.404 138.482C81.404 139.417 81.7024 140.189 82.2994 140.798C82.8963 141.402 83.6617 141.703 84.5955 141.703Z" fill="white"/>
<path d="M95.4808 147.436C94.411 147.436 93.5067 147.14 92.768 146.548C92.0351 145.957 91.5771 145.164 91.3938 144.17H92.635C92.7946 144.833 93.1285 145.362 93.6368 145.758C94.151 146.155 94.7715 146.353 95.4985 146.353C96.6214 146.353 97.4961 145.862 98.1226 144.88C98.7491 143.892 99.086 142.499 99.1333 140.701C99.1392 140.665 99.1303 140.612 99.1067 140.541C99.0889 140.47 99.0801 140.425 99.0801 140.408H99.0269C98.7491 141.118 98.2792 141.688 97.6173 142.12C96.9613 142.546 96.2166 142.759 95.3832 142.759C94.1598 142.759 93.1492 142.36 92.3513 141.561C91.5593 140.757 91.1633 139.742 91.1633 138.518C91.1633 137.24 91.5771 136.187 92.4045 135.359C93.2378 134.524 94.2928 134.107 95.5694 134.107C96.4323 134.107 97.1947 134.32 97.8567 134.746C98.5245 135.166 99.0594 135.773 99.4613 136.565C100.029 137.559 100.312 138.873 100.312 140.505C100.312 142.682 99.8868 144.383 99.0358 145.608C98.1906 146.826 97.0056 147.436 95.4808 147.436ZM95.5783 141.703C96.4944 141.703 97.2627 141.402 97.8833 140.798C98.5038 140.189 98.8141 139.44 98.8141 138.553C98.8141 137.601 98.5038 136.802 97.8833 136.157C97.2686 135.506 96.5032 135.181 95.5871 135.181C94.677 135.181 93.9146 135.498 93.2999 136.131C92.6911 136.764 92.3868 137.547 92.3868 138.482C92.3868 139.417 92.6852 140.189 93.2822 140.798C93.8791 141.402 94.6445 141.703 95.5783 141.703Z" fill="white"/>
<path d="M106.464 147.436C105.394 147.436 104.49 147.14 103.751 146.548C103.018 145.957 102.56 145.164 102.377 144.17H103.618C103.777 144.833 104.111 145.362 104.62 145.758C105.134 146.155 105.754 146.353 106.481 146.353C107.604 146.353 108.479 145.862 109.105 144.88C109.732 143.892 110.069 142.499 110.116 140.701C110.122 140.665 110.113 140.612 110.089 140.541C110.072 140.47 110.063 140.425 110.063 140.408H110.01C109.732 141.118 109.262 141.688 108.6 142.12C107.944 142.546 107.199 142.759 106.366 142.759C105.143 142.759 104.132 142.36 103.334 141.561C102.542 140.757 102.146 139.742 102.146 138.518C102.146 137.24 102.56 136.187 103.387 135.359C104.221 134.524 105.276 134.107 106.552 134.107C107.415 134.107 108.178 134.32 108.839 134.746C109.507 135.166 110.042 135.773 110.444 136.565C111.011 137.559 111.295 138.873 111.295 140.505C111.295 142.682 110.87 144.383 110.019 145.608C109.173 146.826 107.988 147.436 106.464 147.436ZM106.561 141.703C107.477 141.703 108.245 141.402 108.866 140.798C109.487 140.189 109.797 139.44 109.797 138.553C109.797 137.601 109.487 136.802 108.866 136.157C108.251 135.506 107.486 135.181 106.57 135.181C105.66 135.181 104.897 135.498 104.283 136.131C103.674 136.764 103.37 137.547 103.37 138.482C103.37 139.417 103.668 140.189 104.265 140.798C104.862 141.402 105.627 141.703 106.561 141.703Z" fill="white"/>
</g>
<defs>
<filter id="filter0_d" x="0" y="0.850586" width="263" height="168.149" filterUnits="userSpaceOnUse" color-interpolation-filters="sRGB">
<feFlood flood-opacity="0" result="BackgroundImageFix"/>
<feColorMatrix in="SourceAlpha" type="matrix" values="0 0 0 0 0 0 0 0 0 0 0 0 0 0 0 0 0 0 127 0"/>
<feOffset/>
<feGaussianBlur stdDeviation="2"/>
<feColorMatrix type="matrix" values="0 0 0 0 0 0 0 0 0 0 0 0 0 0 0 0 0 0 0.25 0"/>
<feBlend mode="normal" in2="BackgroundImageFix" result="effect1_dropShadow"/>
<feBlend mode="normal" in="SourceGraphic" in2="effect1_dropShadow" result="shape"/>
</filter>
</defs>
</svg>
