<svg width="16" height="26" viewBox="0 0 16 26" fill="none" xmlns="http://www.w3.org/2000/svg">
<path d="M15.5625 21.2958C15.4375 20.5988 15 20.0285 14.4375 19.6483C14.5625 19.5849 14.625 19.4582 14.75 19.3314C15.1875 18.7611 15.4375 18.0641 15.3125 17.367C15.125 16.2264 14.6875 15.1491 13.9375 14.262C13.375 13.6283 12.6875 13.058 11.9375 12.6778C12.875 11.6639 13.4375 10.3331 13.4375 8.8123C13.4375 6.2142 11.6875 4.05969 9.37504 3.36264C9.68754 2.98243 9.87504 2.47548 9.87504 1.96854C9.87504 0.954646 9.06254 0.130859 8.06254 0.130859C7.68754 0.130859 7.31254 0.257596 7.00004 0.511068C6.68754 0.764541 6.50004 1.14475 6.50004 1.58833C6.50004 1.8418 6.68754 2.09527 7.00004 2.09527C7.25004 2.09527 7.50004 1.90517 7.50004 1.58833C7.50004 1.46159 7.56254 1.39822 7.62504 1.27149C7.75004 1.20812 7.87504 1.14475 8.06254 1.14475C8.50004 1.14475 8.87504 1.52496 8.87504 1.96854C8.87504 2.28538 8.75004 2.60222 8.56254 2.79232C8.37504 2.98243 8.06254 3.10916 7.75004 3.10916C7.75004 3.10916 7.75004 3.10916 7.68754 3.10916C4.68754 3.17253 2.25004 5.70726 2.25004 8.74893C2.25004 10.2698 2.81254 11.6005 3.75004 12.6144C3.00004 12.9946 2.31254 13.5015 1.75004 14.1986C1.00004 15.0857 0.500044 16.163 0.375044 17.3036C0.250044 18.0007 0.500044 18.7611 0.937544 19.268C1.00004 19.3948 1.12504 19.4582 1.25004 19.5849C0.625044 19.9651 0.250044 20.5354 0.125044 21.2325C4.44874e-05 21.9295 0.187544 22.6266 0.562544 23.1969L1.62504 24.5276C2.06254 25.0979 2.68754 25.3514 3.31254 25.3514C3.68754 25.3514 4.06254 25.288 4.37504 25.0345C5.31254 24.4642 5.68754 23.3236 5.31254 22.3097L4.68754 20.7255C4.62504 20.5988 4.62504 20.5354 4.56254 20.4087H8.12504C8.37504 20.4087 8.62504 20.2186 8.62504 19.9017C8.62504 19.6483 8.43754 19.3948 8.12504 19.3948H3.56254V18.3809C3.56254 18.2542 3.68754 18.1274 3.81254 18.1274H11.8125C11.9375 18.1274 12.0625 18.2542 12.0625 18.3809V19.5215C11.5625 19.775 11.1875 20.2186 11 20.7255L10.375 22.3097C10 23.3236 10.375 24.4642 11.3125 25.0345C11.625 25.2247 12 25.3514 12.375 25.3514C13 25.3514 13.6875 25.0346 14.0625 24.5276L15.125 23.1969C15.5625 22.7533 15.6875 21.9929 15.5625 21.2958ZM7.81254 4.18642C10.375 4.18642 12.4375 6.27757 12.4375 8.87567C12.4375 11.4738 10.375 13.5649 7.81254 13.5649C5.25004 13.5649 3.18754 11.4738 3.18754 8.87567C3.18754 6.27757 5.25004 4.18642 7.81254 4.18642ZM1.31254 17.5571C1.56254 15.6561 2.81254 14.1352 4.56254 13.4382C5.50004 14.1352 6.62504 14.5154 7.81254 14.5154C9.00004 14.5154 10.1875 14.1352 11.0625 13.4382C12.8125 14.1352 14.0625 15.6561 14.3125 17.5571C14.375 18.0007 14.25 18.3809 14 18.7611C13.75 19.0146 13.4375 19.2047 13.0625 19.2047V18.5076C13.0625 18.0007 12.75 17.5571 12.3125 17.367V16.7967C12.3125 16.5432 12.125 16.2897 11.8125 16.2897C11.5625 16.2897 11.3125 16.4798 11.3125 16.7967V17.3036H4.31254V16.7967C4.31254 16.5432 4.12504 16.2897 3.81254 16.2897C3.56254 16.2897 3.31254 16.4798 3.31254 16.7967V17.367C2.87504 17.5571 2.56254 18.0007 2.56254 18.5076V19.2047C2.18754 19.2047 1.87504 19.0146 1.62504 18.6977C1.37504 18.3809 1.25004 18.0007 1.31254 17.5571ZM3.87504 24.3375C3.37504 24.6543 2.68754 24.5276 2.31254 24.0207L1.25004 22.6899C1.00004 22.3731 0.875044 21.9295 1.00004 21.5493C1.12504 21.1691 1.31254 20.7889 1.68754 20.5988C2.06254 20.4087 2.50004 20.3453 2.87504 20.472C3.25004 20.5988 3.56254 20.9156 3.75004 21.2958L4.37504 22.88C4.56254 23.387 4.37504 24.0207 3.87504 24.3375ZM14.375 22.6899L13.3125 24.0207C12.9375 24.4642 12.3125 24.591 11.75 24.3375C11.25 24.0207 11 23.387 11.25 22.8167L11.875 21.2325C12 20.8523 12.3125 20.5354 12.75 20.4087C12.875 20.3453 13.0625 20.3453 13.1875 20.3453C13.4375 20.3453 13.6875 20.4087 13.875 20.5354C14.25 20.7255 14.5 21.1057 14.5625 21.4859C14.6875 21.9295 14.625 22.3097 14.375 22.6899Z" fill="url(#paint0_linear)"/>
<path d="M10.3126 20.4077C10.3751 20.3443 10.4376 20.2176 10.4376 20.0275C10.4376 19.8373 10.3751 19.774 10.3126 19.6472C10.2501 19.5839 10.1251 19.5205 9.93756 19.5205C9.81256 19.5205 9.68756 19.5839 9.56256 19.6472C9.50006 19.7106 9.43756 19.8373 9.43756 20.0275C9.43756 20.1542 9.50006 20.2809 9.56256 20.4077C9.62506 20.471 9.75006 20.5344 9.93756 20.5344C10.1251 20.5344 10.2501 20.5344 10.3126 20.4077Z" fill="url(#paint1_linear)"/>
<path d="M6.37503 11.22C6.75003 11.6636 7.25003 11.9171 7.81253 11.9171C8.37503 11.9171 8.87503 11.6636 9.25003 11.22C9.43753 11.0299 9.37503 10.7131 9.18753 10.523C9.00003 10.3329 8.68753 10.3963 8.50003 10.5864C8.31253 10.7765 8.12503 10.9032 7.81253 10.9032C7.50003 10.9032 7.31253 10.7765 7.12503 10.5864C6.93753 10.3963 6.62503 10.3329 6.43753 10.523C6.25003 10.7131 6.25003 11.0299 6.37503 11.22Z" fill="url(#paint2_linear)"/>
<path d="M5.6875 9.19184C5.75 9.12847 5.875 9.12847 5.9375 9.19184C6.0625 9.31858 6.1875 9.31858 6.3125 9.31858C6.4375 9.31858 6.5625 9.25521 6.6875 9.19184C6.875 9.00174 6.875 8.6849 6.6875 8.49479C6.25 8.05121 5.5 8.05121 5.0625 8.49479C4.875 8.6849 4.875 9.00174 5.0625 9.19184C5.1875 9.38195 5.5 9.38195 5.6875 9.19184Z" fill="url(#paint3_linear)"/>
<path d="M9.37503 9.31858C9.50003 9.31858 9.62504 9.25521 9.75004 9.19184C9.81254 9.12847 9.93754 9.12847 10 9.19184C10.1875 9.38195 10.5 9.38195 10.6875 9.19184C10.875 9.00174 10.875 8.6849 10.6875 8.49479C10.25 8.05121 9.50003 8.05121 9.06253 8.49479C8.87503 8.6849 8.87503 9.00174 9.06253 9.19184C9.12503 9.31858 9.25003 9.31858 9.37503 9.31858Z" fill="url(#paint4_linear)"/>
<defs>
<linearGradient id="paint0_linear" x1="15.6085" y1="25.3514" x2="-0.985523" y2="24.6251" gradientUnits="userSpaceOnUse">
<stop stop-color="#7B61FF"/>
<stop offset="1" stop-color="#0A84FF"/>
</linearGradient>
<linearGradient id="paint1_linear" x1="10.4376" y1="20.5344" x2="9.37169" y2="20.4596" gradientUnits="userSpaceOnUse">
<stop stop-color="#7B61FF"/>
<stop offset="1" stop-color="#0A84FF"/>
</linearGradient>
<linearGradient id="paint2_linear" x1="9.36324" y1="11.9171" x2="6.13699" y2="11.4495" gradientUnits="userSpaceOnUse">
<stop stop-color="#7B61FF"/>
<stop offset="1" stop-color="#0A84FF"/>
</linearGradient>
<linearGradient id="paint3_linear" x1="6.82813" y1="9.33442" x2="4.81326" y2="9.10144" gradientUnits="userSpaceOnUse">
<stop stop-color="#7B61FF"/>
<stop offset="1" stop-color="#0A84FF"/>
</linearGradient>
<linearGradient id="paint4_linear" x1="10.8282" y1="9.33442" x2="8.81329" y2="9.10144" gradientUnits="userSpaceOnUse">
<stop stop-color="#7B61FF"/>
<stop offset="1" stop-color="#0A84FF"/>
</linearGradient>
</defs>
</svg>
