<svg width="20" height="21" viewBox="0 0 20 21" fill="none" xmlns="http://www.w3.org/2000/svg">
<g clip-path="url(#clip0)">
<path d="M6.26039 1.15508C5.91902 0.739258 5.41445 0.5 4.87613 0.5H4.59211C3.60496 0.5 2.80176 1.30324 2.80176 2.29035V3.70961C2.80176 4.6968 3.60496 5.5 4.59211 5.5C5.44254 5.5 6.18105 4.89453 6.34789 4.06039L6.63148 2.64191C6.73727 2.11375 6.60219 1.57176 6.26039 1.15508ZM5.81445 2.47832L5.53086 3.8968C5.44176 4.34277 5.04664 4.66664 4.59215 4.66664C4.06441 4.66664 3.63512 4.23695 3.63512 3.70961V2.29035H3.63508C3.63508 1.76301 4.06438 1.33332 4.59211 1.33332H4.87613C5.16383 1.33332 5.43359 1.46109 5.61629 1.68406C5.79859 1.90625 5.87102 2.19594 5.81445 2.47832Z" fill="#979797"/>
<path d="M16.9322 14.4157C16.5721 14.0861 16.085 13.9218 15.6012 13.9673L15.3882 13.985C15.5954 13.4668 15.8067 12.9247 15.8288 11.9188L15.9552 12.0452C16.0366 12.1265 16.1432 12.1672 16.2498 12.1672C16.3564 12.1672 16.463 12.1265 16.5445 12.0452C16.7072 11.8824 16.7072 11.6187 16.5445 11.456L15.7111 10.6227C15.5484 10.4599 15.2847 10.4599 15.122 10.6227L14.2886 11.456C14.1259 11.6188 14.1259 11.8824 14.2886 12.0452C14.4514 12.2079 14.7151 12.2079 14.8778 12.0452L14.9906 11.9323C14.9665 12.7623 14.7977 13.2175 14.6129 13.6793C14.5633 13.8034 14.5136 13.9293 14.4659 14.0615L12.3755 14.235C12.4068 14.1526 12.4376 14.07 12.4702 13.9885C12.6779 13.4691 12.89 12.9269 12.9122 11.9187L13.0386 12.0451C13.12 12.1265 13.2266 12.1672 13.3332 12.1672C13.4398 12.1672 13.5464 12.1265 13.6279 12.0451C13.7906 11.8823 13.7906 11.6187 13.6279 11.4559L12.7945 10.6226C12.6318 10.4598 12.3681 10.4598 12.2054 10.6226L11.372 11.4559C11.2093 11.6187 11.2093 11.8824 11.372 12.0451C11.5348 12.2079 11.7985 12.2079 11.9612 12.0451L12.074 11.9323C12.0499 12.7623 11.8811 13.2175 11.6963 13.6792C11.6167 13.8784 11.5364 14.0807 11.4659 14.3104L9.37352 14.484C9.42941 14.3121 9.48953 14.1486 9.55363 13.9885C9.76129 13.4691 9.97344 12.9269 9.99566 11.9187L10.1221 12.0451C10.2034 12.1265 10.3101 12.1672 10.4167 12.1672C10.5233 12.1672 10.6299 12.1265 10.7113 12.0451C10.8741 11.8823 10.8741 11.6187 10.7113 11.4559L9.87797 10.6226C9.7152 10.4598 9.45152 10.4598 9.28879 10.6226L8.45547 11.4559C8.2927 11.6187 8.2927 11.8824 8.45547 12.0451C8.61824 12.2079 8.88191 12.2079 9.04465 12.0451L9.15746 11.9323C9.13336 12.7623 8.96453 13.2175 8.77977 13.6792C8.67285 13.9466 8.56453 14.2196 8.48109 14.5581L7.44105 14.6444L6.7127 8.29105C6.68789 8.12016 6.63418 7.9452 6.56742 7.80602C6.35137 7.10613 5.77762 6.56578 5.05617 6.39164C4.7225 6.31352 4.45801 6.30945 4.09668 6.3957C3.19051 6.61379 2.54762 7.39344 2.50855 8.38547C2.50367 8.41313 2.5 8.44652 2.5 8.47172C2.5 10.1278 2.70387 11.7831 3.10586 13.3904L3.88059 16.4901C4.09949 17.3674 4.68949 18.1023 5.49844 18.5075C5.92609 18.7207 6.40422 18.8339 6.88191 18.8339H9.01449C9.1032 19.1578 9.16668 19.5386 9.16668 20.0839C9.16668 20.3142 9.35305 20.5005 9.58336 20.5005C9.81367 20.5005 10 20.3142 10 20.0839C10 19.5653 9.95035 19.1683 9.87656 18.8339H11.9312C12.0199 19.1578 12.0834 19.5386 12.0834 20.0839C12.0834 20.3142 12.2698 20.5005 12.5001 20.5005C12.7304 20.5005 12.9168 20.3142 12.9168 20.0839C12.9168 19.5653 12.8671 19.1683 12.7933 18.8339H13.8298C14.1669 18.8339 14.4923 18.7795 14.8066 18.6954C14.917 19.0479 15.0001 19.4582 15.0001 20.0839C15.0001 20.3142 15.1864 20.5005 15.4168 20.5005C15.6471 20.5005 15.8334 20.3142 15.8334 20.0839C15.8334 19.319 15.7272 18.8141 15.5906 18.3951C16.4309 17.9517 17.0954 17.1994 17.4106 16.2533C17.47 16.0759 17.5001 15.8904 17.5001 15.7024C17.4998 15.2141 17.2931 14.7454 16.9322 14.4157ZM6.88172 18.0005V18.0005C6.53258 18.0005 6.18309 17.9184 5.87098 17.7621C5.27977 17.4659 4.84883 16.9288 4.68852 16.2883L3.91379 13.1886C3.52844 11.6464 3.33313 10.0595 3.325 8.55152C3.33152 8.52141 3.33313 8.44734 3.33313 8.41723C3.33313 7.83941 3.72699 7.34137 4.29992 7.20383C4.4041 7.17941 4.49688 7.16719 4.58313 7.16719C4.66938 7.16719 4.76215 7.17941 4.87527 7.20625C5.29805 7.30797 5.64105 7.63187 5.78957 8.10145C5.84207 8.21699 5.87422 8.31793 5.88602 8.39766L6.61477 14.751C6.67824 15.1913 7.07984 15.507 7.51117 15.4631L8.35371 15.3944C8.34172 15.556 8.33313 15.7261 8.33313 15.9172C8.33313 16.935 8.51988 17.4957 8.71832 18.0005H6.88172ZM9.61461 18.0005C9.59426 17.9487 9.57383 17.897 9.55344 17.8459C9.35445 17.3487 9.16648 16.8783 9.16648 15.9172C9.16648 15.694 9.17863 15.5024 9.19668 15.3256L11.2911 15.1547C11.2651 15.3787 11.2498 15.6292 11.2498 15.9172C11.2498 16.935 11.4366 17.4957 11.635 18.0005H9.61461ZM13.8296 18.0005H12.5313C12.5109 17.9487 12.4905 17.897 12.4701 17.8459C12.2711 17.3487 12.0832 16.8783 12.0832 15.9172C12.0832 15.5832 12.1114 15.3219 12.1493 15.0848L14.2422 14.914C14.1958 15.1957 14.1665 15.5205 14.1665 15.9172C14.1665 16.875 14.3321 17.4278 14.5169 17.9104C14.2944 17.9639 14.066 18.0005 13.8296 18.0005ZM16.6201 15.9896C16.3864 16.6911 15.9034 17.2517 15.2933 17.6027C15.1334 17.1818 14.9998 16.7229 14.9998 15.9172C14.9998 15.4676 15.0434 15.1313 15.1076 14.8434L15.6712 14.7974C15.6729 14.7974 15.6741 14.7974 15.6753 14.7974C15.9304 14.7762 16.1794 14.8568 16.3703 15.031C16.5615 15.2051 16.6665 15.4436 16.6665 15.7024C16.6665 15.8009 16.651 15.8969 16.6201 15.9896Z" fill="#979797"/>
</g>
<defs>
<clipPath id="clip0">
<rect width="20" height="20" fill="white" transform="translate(0 0.5)"/>
</clipPath>
</defs>
</svg>
