<svg width="20" height="21" viewBox="0 0 20 21" fill="none" xmlns="http://www.w3.org/2000/svg">
<path d="M14.7655 9.8296H17.8271C17.8907 9.99019 18.0084 10.1236 18.1597 10.2067C18.3111 10.2899 18.4868 10.3177 18.6564 10.2853C18.8261 10.253 18.9792 10.1624 19.0893 10.0293C19.1994 9.89622 19.2596 9.7289 19.2596 9.55616C19.2596 9.38343 19.1994 9.21611 19.0893 9.08301C18.9792 8.94991 18.8261 8.85937 18.6564 8.82699C18.4868 8.7946 18.3111 8.82239 18.1597 8.90558C18.0084 8.98877 17.8907 9.12214 17.8271 9.28273H14.7655V7.94054H16.739C16.8115 7.9405 16.881 7.91168 16.9323 7.86041C16.9835 7.80914 17.0124 7.73961 17.0124 7.6671V5.86554H17.8271C17.8907 6.02613 18.0084 6.1595 18.1597 6.24269C18.3111 6.32587 18.4868 6.35367 18.6564 6.32128C18.8261 6.28889 18.9792 6.19835 19.0893 6.06526C19.1994 5.93216 19.2596 5.76483 19.2596 5.5921C19.2596 5.41937 19.1994 5.25205 19.0893 5.11895C18.9792 4.98585 18.8261 4.89531 18.6564 4.86292C18.4868 4.83054 18.3111 4.85833 18.1597 4.94152C18.0084 5.02471 17.8907 5.15808 17.8271 5.31867H16.739C16.6665 5.31871 16.5969 5.34753 16.5457 5.3988C16.4944 5.45007 16.4656 5.5196 16.4655 5.5921V7.39366H14.7655V6.00773C14.7655 5.93522 14.7367 5.86569 14.6854 5.81442C14.6341 5.76315 14.5646 5.73433 14.4921 5.73429H13.1062V4.03429H14.9077C14.9802 4.03425 15.0498 4.00543 15.101 3.95416C15.1523 3.90289 15.1811 3.83336 15.1812 3.76085V2.67273C15.3417 2.60911 15.475 2.49151 15.5581 2.34019C15.6412 2.18888 15.669 2.01331 15.6366 1.84372C15.6042 1.67414 15.5137 1.52116 15.3807 1.41112C15.2476 1.30109 15.0804 1.24088 14.9077 1.24088C14.7351 1.24088 14.5678 1.30109 14.4348 1.41112C14.3018 1.52116 14.2113 1.67414 14.1789 1.84372C14.1465 2.01331 14.1742 2.18888 14.2574 2.34019C14.3405 2.49151 14.4738 2.60911 14.6343 2.67273V3.48742H12.8327C12.7602 3.48746 12.6907 3.51628 12.6394 3.56755C12.5882 3.61882 12.5593 3.68835 12.5593 3.76085V5.73429H11.2171V2.67288C11.3776 2.60926 11.5109 2.49167 11.594 2.34035C11.6771 2.18903 11.7049 2.01346 11.6725 1.84388C11.6401 1.6743 11.5496 1.52131 11.4166 1.41128C11.2836 1.30124 11.1163 1.24104 10.9437 1.24104C10.771 1.24104 10.6038 1.30124 10.4707 1.41128C10.3377 1.52131 10.2472 1.6743 10.2148 1.84388C10.1824 2.01346 10.2102 2.18903 10.2933 2.34035C10.3764 2.49167 10.5097 2.60926 10.6702 2.67288V5.73429H9.3296V2.67273C9.49019 2.6091 9.62356 2.49147 9.70675 2.34009C9.78994 2.18871 9.81773 2.01306 9.78534 1.84339C9.75296 1.67372 9.66242 1.52066 9.52932 1.41056C9.39622 1.30047 9.2289 1.24023 9.05616 1.24023C8.88343 1.24023 8.71611 1.30047 8.58301 1.41056C8.44991 1.52066 8.35937 1.67372 8.32699 1.84339C8.2946 2.01306 8.32239 2.18871 8.40558 2.34009C8.48877 2.49147 8.62214 2.6091 8.78273 2.67273V5.73429H7.44054V3.76085C7.4405 3.68835 7.41168 3.61882 7.36041 3.56755C7.30913 3.51628 7.23961 3.48746 7.1671 3.48742H5.36554V2.67273C5.52613 2.6091 5.6595 2.49147 5.74269 2.34009C5.82587 2.18871 5.85367 2.01306 5.82128 1.84339C5.78889 1.67372 5.69835 1.52066 5.56526 1.41056C5.43216 1.30047 5.26483 1.24023 5.0921 1.24023C4.91937 1.24023 4.75205 1.30047 4.61895 1.41056C4.48585 1.52066 4.39531 1.67372 4.36292 1.84339C4.33054 2.01306 4.35833 2.18871 4.44152 2.34009C4.52471 2.49147 4.65808 2.6091 4.81866 2.67273V3.76085C4.81871 3.83336 4.84753 3.90289 4.8988 3.95416C4.95007 4.00543 5.01959 4.03425 5.0921 4.03429H6.89366V5.73429H5.50773C5.43522 5.73433 5.36569 5.76315 5.31442 5.81442C5.26315 5.86569 5.23433 5.93522 5.23429 6.00773V7.39366H3.53429V5.5921C3.53425 5.5196 3.50543 5.45007 3.45416 5.3988C3.40289 5.34753 3.33336 5.31871 3.26085 5.31867H2.17288C2.10926 5.15812 1.99165 5.02479 1.8403 4.94163C1.68895 4.85848 1.51334 4.8307 1.34371 4.86308C1.17409 4.89547 1.02107 4.98599 0.910999 5.11906C0.800934 5.25213 0.740715 5.41941 0.740715 5.5921C0.740715 5.76479 0.800934 5.93208 0.910999 6.06515C1.02107 6.19821 1.17409 6.28874 1.34371 6.32112C1.51334 6.35351 1.68895 6.32573 1.8403 6.24257C1.99165 6.15941 2.10926 6.02608 2.17288 5.86554H2.98741V7.6671C2.98746 7.73961 3.01628 7.80914 3.06755 7.86041C3.11882 7.91168 3.18835 7.9405 3.26085 7.94054H5.23429V9.28273H2.17288C2.10926 9.12223 1.99167 8.98894 1.84035 8.90581C1.68903 8.82268 1.51346 8.79492 1.34388 8.8273C1.1743 8.85969 1.02131 8.9502 0.911278 9.08323C0.801241 9.21627 0.741039 9.38352 0.741039 9.55616C0.741039 9.72881 0.801241 9.89606 0.911278 10.0291C1.02131 10.1621 1.1743 10.2526 1.34388 10.285C1.51346 10.3174 1.68903 10.2896 1.84035 10.2065C1.99167 10.1234 2.10926 9.9901 2.17288 9.8296H5.23429V11.1702H2.17273C2.1091 11.0096 1.99147 10.8763 1.84009 10.7931C1.68871 10.7099 1.51306 10.6821 1.34339 10.7145C1.17372 10.7469 1.02066 10.8374 0.910565 10.9705C0.800469 11.1036 0.740234 11.2709 0.740234 11.4437C0.740234 11.6164 0.800469 11.7837 0.910565 11.9168C1.02066 12.0499 1.17372 12.1405 1.34339 12.1728C1.51306 12.2052 1.68871 12.1774 1.84009 12.0942C1.99147 12.0111 2.1091 11.8777 2.17273 11.7171H5.23429V13.0593H3.26085C3.18835 13.0593 3.11882 13.0882 3.06755 13.1394C3.01628 13.1907 2.98746 13.2602 2.98741 13.3327V15.1343H2.17273C2.1091 14.9737 1.99147 14.8403 1.84009 14.7571C1.68871 14.674 1.51306 14.6462 1.34339 14.6785C1.17372 14.7109 1.02066 14.8015 0.910565 14.9346C0.800469 15.0677 0.740234 15.235 0.740234 15.4077C0.740234 15.5805 0.800469 15.7478 0.910565 15.8809C1.02066 16.014 1.17372 16.1045 1.34339 16.1369C1.51306 16.1693 1.68871 16.1415 1.84009 16.0583C1.99147 15.9751 2.1091 15.8418 2.17273 15.6812H3.26085C3.33336 15.6811 3.40289 15.6523 3.45416 15.601C3.50543 15.5498 3.53425 15.4802 3.53429 15.4077V13.6062H5.23429V14.9921C5.23433 15.0646 5.26315 15.1341 5.31442 15.1854C5.36569 15.2367 5.43522 15.2655 5.50773 15.2655H6.89366V16.9655H5.0921C5.01959 16.9656 4.95007 16.9944 4.8988 17.0457C4.84753 17.0969 4.81871 17.1665 4.81866 17.239V18.3271C4.65817 18.3907 4.52488 18.5083 4.44175 18.6596C4.35862 18.811 4.33086 18.9865 4.36324 19.1561C4.39563 19.3257 4.48613 19.4787 4.61917 19.5887C4.75221 19.6987 4.91945 19.7589 5.0921 19.7589C5.26475 19.7589 5.43199 19.6987 5.56503 19.5887C5.69807 19.4787 5.78858 19.3257 5.82096 19.1561C5.85335 18.9865 5.82558 18.811 5.74246 18.6596C5.65933 18.5083 5.52604 18.3907 5.36554 18.3271V17.5124H7.1671C7.23961 17.5124 7.30913 17.4836 7.36041 17.4323C7.41168 17.381 7.4405 17.3115 7.44054 17.239V15.2655H8.78273V18.3269C8.62223 18.3906 8.48894 18.5082 8.40581 18.6595C8.32268 18.8108 8.29492 18.9864 8.3273 19.1559C8.35969 19.3255 8.45019 19.4785 8.58323 19.5886C8.71627 19.6986 8.88352 19.7588 9.05616 19.7588C9.22881 19.7588 9.39606 19.6986 9.52909 19.5886C9.66213 19.4785 9.75264 19.3255 9.78502 19.1559C9.81741 18.9864 9.78965 18.8108 9.70652 18.6595C9.62339 18.5082 9.4901 18.3906 9.3296 18.3269V15.2655H10.6702V18.3271C10.5096 18.3907 10.3763 18.5084 10.2931 18.6597C10.2099 18.8111 10.1821 18.9868 10.2145 19.1564C10.2469 19.3261 10.3374 19.4792 10.4705 19.5893C10.6036 19.6994 10.7709 19.7596 10.9437 19.7596C11.1164 19.7596 11.2837 19.6994 11.4168 19.5893C11.5499 19.4792 11.6405 19.3261 11.6728 19.1564C11.7052 18.9868 11.6774 18.8111 11.5942 18.6597C11.5111 18.5084 11.3777 18.3907 11.2171 18.3271V15.2655H12.5593V17.239C12.5593 17.3115 12.5882 17.381 12.6394 17.4323C12.6907 17.4836 12.7602 17.5124 12.8327 17.5124H14.6343V18.3271C14.4737 18.3907 14.3404 18.5083 14.2573 18.6597C14.1741 18.811 14.1463 18.9866 14.1787 19.1563C14.2111 19.3259 14.3016 19.4789 14.4347 19.589C14.5678 19.6991 14.735 19.7593 14.9077 19.7593C15.0804 19.7593 15.2477 19.6991 15.3808 19.589C15.5138 19.4789 15.6044 19.3259 15.6367 19.1563C15.6691 18.9866 15.6414 18.811 15.5582 18.6597C15.475 18.5083 15.3417 18.3907 15.1812 18.3271V17.239C15.1811 17.1665 15.1523 17.0969 15.101 17.0457C15.0498 16.9944 14.9802 16.9656 14.9077 16.9655H13.1062V15.2655H14.4921C14.5646 15.2655 14.6341 15.2367 14.6854 15.1854C14.7367 15.1341 14.7655 15.0646 14.7655 14.9921V13.6062H16.4655V15.4077C16.4656 15.4802 16.4944 15.5498 16.5457 15.601C16.5969 15.6523 16.6665 15.6811 16.739 15.6812H17.8271C17.8907 15.8417 18.0083 15.975 18.1596 16.0581C18.311 16.1412 18.4865 16.169 18.6561 16.1366C18.8257 16.1042 18.9787 16.0137 19.0887 15.8807C19.1987 15.7476 19.2589 15.5804 19.2589 15.4077C19.2589 15.2351 19.1987 15.0678 19.0887 14.9348C18.9787 14.8018 18.8257 14.7113 18.6561 14.6789C18.4865 14.6465 18.311 14.6742 18.1596 14.7574C18.0083 14.8405 17.8907 14.9738 17.8271 15.1343H17.0124V13.3327C17.0124 13.2602 16.9835 13.1907 16.9323 13.1394C16.881 13.0882 16.8115 13.0593 16.739 13.0593H14.7655V11.7171H17.8269C17.8906 11.8776 18.0082 12.0109 18.1595 12.094C18.3108 12.1771 18.4864 12.2049 18.6559 12.1725C18.8255 12.1401 18.9785 12.0496 19.0886 11.9166C19.1986 11.7836 19.2588 11.6163 19.2588 11.4437C19.2588 11.271 19.1986 11.1038 19.0886 10.9707C18.9785 10.8377 18.8255 10.7472 18.6559 10.7148C18.4864 10.6824 18.3108 10.7102 18.1595 10.7933C18.0082 10.8764 17.8906 11.0097 17.8269 11.1702H14.7655V9.8296ZM18.5155 9.36085C18.5542 9.36085 18.5919 9.37231 18.624 9.39377C18.6562 9.41523 18.6812 9.44573 18.696 9.48142C18.7108 9.51711 18.7146 9.55638 18.7071 9.59427C18.6996 9.63216 18.681 9.66696 18.6536 9.69427C18.6263 9.72159 18.5915 9.74019 18.5536 9.74772C18.5158 9.75526 18.4765 9.75139 18.4408 9.73661C18.4051 9.72183 18.3746 9.69679 18.3531 9.66467C18.3317 9.63256 18.3202 9.59479 18.3202 9.55616C18.3202 9.50434 18.3408 9.45463 18.3774 9.41795C18.414 9.38127 18.4637 9.36062 18.5155 9.36054V9.36085ZM18.5155 5.39695C18.5542 5.39695 18.5919 5.4084 18.624 5.42986C18.6562 5.45132 18.6812 5.48183 18.696 5.51752C18.7108 5.5532 18.7146 5.59247 18.7071 5.63036C18.6996 5.66825 18.681 5.70305 18.6536 5.73037C18.6263 5.75768 18.5915 5.77628 18.5536 5.78382C18.5158 5.79135 18.4765 5.78749 18.4408 5.7727C18.4051 5.75792 18.3746 5.73289 18.3531 5.70077C18.3317 5.66865 18.3202 5.63089 18.3202 5.59226C18.3202 5.54043 18.3408 5.49072 18.3774 5.45404C18.414 5.41736 18.4637 5.39672 18.5155 5.39663V5.39695ZM14.9079 1.78898C14.9465 1.78898 14.9843 1.80043 15.0164 1.82189C15.0485 1.84335 15.0735 1.87386 15.0883 1.90955C15.1031 1.94524 15.107 1.98451 15.0994 2.02239C15.0919 2.06028 15.0733 2.09508 15.046 2.1224C15.0187 2.14971 14.9839 2.16831 14.946 2.17585C14.9081 2.18339 14.8688 2.17952 14.8331 2.16474C14.7975 2.14995 14.7669 2.12492 14.7455 2.0928C14.724 2.06068 14.7126 2.02292 14.7126 1.98429C14.7127 1.93252 14.7333 1.88288 14.7699 1.84627C14.8065 1.80966 14.8561 1.78906 14.9079 1.78898ZM10.944 1.78898C10.9826 1.78898 11.0204 1.80043 11.0525 1.82189C11.0846 1.84335 11.1096 1.87386 11.1244 1.90955C11.1392 1.94524 11.1431 1.98451 11.1355 2.02239C11.128 2.06028 11.1094 2.09508 11.0821 2.1224C11.0548 2.14971 11.02 2.16831 10.9821 2.17585C10.9442 2.18339 10.9049 2.17952 10.8692 2.16474C10.8335 2.14995 10.803 2.12492 10.7816 2.0928C10.7601 2.06068 10.7487 2.02292 10.7487 1.98429C10.7487 1.93252 10.7694 1.88288 10.806 1.84627C10.8426 1.80966 10.8922 1.78906 10.944 1.78898ZM9.05585 1.78898C9.09448 1.78898 9.13224 1.80043 9.16436 1.82189C9.19648 1.84335 9.22151 1.87386 9.2363 1.90955C9.25108 1.94524 9.25495 1.98451 9.24741 2.02239C9.23987 2.06028 9.22127 2.09508 9.19396 2.1224C9.16664 2.14971 9.13184 2.16831 9.09396 2.17585C9.05607 2.18339 9.0168 2.17952 8.98111 2.16474C8.94542 2.14995 8.91492 2.12492 8.89346 2.0928C8.87199 2.06068 8.86054 2.02292 8.86054 1.98429C8.86058 1.9325 8.88117 1.88285 8.91779 1.84623C8.95441 1.80961 9.00406 1.78902 9.05585 1.78898ZM5.09195 1.78898C5.13058 1.78898 5.16834 1.80043 5.20046 1.82189C5.23257 1.84335 5.25761 1.87386 5.27239 1.90955C5.28717 1.94524 5.29104 1.98451 5.28351 2.02239C5.27597 2.06028 5.25737 2.09508 5.23005 2.1224C5.20274 2.14971 5.16794 2.16831 5.13005 2.17585C5.09216 2.18339 5.05289 2.17952 5.0172 2.16474C4.98151 2.14995 4.95101 2.12492 4.92955 2.0928C4.90809 2.06068 4.89663 2.02292 4.89663 1.98429C4.89667 1.9325 4.91727 1.88285 4.95388 1.84623C4.9905 1.80961 5.04016 1.78902 5.09195 1.78898ZM1.48429 5.78726C1.44566 5.78726 1.4079 5.7758 1.37578 5.75434C1.34366 5.73288 1.31863 5.70238 1.30384 5.66669C1.28906 5.631 1.28519 5.59173 1.29273 5.55384C1.30027 5.51596 1.31887 5.48115 1.34618 5.45384C1.3735 5.42652 1.4083 5.40792 1.44619 5.40039C1.48407 5.39285 1.52334 5.39672 1.55903 5.4115C1.59472 5.42628 1.62523 5.45132 1.64669 5.48344C1.66815 5.51556 1.6796 5.55332 1.6796 5.59195C1.67956 5.64373 1.65897 5.69339 1.62235 5.73001C1.58573 5.76663 1.53608 5.78722 1.48429 5.78726ZM1.48429 9.75117C1.44566 9.75117 1.4079 9.73971 1.37578 9.71825C1.34366 9.69679 1.31863 9.66628 1.30384 9.6306C1.28906 9.59491 1.28519 9.55564 1.29273 9.51775C1.30027 9.47986 1.31887 9.44506 1.34618 9.41775C1.3735 9.39043 1.4083 9.37183 1.44619 9.36429C1.48407 9.35676 1.52334 9.36062 1.55903 9.37541C1.59472 9.39019 1.62523 9.41522 1.64669 9.44734C1.66815 9.47946 1.6796 9.51722 1.6796 9.55585C1.67956 9.60764 1.65897 9.65729 1.62235 9.69391C1.58573 9.73053 1.53608 9.75112 1.48429 9.75117ZM1.48429 11.6393C1.44566 11.6393 1.4079 11.6278 1.37578 11.6064C1.34366 11.5849 1.31863 11.5544 1.30384 11.5187C1.28906 11.483 1.28519 11.4438 1.29273 11.4059C1.30027 11.368 1.31887 11.3332 1.34618 11.3059C1.3735 11.2786 1.4083 11.26 1.44619 11.2524C1.48407 11.2449 1.52334 11.2487 1.55903 11.2635C1.59472 11.2783 1.62523 11.3033 1.64669 11.3355C1.66815 11.3676 1.6796 11.4053 1.6796 11.444C1.67952 11.4958 1.65892 11.5454 1.62231 11.582C1.5857 11.6186 1.53606 11.6392 1.48429 11.6393ZM1.48429 15.6032C1.44566 15.6032 1.4079 15.5917 1.37578 15.5703C1.34366 15.5488 1.31863 15.5183 1.30384 15.4826C1.28906 15.4469 1.28519 15.4077 1.29273 15.3698C1.30027 15.3319 1.31887 15.2971 1.34618 15.2698C1.3735 15.2425 1.4083 15.2239 1.44619 15.2163C1.48407 15.2088 1.52334 15.2127 1.55903 15.2274C1.59472 15.2422 1.62523 15.2673 1.64669 15.2994C1.66815 15.3315 1.6796 15.3693 1.6796 15.4079C1.67952 15.4597 1.65892 15.5093 1.62231 15.5459C1.5857 15.5825 1.53606 15.6031 1.48429 15.6032ZM5.09195 19.2109C5.05332 19.2109 5.01556 19.1994 4.98344 19.1779C4.95132 19.1565 4.92628 19.126 4.9115 19.0903C4.89672 19.0546 4.89285 19.0153 4.90039 18.9774C4.90792 18.9395 4.92652 18.9047 4.95384 18.8774C4.98115 18.8501 5.01596 18.8315 5.05384 18.824C5.09173 18.8164 5.131 18.8203 5.16669 18.8351C5.20238 18.8499 5.23288 18.8749 5.25434 18.907C5.2758 18.9391 5.28726 18.9769 5.28726 19.0155C5.28718 19.0673 5.26657 19.1169 5.22996 19.1536C5.19335 19.1902 5.14372 19.2108 5.09195 19.2109ZM9.05585 19.2109C9.01722 19.2109 8.97946 19.1994 8.94734 19.1779C8.91522 19.1565 8.89019 19.126 8.87541 19.0903C8.86062 19.0546 8.85676 19.0153 8.86429 18.9774C8.87183 18.9395 8.89043 18.9047 8.91774 18.8774C8.94506 18.8501 8.97986 18.8315 9.01775 18.824C9.05564 18.8164 9.09491 18.8203 9.13059 18.8351C9.16628 18.8499 9.19679 18.8749 9.21825 18.907C9.23971 18.9391 9.25116 18.9769 9.25116 19.0155C9.25108 19.0673 9.23048 19.1169 9.19387 19.1536C9.15726 19.1902 9.10763 19.2108 9.05585 19.2109ZM10.944 19.2109C10.9053 19.2109 10.8676 19.1994 10.8355 19.1779C10.8033 19.1565 10.7783 19.126 10.7635 19.0903C10.7487 19.0546 10.7449 19.0153 10.7524 18.9774C10.76 18.9395 10.7786 18.9047 10.8059 18.8774C10.8332 18.8501 10.868 18.8315 10.9059 18.824C10.9438 18.8164 10.983 18.8203 11.0187 18.8351C11.0544 18.8499 11.0849 18.8749 11.1064 18.907C11.1278 18.9391 11.1393 18.9769 11.1393 19.0155C11.1392 19.0673 11.1187 19.117 11.082 19.1536C11.0454 19.1902 10.9958 19.2108 10.944 19.2109ZM14.9079 19.2109C14.8693 19.2109 14.8315 19.1994 14.7994 19.1779C14.7673 19.1565 14.7422 19.126 14.7274 19.0903C14.7127 19.0546 14.7088 19.0153 14.7163 18.9774C14.7239 18.9395 14.7425 18.9047 14.7698 18.8774C14.7971 18.8501 14.8319 18.8315 14.8698 18.824C14.9077 18.8164 14.9469 18.8203 14.9826 18.8351C15.0183 18.8499 15.0488 18.8749 15.0703 18.907C15.0917 18.9391 15.1032 18.9769 15.1032 19.0155C15.1032 19.0673 15.0826 19.117 15.0459 19.1536C15.0093 19.1902 14.9597 19.2108 14.9079 19.2109ZM18.5155 15.2126C18.5542 15.2126 18.5919 15.224 18.624 15.2455C18.6562 15.2669 18.6812 15.2975 18.696 15.3331C18.7108 15.3688 18.7146 15.4081 18.7071 15.446C18.6996 15.4839 18.681 15.5187 18.6536 15.546C18.6263 15.5733 18.5915 15.5919 18.5536 15.5994C18.5158 15.607 18.4765 15.6031 18.4408 15.5883C18.4051 15.5735 18.3746 15.5485 18.3531 15.5164C18.3317 15.4843 18.3202 15.4465 18.3202 15.4079C18.3203 15.3561 18.3409 15.3064 18.3775 15.2698C18.4141 15.2332 18.4638 15.2126 18.5155 15.2126ZM18.5155 11.2487C18.5542 11.2487 18.5919 11.2601 18.624 11.2816C18.6562 11.303 18.6812 11.3335 18.696 11.3692C18.7108 11.4049 18.7146 11.4442 18.7071 11.4821C18.6996 11.52 18.681 11.5548 18.6536 11.5821C18.6263 11.6094 18.5915 11.628 18.5536 11.6355C18.5158 11.6431 18.4765 11.6392 18.4408 11.6244C18.4051 11.6096 18.3746 11.5846 18.3531 11.5525C18.3317 11.5204 18.3202 11.4826 18.3202 11.444C18.3203 11.3922 18.3409 11.3425 18.3775 11.3059C18.4141 11.2693 18.4638 11.2487 18.5155 11.2487ZM14.2187 14.7187H5.78116V6.28117H14.2187V14.7187Z" fill="#979797"/>
<path d="M13.0859 7.14062H6.91406C6.84156 7.14067 6.77203 7.16949 6.72076 7.22076C6.66949 7.27203 6.64067 7.34156 6.64062 7.41406V13.5859C6.64067 13.6584 6.66949 13.728 6.72076 13.7792C6.77203 13.8305 6.84156 13.8593 6.91406 13.8594H13.0859C13.1584 13.8593 13.228 13.8305 13.2792 13.7792C13.3305 13.728 13.3593 13.6584 13.3594 13.5859V7.41406C13.3593 7.34156 13.3305 7.27203 13.2792 7.22076C13.228 7.16949 13.1584 7.14067 13.0859 7.14062ZM12.8125 13.3125H7.1875V7.6875H12.8125V13.3125Z" fill="#979797"/>
<path d="M12.1484 10.9043C12.2209 10.9043 12.2905 10.8754 12.3417 10.8242C12.393 10.7729 12.4218 10.7034 12.4219 10.6309V9.08789C12.4219 9.01537 12.3931 8.94582 12.3418 8.89454C12.2905 8.84326 12.221 8.81445 12.1484 8.81445C12.0759 8.81445 12.0064 8.84326 11.9551 8.89454C11.9038 8.94582 11.875 9.01537 11.875 9.08789V10.6309C11.875 10.7034 11.9039 10.7729 11.9551 10.8242C12.0064 10.8754 12.0759 10.9043 12.1484 10.9043Z" fill="#979797"/>
</svg>
