<svg width="12" height="14" viewBox="0 0 12 14" fill="none" xmlns="http://www.w3.org/2000/svg">
<path d="M6.75 2.83464C6.75 2.60451 6.58212 2.41797 6.375 2.41797H2.625C2.41788 2.41797 2.25 2.60451 2.25 2.83464V6.16797C2.25 6.3981 2.41788 6.58464 2.625 6.58464H6.375C6.58212 6.58464 6.75 6.3981 6.75 6.16797V2.83464ZM6 5.7513H3V3.2513H6V5.7513Z" fill="#979797"/>
<path d="M11.0517 3.28849L9.55615 2.45516C9.37048 2.3518 9.14787 2.43583 9.05522 2.64151C8.96257 2.8474 9.03877 3.09766 9.22406 3.2006L9.79362 3.51672C9.77838 3.56203 9.75867 3.60995 9.75867 3.66122C9.75867 4.20372 10.125 4.6619 10.5 4.83443V9.91122C10.5 10.1409 10.3317 10.3279 10.125 10.3279C9.91828 10.3279 9.75 10.1409 9.75 9.91122V6.57789C9.75 5.57188 9 4.73026 8.25 4.53667V1.99456C8.25 1.07557 7.59499 0.333984 6.76791 0.333984H2.26791C1.44082 0.333984 0.75 1.07557 0.75 1.99456V11.3203L0.207281 11.6218C0.0802031 11.6924 0 11.8367 0 11.9946V13.2446C0 13.4747 0.185812 13.6673 0.392906 13.6673H8.64291C8.85 13.6673 9 13.4747 9 13.2446V11.9946C9 11.8367 8.9198 11.6924 8.79272 11.6218L8.25 11.3203V5.40469C8.625 5.57721 9 6.03539 9 6.57789V9.91122C9 10.6005 9.50463 11.1612 10.125 11.1612C10.7454 11.1612 11.25 10.6005 11.25 9.91122V3.66122C11.25 3.50333 11.1788 3.35909 11.0517 3.28849ZM8.25 12.834H0.75V12.2521L1.29272 11.9506C1.4198 11.88 1.5 11.7358 1.5 11.5779V1.99453C1.5 1.53495 1.85426 1.16732 2.26791 1.16732H6.76791C7.18153 1.16732 7.5 1.53495 7.5 1.99456V11.5779C7.5 11.7358 7.5802 11.88 7.70728 11.9506L8.25 12.2521V12.834Z" fill="#979797"/>
</svg>
