<svg width="12" height="14" viewBox="0 0 12 14" fill="none" xmlns="http://www.w3.org/2000/svg">
<path d="M11.5517 3.28849L10.0561 2.45516C9.87048 2.3518 9.64787 2.43583 9.55522 2.64151C9.46257 2.8474 9.53877 3.09766 9.72406 3.2006L10.2936 3.51672C10.2784 3.56203 10.2587 3.60995 10.2587 3.66122C10.2587 4.20372 10.625 4.6619 11 4.83443V9.91122C11 10.1409 10.8317 10.3279 10.625 10.3279C10.4183 10.3279 10.25 10.1409 10.25 9.91122V6.57789C10.25 5.57188 9.5 4.73026 8.75 4.53667V1.99456C8.75 1.07557 8.09499 0.333984 7.26791 0.333984H2.76791C1.94082 0.333984 1.25 1.07557 1.25 1.99456V11.3203L0.707281 11.6218C0.580203 11.6924 0.5 11.8367 0.5 11.9946V13.2446C0.5 13.4747 0.685812 13.6673 0.892906 13.6673H9.14291C9.35 13.6673 9.5 13.4747 9.5 13.2446V11.9946C9.5 11.8367 9.4198 11.6924 9.29272 11.6218L8.75 11.3203V5.40469C9.125 5.57721 9.5 6.03539 9.5 6.57789V9.91122C9.5 10.6005 10.0046 11.1612 10.625 11.1612C11.2454 11.1612 11.75 10.6005 11.75 9.91122V3.66122C11.75 3.50333 11.6788 3.35909 11.5517 3.28849ZM8.75 12.834H1.25V12.2521L1.79272 11.9506C1.9198 11.88 2 11.7358 2 11.5779V1.99453C2 1.53495 2.35426 1.16732 2.76791 1.16732H7.26791C7.68153 1.16732 8 1.53495 8 1.99456V11.5779C8 11.7358 8.0802 11.88 8.20728 11.9506L8.75 12.2521V12.834Z" fill="#979797"/>
</svg>
