<svg width="258" height="165" viewBox="0 0 258 165" fill="none" xmlns="http://www.w3.org/2000/svg">
<g filter="url(#filter0_d)">
<path d="M4 146.453C4 154.425 10.4699 160.889 18.4509 160.889H239.549C247.53 160.889 254 154.425 254 146.453V19.4169C254 11.4441 247.53 4.98096 239.549 4.98096H18.4509C10.4699 4.98096 4 11.4441 4 19.4169V146.453Z" fill="url(#paint0_linear)"/>
<path d="M188.36 128.16C188.36 127.126 189.202 126.288 190.241 126.288H239.153C240.192 126.288 241.034 127.126 241.034 128.16V145.939C241.034 146.973 240.192 147.81 239.153 147.81H190.241C189.202 147.81 188.36 146.973 188.36 145.939V128.16Z" fill="white"/>
<path fill-rule="evenodd" clip-rule="evenodd" d="M195.53 130.969C195.951 130.966 197.199 130.855 197.728 132.631C198.085 133.827 198.652 135.786 199.431 138.509H199.748C200.583 135.639 201.157 133.679 201.469 132.631C202.004 130.836 203.34 130.969 203.874 130.969L207.998 130.969V143.729H203.795V136.209H203.513L201.17 143.729H198.009L195.666 136.204H195.384V143.729H191.181V130.969L195.53 130.969ZM214.032 130.969V138.494H214.368L217.217 132.306C217.771 131.075 218.95 130.969 218.95 130.969H223.016V143.729H218.726V136.204H218.391L215.597 142.392C215.044 143.618 213.809 143.729 213.809 143.729H209.742V130.969H214.032ZM237.846 137.033C237.247 138.72 235.368 139.928 233.287 139.928H228.788V143.729H224.708V137.033H237.846Z" fill="#0F754E"/>
<path fill-rule="evenodd" clip-rule="evenodd" d="M233.484 130.969H224.494C224.708 133.81 227.167 136.242 229.713 136.242H238.129C238.615 133.881 236.943 130.969 233.484 130.969Z" fill="url(#paint1_linear)"/>
<path d="M38.7549 25.9849C39.1737 26.5308 39.5282 27.1239 39.8113 27.7522L31.7808 33.7207L28.4246 31.5995V29.0476L31.7808 31.1688L38.7549 25.9849Z" fill="white"/>
<path d="M24.9994 31.4194C24.9994 31.3049 25.0021 31.1911 25.0077 31.078L22.9737 30.9776C22.9668 31.1241 22.9626 31.2721 22.9626 31.4215C22.9618 32.5884 23.1894 33.744 23.6326 34.8219C24.0757 35.9 24.7255 36.8791 25.5449 37.7033L26.9876 36.2494C26.3569 35.6161 25.8566 34.8634 25.5154 34.0345C25.1742 33.2056 24.9988 32.3168 24.9994 31.4194Z" fill="white"/>
<path d="M31.7789 24.5842C31.8924 24.5842 32.0052 24.5884 32.1174 24.594L32.2191 22.5426C32.0733 22.5356 31.9266 22.5321 31.7789 22.5321C30.6209 22.5307 29.4742 22.7599 28.4044 23.2066C27.3345 23.6532 26.3628 24.3085 25.5448 25.1349L26.9876 26.5895C27.6157 25.9534 28.3624 25.4488 29.1847 25.1046C30.007 24.7605 30.8886 24.5836 31.7789 24.5842Z" fill="white"/>
<path d="M31.7789 38.2548C31.6654 38.2548 31.5525 38.2548 31.4397 38.2457L31.3379 40.2963C31.4842 40.3038 31.6312 40.3075 31.7789 40.3075C32.9364 40.3087 34.0826 40.0794 35.1518 39.6326C36.2211 39.1858 37.1922 38.5304 38.0095 37.7041L36.5696 36.2502C35.9413 36.8859 35.1947 37.3903 34.3726 37.7343C33.5504 38.0783 32.669 38.2552 31.7789 38.2548Z" fill="white"/>
<path d="M35.6004 25.7769L37.3145 24.5031C35.7478 23.224 33.7921 22.5277 31.7762 22.5313V24.584C33.1413 24.5823 34.4747 24.9983 35.6004 25.7769Z" fill="white"/>
<path d="M40.5945 31.4194C40.5956 30.8854 40.5493 30.3523 40.4561 29.8266L38.5585 31.2365C38.5585 31.2973 38.5585 31.358 38.5585 31.4194C38.559 32.3744 38.3605 33.3189 37.9758 34.1916C37.591 35.0643 37.0287 35.8458 36.3252 36.4853L37.6939 38.0105C38.6084 37.178 39.3392 36.1612 39.8389 35.0257C40.3387 33.8903 40.5961 32.6616 40.5945 31.4194Z" fill="white"/>
<path d="M31.7789 38.2548C30.8316 38.2551 29.8948 38.0548 29.0291 37.6669C28.1635 37.2791 27.3882 36.7122 26.7536 36.0031L25.2417 37.3823C26.0672 38.3045 27.0758 39.0414 28.202 39.5454C29.3281 40.0493 30.5467 40.309 31.7789 40.3075V38.2548Z" fill="white"/>
<path d="M27.2327 26.3534L25.8647 24.8283C24.9499 25.6606 24.2188 26.6774 23.7189 27.8129C23.2189 28.9483 22.9613 30.177 22.9627 31.4193L24.9994 31.4194C24.9989 30.4644 25.1975 29.5199 25.5823 28.6472C25.967 27.7745 26.5293 26.993 27.2327 26.3534Z" fill="white"/>
<path d="M73.8382 27.6142L76.3607 25.7617H67.9185V36.8935H76.3607V35.041H70.3274V32.1896H75.4741V30.3371H70.3274V27.6142H73.8382Z" fill="white"/>
<path d="M62.238 30.0983H59.3071V27.6135H63.9848L66.5057 25.7554H56.8996V36.8871H61.928C64.7472 36.8871 66.3651 35.6134 66.3651 33.3922C66.3651 31.2672 64.8997 30.0983 62.238 30.0983ZM61.8196 35.0341H59.3071V31.9496H61.8196C63.3444 31.9496 64.0593 32.4665 64.0593 33.4919C64.0593 34.5172 63.2986 35.0341 61.8196 35.0341Z" fill="white"/>
<path d="M82.5664 25.7601H77.971V36.8918H80.3796V33.7384H82.5664C85.4983 33.7384 87.312 32.2006 87.312 29.7433C87.312 27.2862 85.4983 25.7601 82.5664 25.7601ZM82.5156 31.8846H80.3796V27.614H82.5156C84.0577 27.614 84.9088 28.3728 84.9088 29.7501C84.9088 31.1274 84.0577 31.8846 82.5156 31.8846Z" fill="white"/>
<path d="M53.2851 34.2648C52.6628 34.6007 51.9657 34.7746 51.2582 34.7705C49.1406 34.7705 47.6044 33.2635 47.6044 31.1884C47.6044 29.1132 49.1406 27.6029 51.2582 27.6029C52.0219 27.59 52.7697 27.8208 53.3924 28.2617L55.0773 27.0249L54.9633 26.9442C53.9805 26.0828 52.6673 25.6266 51.1641 25.6266C49.5337 25.6266 48.0553 26.1734 46.9998 27.1681C46.4661 27.6803 46.044 28.2967 45.7598 28.9787C45.4756 29.6608 45.3354 30.3939 45.348 31.1323C45.3367 31.8783 45.4763 32.6189 45.7584 33.3099C46.0405 34.0009 46.4593 34.6281 46.9899 35.1542C48.0504 36.1885 49.5255 36.7583 51.1443 36.7583C52.8357 36.7583 54.3142 36.1703 55.3152 35.0999L53.807 33.9799L53.2851 34.2648Z" fill="white"/>
<path d="M96.8627 30.0983H93.933V27.6135H100.229V25.7554H91.5238V36.8871H96.5458C99.3647 36.8871 100.983 35.6134 100.983 33.3922C100.989 31.2672 99.5242 30.0983 96.8627 30.0983ZM96.4442 35.0341H93.933V31.9496H96.4442C97.9689 31.9496 98.6835 32.4665 98.6835 33.4919C98.6835 34.5172 97.9296 35.0341 96.4442 35.0341Z" fill="white"/>
<path d="M128.367 36.8712H125.925V25.7394H128.367V30.4149H129.696L133.285 25.7394H136.053L131.796 31.0349L136.739 36.8712H133.499L129.866 32.4932H128.367V36.8712Z" fill="white"/>
<path d="M109.854 34.7557H104.689L103.813 36.9173H101.214L106.059 25.7856H108.658L113.424 36.9173H110.73L109.854 34.7557ZM109.045 32.7387L107.287 28.4154L105.519 32.7387H109.045Z" fill="white"/>
<path d="M116.711 25.7856V30.434H121.765V25.7856H124.282V36.9173H121.765V32.5311H116.711V36.9173H114.194V25.7856H116.711Z" fill="white"/>
<path d="M34.5511 136.604C34.5511 135.157 33.372 133.984 31.9174 133.984C30.4628 133.984 29.2837 135.157 29.2837 136.604C29.2837 138.051 30.4628 139.224 31.9174 139.224C33.372 139.224 34.5511 138.051 34.5511 136.604Z" fill="white"/>
<path d="M41.9255 136.604C41.9255 135.157 40.7463 133.984 39.2918 133.984C37.8372 133.984 36.6581 135.157 36.6581 136.604C36.6581 138.051 37.8372 139.224 39.2918 139.224C40.7463 139.224 41.9255 138.051 41.9255 136.604Z" fill="white"/>
<path d="M49.2999 136.604C49.2999 135.157 48.1207 133.984 46.6662 133.984C45.2116 133.984 44.0325 135.157 44.0325 136.604C44.0325 138.051 45.2116 139.224 46.6662 139.224C48.1207 139.224 49.2999 138.051 49.2999 136.604Z" fill="white"/>
<path d="M56.6743 136.604C56.6743 135.157 55.4951 133.984 54.0406 133.984C52.586 133.984 51.4068 135.157 51.4068 136.604C51.4068 138.051 52.586 139.224 54.0406 139.224C55.4951 139.224 56.6743 138.051 56.6743 136.604Z" fill="white"/>
<path d="M72.5696 143.668C71.5144 143.668 70.6225 143.378 69.8937 142.798C69.1708 142.218 68.719 141.441 68.5383 140.467H69.7626C69.92 141.116 70.2494 141.636 70.7507 142.024C71.2579 142.413 71.8701 142.607 72.5871 142.607C73.6948 142.607 74.5576 142.126 75.1756 141.163C75.7935 140.194 76.1258 138.829 76.1725 137.065C76.1783 137.031 76.1695 136.978 76.1462 136.909C76.1287 136.839 76.12 136.796 76.12 136.778H76.0675C75.7935 137.474 75.3301 138.034 74.6771 138.457C74.03 138.875 73.2954 139.084 72.4734 139.084C71.2667 139.084 70.2698 138.692 69.4827 137.909C68.7015 137.12 68.3109 136.126 68.3109 134.925C68.3109 133.673 68.719 132.64 69.5352 131.828C70.3572 131.01 71.3978 130.602 72.6571 130.602C73.5082 130.602 74.2603 130.81 74.9132 131.228C75.572 131.64 76.0996 132.234 76.496 133.011C77.0557 133.986 77.3355 135.273 77.3355 136.874C77.3355 139.008 76.9158 140.676 76.0763 141.876C75.2426 143.071 74.0737 143.668 72.5696 143.668ZM72.6658 138.048C73.5694 138.048 74.3273 137.753 74.9395 137.161C75.5516 136.564 75.8577 135.83 75.8577 134.96C75.8577 134.026 75.5516 133.243 74.9395 132.611C74.3332 131.973 73.5782 131.654 72.6746 131.654C71.7768 131.654 71.0247 131.965 70.4184 132.585C69.818 133.206 69.5177 133.974 69.5177 134.89C69.5177 135.807 69.8121 136.564 70.4009 137.161C70.9897 137.753 71.7447 138.048 72.6658 138.048Z" fill="white"/>
<path d="M83.403 143.668C82.3478 143.668 81.4559 143.378 80.7271 142.798C80.0042 142.218 79.5524 141.441 79.3717 140.467H80.596C80.7534 141.116 81.0828 141.636 81.5841 142.024C82.0913 142.413 82.7034 142.607 83.4205 142.607C84.5282 142.607 85.391 142.126 86.009 141.163C86.6269 140.194 86.9592 138.829 87.0059 137.065C87.0117 137.031 87.0029 136.978 86.9796 136.909C86.9621 136.839 86.9534 136.796 86.9534 136.778H86.9009C86.6269 137.474 86.1635 138.034 85.5105 138.457C84.8634 138.875 84.1288 139.084 83.3068 139.084C82.1001 139.084 81.1032 138.692 80.3161 137.909C79.5349 137.12 79.1443 136.126 79.1443 134.925C79.1443 133.673 79.5524 132.64 80.3686 131.828C81.1906 131.01 82.2312 130.602 83.4905 130.602C84.3416 130.602 85.0937 130.81 85.7466 131.228C86.4054 131.64 86.933 132.234 87.3294 133.011C87.8891 133.986 88.1689 135.273 88.1689 136.874C88.1689 139.008 87.7492 140.676 86.9097 141.876C86.076 143.071 84.9071 143.668 83.403 143.668ZM83.4992 138.048C84.4028 138.048 85.1607 137.753 85.7729 137.161C86.385 136.564 86.6911 135.83 86.6911 134.96C86.6911 134.026 86.385 133.243 85.7729 132.611C85.1666 131.973 84.4116 131.654 83.508 131.654C82.6102 131.654 81.8581 131.965 81.2518 132.585C80.6514 133.206 80.3511 133.974 80.3511 134.89C80.3511 135.807 80.6455 136.564 81.2343 137.161C81.8231 137.753 82.5781 138.048 83.4992 138.048Z" fill="white"/>
<path d="M94.2364 143.668C93.1812 143.668 92.2893 143.378 91.5605 142.798C90.8376 142.218 90.3858 141.441 90.2051 140.467H91.4294C91.5868 141.116 91.9162 141.636 92.4175 142.024C92.9247 142.413 93.5368 142.607 94.2539 142.607C95.3616 142.607 96.2244 142.126 96.8424 141.163C97.4603 140.194 97.7926 138.829 97.8393 137.065C97.8451 137.031 97.8363 136.978 97.813 136.909C97.7955 136.839 97.7868 136.796 97.7868 136.778H97.7343C97.4603 137.474 96.9968 138.034 96.3439 138.457C95.6968 138.875 94.9622 139.084 94.1402 139.084C92.9335 139.084 91.9366 138.692 91.1495 137.909C90.3683 137.12 89.9777 136.126 89.9777 134.925C89.9777 133.673 90.3858 132.64 91.202 131.828C92.024 131.01 93.0646 130.602 94.3239 130.602C95.175 130.602 95.9271 130.81 96.58 131.228C97.2388 131.64 97.7664 132.234 98.1628 133.011C98.7225 133.986 99.0023 135.273 99.0023 136.874C99.0023 139.008 98.5826 140.676 97.7431 141.876C96.9094 143.071 95.7405 143.668 94.2364 143.668ZM94.3326 138.048C95.2362 138.048 95.9941 137.753 96.6063 137.161C97.2184 136.564 97.5245 135.83 97.5245 134.96C97.5245 134.026 97.2184 133.243 96.6063 132.611C96 131.973 95.245 131.654 94.3414 131.654C93.4436 131.654 92.6915 131.965 92.0852 132.585C91.4848 133.206 91.1845 133.974 91.1845 134.89C91.1845 135.807 91.4789 136.564 92.0677 137.161C92.6565 137.753 93.4115 138.048 94.3326 138.048Z" fill="white"/>
<path d="M105.07 143.668C104.015 143.668 103.123 143.378 102.394 142.798C101.671 142.218 101.219 141.441 101.039 140.467H102.263C102.42 141.116 102.75 141.636 103.251 142.024C103.758 142.413 104.37 142.607 105.087 142.607C106.195 142.607 107.058 142.126 107.676 141.163C108.294 140.194 108.626 138.829 108.673 137.065C108.678 137.031 108.67 136.978 108.646 136.909C108.629 136.839 108.62 136.796 108.62 136.778H108.568C108.294 137.474 107.83 138.034 107.177 138.457C106.53 138.875 105.796 139.084 104.974 139.084C103.767 139.084 102.77 138.692 101.983 137.909C101.202 137.12 100.811 136.126 100.811 134.925C100.811 133.673 101.219 132.64 102.035 131.828C102.857 131.01 103.898 130.602 105.157 130.602C106.008 130.602 106.76 130.81 107.413 131.228C108.072 131.64 108.6 132.234 108.996 133.011C109.556 133.986 109.836 135.273 109.836 136.874C109.836 139.008 109.416 140.676 108.576 141.876C107.743 143.071 106.574 143.668 105.07 143.668ZM105.166 138.048C106.07 138.048 106.828 137.753 107.44 137.161C108.052 136.564 108.358 135.83 108.358 134.96C108.358 134.026 108.052 133.243 107.44 132.611C106.833 131.973 106.078 131.654 105.175 131.654C104.277 131.654 103.525 131.965 102.919 132.585C102.318 133.206 102.018 133.974 102.018 134.89C102.018 135.807 102.312 136.564 102.901 137.161C103.49 137.753 104.245 138.048 105.166 138.048Z" fill="white"/>
</g>
<defs>
<filter id="filter0_d" x="0" y="0.980469" width="258" height="163.927" filterUnits="userSpaceOnUse" color-interpolation-filters="sRGB">
<feFlood flood-opacity="0" result="BackgroundImageFix"/>
<feColorMatrix in="SourceAlpha" type="matrix" values="0 0 0 0 0 0 0 0 0 0 0 0 0 0 0 0 0 0 127 0"/>
<feOffset/>
<feGaussianBlur stdDeviation="2"/>
<feColorMatrix type="matrix" values="0 0 0 0 0 0 0 0 0 0 0 0 0 0 0 0 0 0 0.25 0"/>
<feBlend mode="normal" in2="BackgroundImageFix" result="effect1_dropShadow"/>
<feBlend mode="normal" in="SourceGraphic" in2="effect1_dropShadow" result="shape"/>
</filter>
<linearGradient id="paint0_linear" x1="249.538" y1="160.874" x2="7.8355" y2="10.7974" gradientUnits="userSpaceOnUse">
<stop stop-color="#9EA5AC"/>
<stop offset="1" stop-color="#A5A9B1"/>
</linearGradient>
<linearGradient id="paint1_linear" x1="238.212" y1="134.286" x2="224.494" y2="134.286" gradientUnits="userSpaceOnUse">
<stop stop-color="#1F5CD7"/>
<stop offset="1" stop-color="#02AEFF"/>
</linearGradient>
</defs>
</svg>
