<svg width="17" height="19" viewBox="0 0 17 19" fill="none" xmlns="http://www.w3.org/2000/svg">
<path d="M8.42558 10.2377C8.44627 10.2377 8.46696 10.2377 8.49179 10.2377C8.50006 10.2377 8.50834 10.2377 8.51662 10.2377C8.52903 10.2377 8.54558 10.2377 8.558 10.2377C9.77051 10.2181 10.7513 9.8128 11.4755 9.03769C13.0687 7.33009 12.8039 4.40278 12.7749 4.12342C12.6714 2.0263 11.6286 1.02299 10.7678 0.554774C10.1264 0.204598 9.37738 0.0157392 8.54145 7.62763e-07L8.51248 7.57698e-07C8.50834 7.56974e-07 8.50007 7.55527e-07 8.49593 7.54803e-07L8.4711 7.50462e-07C8.01175 6.70147e-07 7.10961 0.0708226 6.24471 0.539035C5.37567 1.00725 4.31628 2.01056 4.21282 4.12342C4.18385 4.40278 3.919 7.33009 5.51224 9.03769C6.23229 9.8128 7.21306 10.2181 8.42558 10.2377ZM5.31774 4.22179C5.31774 4.20998 5.32188 4.19818 5.32188 4.19031C5.45844 1.36923 7.56482 1.06627 8.46696 1.06627L8.48351 1.06627C8.49179 1.06627 8.5042 1.06627 8.51662 1.06627C9.63395 1.08987 11.5334 1.52268 11.6617 4.19031C11.6617 4.20211 11.6617 4.21392 11.6658 4.22179C11.67 4.24933 11.9597 6.92483 10.6437 8.3334C10.1223 8.89211 9.42704 9.16753 8.51248 9.1754C8.5042 9.1754 8.50006 9.1754 8.49179 9.1754C8.48351 9.1754 8.47937 9.1754 8.4711 9.1754C7.56068 9.16753 6.86131 8.89211 6.34403 8.3334C5.0322 6.9327 5.3136 4.24539 5.31774 4.22179Z" fill="#222229"/>
<path d="M16.9958 15.0931C16.9958 15.0891 16.9958 15.0852 16.9958 15.0813C16.9958 15.0498 16.9916 15.0183 16.9916 14.9829C16.9668 14.2039 16.913 12.3821 15.117 11.7998C15.1046 11.7959 15.088 11.792 15.0756 11.788C13.2093 11.3356 11.6574 10.3126 11.6408 10.3008C11.3884 10.1316 11.0408 10.1906 10.8629 10.4306C10.6849 10.6706 10.747 11.0011 10.9994 11.1703C11.0698 11.2175 12.7168 12.3074 14.7777 12.811C15.7419 13.1376 15.8495 14.1173 15.8784 15.0144C15.8784 15.0498 15.8784 15.0813 15.8826 15.1127C15.8867 15.4669 15.8619 16.0138 15.7957 16.3285C15.1253 16.6905 12.4975 17.9417 8.4999 17.9417C4.51889 17.9417 1.87454 16.6866 1.2 16.3246C1.13379 16.0098 1.10482 15.4629 1.1131 15.1088C1.1131 15.0773 1.11724 15.0458 1.11724 15.0104C1.1462 14.1134 1.2538 13.1336 2.21802 12.8071C4.27887 12.3035 5.9259 11.2096 5.99625 11.1664C6.24869 10.9972 6.31076 10.6667 6.13282 10.4267C5.95487 10.1867 5.60726 10.1276 5.35482 10.2968C5.33827 10.3086 3.7947 11.3316 1.92006 11.7841C1.90351 11.788 1.89109 11.792 1.87868 11.7959C0.0826706 12.3821 0.0288728 14.2039 0.00404302 14.979C0.00404302 15.0144 0.00404301 15.0459 -9.52617e-05 15.0773C-9.52624e-05 15.0813 -9.52631e-05 15.0852 -9.52638e-05 15.0891C-0.00423357 15.2937 -0.00837203 16.3443 0.210956 16.8715C0.252339 16.9738 0.326827 17.0604 0.426146 17.1194C0.550294 17.1981 3.52571 19.0001 8.50404 19.0001C13.4824 19.0001 16.4578 17.1941 16.5819 17.1194C16.6771 17.0604 16.7557 16.9738 16.7971 16.8715C17.004 16.3482 16.9999 15.2977 16.9958 15.0931Z" fill="#222229"/>
</svg>
