<svg width="20" height="21" viewBox="0 0 20 21" fill="none" xmlns="http://www.w3.org/2000/svg">
<g clip-path="url(#clip0)">
<path d="M11.833 4.11328H6.33342C2.11716 4.11328 -0.0022855 7.30686 1.84942e-06 10.5004C0.0022892 13.694 2.12627 16.8876 6.39683 16.8876H11.833C12.0833 16.8876 12.3091 16.738 12.4061 16.5072C13.9799 12.7687 14.0678 8.44082 12.4061 4.49366C12.3091 4.26288 12.0833 4.11328 11.833 4.11328ZM6.39683 15.6445C-0.496754 15.6445 -0.457508 5.35639 6.33342 5.35639H8.78073C10.0537 8.64817 10.0537 12.3527 8.78073 15.6445H6.39683ZM10.1067 15.6445C11.2702 12.3505 11.2899 8.70619 10.1067 5.35639H11.4136C12.6866 8.64817 12.6866 12.3527 11.4136 15.6445H10.1067Z" fill="#979797"/>
<path d="M14.9132 5.35639H18.524C19.3453 5.35639 19.3462 4.11328 18.524 4.11328H14.9132C14.0919 4.11328 14.091 5.35639 14.9132 5.35639Z" fill="#979797"/>
<path d="M15.7726 9.20014H19.3834C20.2048 9.20014 20.2056 7.95703 19.3834 7.95703H15.7726C14.9512 7.95703 14.9504 9.20014 15.7726 9.20014Z" fill="#979797"/>
<path d="M19.3834 11.8008H15.7726C14.9513 11.8008 14.9504 13.0439 15.7726 13.0439H19.3834C20.2047 13.0439 20.2056 11.8008 19.3834 11.8008Z" fill="#979797"/>
<path d="M18.524 15.6445H14.9132C14.0919 15.6445 14.091 16.8877 14.9132 16.8877H18.524C19.3454 16.8877 19.3462 15.6445 18.524 15.6445Z" fill="#979797"/>
</g>
<defs>
<clipPath id="clip0">
<rect width="20" height="20" fill="white" transform="translate(0 0.5)"/>
</clipPath>
</defs>
</svg>
