<svg width="22" height="20" viewBox="0 0 22 20" fill="none" xmlns="http://www.w3.org/2000/svg">
<path d="M5.21519 20C5.16456 20 5.06329 20 5.01266 19.9494C4.81013 19.8481 4.70886 19.6456 4.70886 19.443L5.11392 15.2911C2.17722 14.6329 0 11.9494 0 8.86076V6.58228C0 2.93671 2.93671 0 6.58228 0H14.481C18.1266 0 21.0633 2.93671 21.0633 6.58228V8.86076C21.0633 12.5063 18.1266 15.443 14.481 15.443H9.36709L5.56962 19.8481C5.46835 19.9494 5.36709 20 5.21519 20ZM6.58228 1.01266C3.49367 1.01266 1.01266 3.49367 1.01266 6.58228V8.86076C1.01266 11.5949 3.03797 13.9747 5.72152 14.3797C5.97468 14.4304 6.17722 14.6835 6.12658 14.9367L5.82278 17.9747L8.70886 14.6329C8.81013 14.5316 8.96203 14.481 9.11392 14.481H14.4304C17.519 14.481 20 12 20 8.91139V6.58228C20 3.49367 17.519 1.01266 14.4304 1.01266H6.58228Z" fill="#222229"/>
<path d="M6.48088 8.86117C6.95626 8.86117 7.34164 8.47579 7.34164 8.00041C7.34164 7.52502 6.95626 7.13965 6.48088 7.13965C6.00549 7.13965 5.62012 7.52502 5.62012 8.00041C5.62012 8.47579 6.00549 8.86117 6.48088 8.86117Z" fill="#222229"/>
<path d="M10.5315 8.8611C11.0069 8.8611 11.3923 8.47573 11.3923 8.00034C11.3923 7.52496 11.0069 7.13958 10.5315 7.13958C10.0561 7.13958 9.67073 7.52496 9.67073 8.00034C9.67073 8.47573 10.0561 8.8611 10.5315 8.8611Z" fill="#222229"/>
<path d="M14.6327 8.8611C15.1081 8.8611 15.4935 8.47573 15.4935 8.00034C15.4935 7.52496 15.1081 7.13958 14.6327 7.13958C14.1573 7.13958 13.772 7.52496 13.772 8.00034C13.772 8.47573 14.1573 8.8611 14.6327 8.8611Z" fill="#222229"/>
</svg>
