<svg width="14" height="14" viewBox="0 0 14 14" fill="none" xmlns="http://www.w3.org/2000/svg">
<path d="M13.5 7C13.5 10.5899 10.5899 13.5 7 13.5C3.41015 13.5 0.5 10.5899 0.5 7C0.5 3.41015 3.41015 0.5 7 0.5C10.5899 0.5 13.5 3.41015 13.5 7Z" stroke="#0A84FF" stroke-opacity="0.5"/>
<path d="M5 4.89453C5.0293 4.33789 5.22624 3.88379 5.59082 3.53223C5.95866 3.17741 6.47135 3 7.12891 3C7.73763 3 8.23405 3.16764 8.61816 3.50293C9.00553 3.83822 9.19922 4.25977 9.19922 4.76758C9.19922 5.48047 8.85905 6.04199 8.17871 6.45215C7.87272 6.63444 7.66276 6.80697 7.54883 6.96973C7.43815 7.13249 7.38281 7.34408 7.38281 7.60449V7.92188H6.52832V7.47266C6.52507 7.15365 6.60156 6.87695 6.75781 6.64258C6.91732 6.4082 7.16634 6.1901 7.50488 5.98828C7.79134 5.8125 7.99316 5.63672 8.11035 5.46094C8.23079 5.28516 8.29102 5.06868 8.29102 4.81152C8.29102 4.50553 8.18034 4.25488 7.95898 4.05957C7.74089 3.861 7.4528 3.76172 7.09473 3.76172C6.72689 3.76172 6.43066 3.86263 6.20605 4.06445C5.9847 4.26628 5.861 4.54297 5.83496 4.89453H5ZM7.50488 9.99707C7.38118 10.124 7.22005 10.1875 7.02148 10.1875C6.82292 10.1875 6.66016 10.124 6.5332 9.99707C6.40625 9.87012 6.34277 9.70736 6.34277 9.50879C6.34277 9.31022 6.40625 9.14746 6.5332 9.02051C6.66016 8.8903 6.82292 8.8252 7.02148 8.8252C7.22005 8.8252 7.38118 8.88867 7.50488 9.01562C7.63184 9.14258 7.69531 9.30697 7.69531 9.50879C7.69531 9.70736 7.63184 9.87012 7.50488 9.99707Z" fill="#0A84FF" fill-opacity="0.5"/>
</svg>
