<svg width="25" height="21" viewBox="0 0 25 21" fill="none" xmlns="http://www.w3.org/2000/svg">
<path d="M23.7902 12.6265C23.7926 12.0586 23.6136 11.5048 23.2791 11.0458L22.9075 10.5432C24.7378 8.83459 25.336 6.17997 24.4154 3.85154C23.4949 1.52307 21.2432 -0.00482439 18.7393 2.76045e-05C16.5149 -0.00666815 14.4654 1.20517 13.3993 3.15742C11.83 2.98701 10.2463 3.30511 8.8646 4.06833C7.81526 4.69831 7.23758 5.53334 7.22913 6.42257C7.22909 6.42514 7.22768 6.42727 7.22768 6.42984V6.44236C7.22768 6.44741 7.22651 6.45236 7.22656 6.45745C7.22661 6.46187 7.22763 6.46618 7.22768 6.4706V7.74182L6.36116 8.26176C6.29794 8.2998 6.24937 8.35803 6.22341 8.42712L6.01065 8.99291L4.67378 9.02484C4.50144 9.02891 4.3619 9.16618 4.35505 9.33847L4.32842 10.0037L2.81789 10.0396C2.64555 10.0437 2.50601 10.181 2.49917 10.3533L2.46836 11.1205L0.849779 11.1617C0.79335 11.1633 0.73828 11.1793 0.689857 11.2083L0.158563 11.5272C0.0577874 11.5876 -0.00276549 11.6976 9.71876e-05 11.8151L0.0399806 13.4884V14.8412L0.0392043 14.8447C0.0391558 14.8464 0.0400291 14.8478 0.0399806 14.8494V14.8552C0.0415817 14.866 0.0437166 14.8766 0.0464337 14.8871C0.0481805 14.9185 0.0544395 14.9494 0.0649684 14.979C0.0721008 14.9924 0.0801551 15.0052 0.0891313 15.0173C0.101116 15.0407 0.115866 15.0626 0.133042 15.0825C0.14784 15.0953 0.163804 15.1067 0.18064 15.1167C0.197379 15.1306 0.215477 15.1428 0.234691 15.1531C0.258369 15.1616 0.28292 15.1673 0.307908 15.1702C0.323628 15.1752 0.339785 15.179 0.356088 15.1814L0.364919 15.1817L0.366762 15.1821L0.368121 15.1818L3.20756 15.2666H3.21129L3.21605 15.2676C3.22022 15.2676 3.22371 15.2654 3.22784 15.2652C3.26171 15.2638 3.29514 15.2571 3.32687 15.2452C3.33764 15.2413 3.34822 15.2368 3.3585 15.2317C3.36738 15.2274 3.37704 15.2252 3.38553 15.2201L10.9211 10.6986C11.2838 10.7493 11.6495 10.7752 12.0157 10.776C12.8333 10.7764 13.6464 10.6541 14.4277 10.4133C14.7867 10.7749 15.1906 11.089 15.6295 11.3477C15.4173 11.7405 15.306 12.1799 15.3055 12.6265V19.7701C15.2789 20.42 15.7822 20.9695 16.432 21H22.664C23.3137 20.9694 23.8167 20.4199 23.7902 19.7701V12.6265H23.7902ZM13.3795 5.12427C13.4714 4.61035 13.6385 4.11277 13.8755 3.64761C14.8694 1.67435 16.9566 0.496823 19.1594 0.666643C21.3623 0.836415 23.2444 2.31991 23.9241 4.42218C24.6037 6.52441 23.9464 8.82896 22.2599 10.2563C21.6723 10.7587 20.9831 11.1284 20.2396 11.3402C19.8606 11.4494 19.4706 11.5161 19.0768 11.539C18.9572 11.3764 18.9319 11.163 19.01 10.9769C21.651 10.8299 23.6951 8.60737 23.621 5.96332C23.5469 3.31928 21.3815 1.21468 18.7364 1.21589C17.0172 1.22205 15.426 2.12612 14.5407 3.59992C14.2481 4.08643 14.044 4.62097 13.938 5.17876C13.8937 5.41301 13.8675 5.65027 13.8595 5.88856C13.6806 5.96206 13.4885 5.99811 13.2951 5.99447C13.2987 5.70248 13.3269 5.41141 13.3795 5.12427ZM15.9462 3.90521C15.7473 3.79196 15.5405 3.69293 15.3275 3.60889C16.2569 2.33277 17.82 1.68105 19.3807 1.91914C20.9413 2.15722 22.2391 3.24533 22.7457 4.74052C23.2523 6.23572 22.8832 7.8886 21.7887 9.02629L20.8777 7.79287C20.5712 7.36167 20.0768 7.10311 19.5478 7.09728H19.5475C19.0185 7.1033 18.5243 7.36201 18.218 7.7933L16.7193 9.82309C16.552 9.73148 16.3911 9.62852 16.2377 9.51489C16.9193 9.05822 17.3558 8.31591 17.4234 7.49825L17.4238 7.49631V6.14222L17.4244 6.13664C17.4503 5.26488 16.9253 4.47226 15.9462 3.90521ZM2.88927 14.6028L0.693739 14.5372V13.8244L2.88927 13.8904V14.6028ZM3.13012 13.2432L0.686266 13.1701L0.658173 11.9896L0.952496 11.8131L2.79116 11.7662C2.96336 11.7617 3.10251 11.6245 3.1094 11.4524L3.14021 10.6859L4.65073 10.65C4.82308 10.6459 4.96262 10.5086 4.96946 10.3363L4.9961 9.67107L6.24694 9.64123C6.38023 9.63808 6.49823 9.55429 6.5451 9.42944L6.79537 8.76375L7.96989 8.05895C8.19158 8.27477 8.43932 8.46205 8.70744 8.61644C8.73126 8.63027 8.75742 8.64201 8.78158 8.65555L2.56559 12.3852C2.41081 12.4781 2.36064 12.6789 2.45356 12.8337C2.54647 12.9884 2.74725 13.0386 2.90203 12.9457L9.502 8.98558C9.65421 9.04206 9.81175 9.09204 9.97294 9.13745L3.13012 13.2432ZM10.5208 10.1765L3.54302 14.3631V13.7581L10.5208 9.57122V10.1765H10.5208ZM9.03582 8.05128C8.30012 7.6244 7.89133 7.06133 7.88139 6.46468V6.43931C7.88299 5.79137 8.36256 5.13237 9.20084 4.62903C10.3902 3.97939 11.7419 3.6873 13.0933 3.78788C12.9582 4.11864 12.853 4.4609 12.779 4.81044C12.6671 4.84712 12.5592 4.89506 12.457 4.95348C12.166 5.10229 11.9763 5.39482 11.9592 5.72116C11.975 6.02582 12.1526 6.29879 12.4247 6.43669C12.5719 6.52077 12.7325 6.57875 12.8994 6.60811C13.0385 6.63673 13.1803 6.65109 13.3223 6.6509C13.6706 6.65502 14.0138 6.56686 14.317 6.39539L14.3499 6.37385C14.6175 6.22989 14.7934 5.95969 14.8169 5.65673C14.8212 5.46313 14.7507 5.27531 14.6199 5.13247C14.6975 4.79938 14.8161 4.47721 14.9729 4.17323C15.1957 4.25431 15.4114 4.35368 15.6178 4.47037C16.3752 4.90903 16.7834 5.48948 16.7704 6.12688L16.7701 6.12834V6.14673C16.7427 6.77943 16.2765 7.39922 15.4569 7.89165C15.2343 8.02372 15.0025 8.13959 14.7633 8.23833C14.3994 8.38617 14.0235 8.50233 13.6396 8.58563C13.6336 8.58641 13.6275 8.58753 13.6218 8.58884C11.9697 8.94221 10.2126 8.73643 9.03582 8.05128ZM12.658 5.62466C12.6539 5.67919 12.6534 5.73538 12.6506 5.79059C12.6299 5.77114 12.6166 5.74508 12.6129 5.71689C12.6173 5.68201 12.6332 5.64955 12.658 5.62466ZM14.4131 9.73653C13.3708 10.0824 12.2657 10.1969 11.1745 10.0722V9.36584C11.4549 9.39558 11.7366 9.41067 12.0185 9.4111C12.5975 9.4112 13.1749 9.35108 13.7415 9.23173C13.7488 9.23075 13.7558 9.22935 13.7629 9.22789C14.1897 9.13614 14.6076 9.00732 15.0119 8.84294C15.281 8.73197 15.5416 8.60165 15.7917 8.45303C16.1467 8.24522 16.4692 7.98632 16.7488 7.68462C16.654 8.24085 16.2246 8.78049 15.4974 9.23381C15.4869 9.24162 15.4773 9.24706 15.4566 9.25996C15.1263 9.45482 14.7766 9.61455 14.4131 9.73653ZM15.107 10.1636C15.2942 10.0825 15.4773 9.99063 15.657 9.89038C15.8672 10.0633 16.0916 10.2182 16.3279 10.3535L15.995 10.8043C15.6776 10.6222 15.38 10.4074 15.107 10.1636ZM22.6641 20.3463H16.4321C16.144 20.3148 15.9341 20.0588 15.9594 19.7701V12.6265C15.9574 12.1949 16.0937 11.774 16.3482 11.4253L18.7438 8.182C18.9228 7.91286 19.2246 7.75114 19.5479 7.75104C19.8711 7.75094 20.1729 7.91261 20.352 8.18166L21.2989 9.46375C20.9427 9.73803 20.5443 9.95254 20.1193 10.099C19.6396 9.85157 19.0551 9.9408 18.6711 10.3201C18.6262 10.365 18.5854 10.4138 18.5491 10.466C18.1852 10.9569 18.2377 11.6406 18.6724 12.0702C18.6889 12.0873 18.7064 12.1035 18.7247 12.1187C18.9499 12.3213 19.2422 12.4332 19.5451 12.4328C19.8772 12.4326 20.1955 12.2999 20.4293 12.0641C20.4708 12.0205 20.5094 11.9742 20.5448 11.9256C21.217 11.7172 21.8474 11.3924 22.4073 10.9659L22.7541 11.4349C23.0052 11.7813 23.1391 12.1987 23.1365 12.6265V19.7701C23.1618 20.0587 22.9519 20.3146 22.6641 20.3463Z" fill="#222229"/>
</svg>
