<svg width="108" height="108" viewBox="0 0 108 108" fill="none" xmlns="http://www.w3.org/2000/svg">
<path d="M24.5755 96.0225C23.7202 97.244 22.0318 97.5461 20.8546 96.6308C12.5943 90.2086 6.36108 81.5104 2.942 71.5807C-0.770679 60.7983 -0.97457 49.1173 2.35954 38.2119C5.69366 27.3065 12.3946 17.7366 21.502 10.8737C30.6094 4.01077 41.6556 0.207245 53.0576 0.00822436C64.4595 -0.190796 75.6318 3.22491 84.9731 9.76579C94.3145 16.3067 101.345 25.6369 105.058 36.4193C108.771 47.2017 108.975 58.8827 105.64 69.7881C102.57 79.8311 96.6441 88.7415 88.613 95.4481C87.4684 96.4039 85.7705 96.1609 84.8731 94.97C83.9757 93.7791 84.2192 92.0918 85.3584 91.1297C92.4814 85.114 97.7394 77.1616 100.476 68.2093C103.477 58.3944 103.294 47.8815 99.9522 38.1774C96.6108 28.4732 90.283 20.076 81.8758 14.1892C73.4686 8.30242 63.4136 5.22829 53.1518 5.4074C42.8901 5.58652 32.9484 9.0097 24.7518 15.1863C16.5551 21.3629 10.5243 29.9759 7.52359 39.7907C4.52289 49.6056 4.70639 60.1185 8.0478 69.8226C11.0956 78.674 16.6279 86.438 23.9565 92.2014C25.1286 93.1232 25.4308 94.801 24.5755 96.0225Z" fill="#0A84FF" fill-opacity="0.5"/>
<path d="M31.1325 86.6586C30.1085 88.121 28.0839 88.4855 26.7023 87.3548C20.5274 82.3013 15.8589 75.6171 13.2474 68.0326C10.284 59.4265 10.1213 50.1031 12.7825 41.3988C15.4436 32.6945 20.7921 25.0561 28.0613 19.5784C35.3305 14.1007 44.1472 11.0648 53.2479 10.906C62.3485 10.7471 71.2658 13.4734 78.7218 18.6941C86.1777 23.9148 91.7895 31.3619 94.7528 39.9681C97.7161 48.5742 97.8789 57.8975 95.2177 66.6018C92.8725 74.2728 88.4401 81.1159 82.4453 86.3818C81.104 87.5601 79.0679 87.2664 77.9935 85.8406C76.919 84.4148 77.2151 82.3981 78.5407 81.2022C83.4527 76.7708 87.0891 71.0765 89.0351 64.7116C91.2971 57.3129 91.1587 49.3881 88.6399 42.0729C86.1211 34.7577 81.3511 28.4277 75.0135 23.9901C68.676 19.5525 61.0962 17.2351 53.3607 17.3701C45.6252 17.5052 38.1309 20.0856 31.9521 24.7417C25.7733 29.3978 21.2271 35.8904 18.9651 43.2891C16.7031 50.6877 16.8414 58.6126 19.3603 65.9278C21.5272 72.2208 25.3601 77.7848 30.4237 82.0421C31.7903 83.1909 32.1565 85.1961 31.1325 86.6586Z" fill="#0A84FF" fill-opacity="0.5"/>
<path d="M37.8884 77.01C36.8997 78.422 34.9414 78.7764 33.6351 77.6517C29.4597 74.0565 26.2954 69.4062 24.4895 64.1614C22.3436 57.9294 22.2258 51.178 24.1528 44.8749C26.0799 38.5717 29.9529 33.0405 35.2168 29.0738C40.4807 25.1072 46.8653 22.9088 53.4554 22.7938C60.0455 22.6788 66.5028 24.653 71.902 28.4335C77.3011 32.214 81.3648 37.6067 83.5107 43.8388C85.6565 50.0708 85.7744 56.8222 83.8473 63.1253C82.2255 68.4299 79.2255 73.1878 75.178 76.9265C73.9118 78.0962 71.9424 77.8103 70.905 76.4337C69.8676 75.057 70.1591 73.1129 71.3957 71.912C74.4047 68.9897 76.6417 65.3435 77.8779 61.3003C79.4195 56.2578 79.3252 50.8566 77.6085 45.871C75.8919 40.8854 72.6409 36.5712 68.3216 33.5468C64.0023 30.5224 58.8364 28.943 53.5643 29.0351C48.2922 29.1271 43.1846 30.8858 38.9735 34.0591C34.7623 37.2324 31.6639 41.6574 30.1223 46.6999C28.5806 51.7424 28.6749 57.1435 30.3916 62.1291C31.7681 66.1268 34.131 69.6927 37.2402 72.5082C38.5179 73.6652 38.8771 75.598 37.8884 77.01Z" fill="#0A84FF" fill-opacity="0.5"/>
<path d="M44.0261 68.244C43.4141 69.1181 42.2018 69.3375 41.3932 68.6413C38.8084 66.4157 36.8495 63.5369 35.7316 60.2901C34.4032 56.4322 34.3303 52.2528 35.5232 48.3509C36.7161 44.4489 39.1137 41.0248 42.3723 38.5693C45.6309 36.1138 49.5833 34.7529 53.6629 34.6817C57.7425 34.6104 61.7399 35.8326 65.0822 38.1729C68.4245 40.5132 70.9401 43.8516 72.2685 47.7095C73.5969 51.5674 73.6699 55.7468 72.4769 59.6488C71.473 62.9326 69.6158 65.878 67.1102 68.1924C66.3264 68.9164 65.1072 68.7395 64.465 67.8873C63.8228 67.0351 64.0033 65.8316 64.7687 65.0881C66.6315 63.2791 68.0163 61.0219 68.7815 58.519C69.7359 55.3974 69.6775 52.0539 68.6148 48.9675C67.5521 45.8812 65.5396 43.2105 62.8658 41.3383C60.1919 39.466 56.994 38.4883 53.7303 38.5453C50.4666 38.6023 47.3048 39.691 44.6979 41.6554C42.091 43.6198 40.1729 46.3591 39.2186 49.4807C38.2642 52.6022 38.3226 55.9457 39.3853 59.0321C40.2374 61.5068 41.7002 63.7143 43.6249 65.4572C44.4159 66.1735 44.6382 67.3699 44.0261 68.244Z" fill="#0A84FF" fill-opacity="0.5"/>
</svg>
