<svg width="22" height="22" viewBox="0 0 22 22" fill="none" xmlns="http://www.w3.org/2000/svg">
<path d="M19.1912 13.0931C19.708 13.3515 20.2248 13.6616 20.6899 13.9717C20.6382 14.2817 20.4832 14.5918 20.3798 14.9019C20.2764 15.212 20.1214 15.4704 19.9664 15.7804C19.3979 15.6771 18.8294 15.522 18.2609 15.367L18.0542 15.7288L17.7958 16.0906C17.6408 16.349 17.4341 16.5557 17.2273 16.7624M19.4496 11.3359C19.4496 11.646 19.4496 11.9044 19.3979 12.2145C19.3462 12.5246 19.2945 12.783 19.2428 13.0414M15.3669 18.3127C15.5219 18.8812 15.6769 19.4496 15.7803 20.0181C15.5219 20.1732 15.2118 20.2765 14.9018 20.4316C14.5917 20.5349 14.2816 20.6383 13.9715 20.7416C13.6098 20.2248 13.2997 19.7597 13.0413 19.2429C12.7829 19.3463 12.4728 19.3464 12.2144 19.3981C11.956 19.4497 11.646 19.4497 11.3359 19.4497M16.7622 17.2275C16.5555 17.4342 16.3488 17.6409 16.0904 17.7959L15.7286 18.0543L15.3669 18.2611M8.90696 19.1913C8.64856 19.7081 8.33848 20.2249 8.02841 20.69C7.71833 20.6383 7.40825 20.4833 7.09817 20.3799C6.7881 20.2766 6.5297 20.1215 6.21962 19.9665C6.32298 19.398 6.47802 18.8295 6.63306 18.2611L6.27131 18.0543L5.90955 17.7959C5.65116 17.6409 5.44444 17.4342 5.23772 17.2275M10.6641 19.4497C10.354 19.4497 10.0956 19.4497 9.78555 19.3981C9.47547 19.3464 9.21707 19.2947 8.95867 19.243M2.55036 11.3359C2.55036 11.646 2.55036 11.9044 2.65372 12.2145C2.7054 12.4729 2.70541 12.7831 2.80877 13.0415C2.29197 13.2999 1.82685 13.6099 1.31006 13.9717C1.41342 14.2818 1.51678 14.5919 1.62014 14.9019C1.77517 15.212 1.87853 15.5221 2.03357 15.7805C2.60205 15.6771 3.17052 15.5221 3.739 15.367L3.94574 15.7288L4.20414 16.0906C4.35918 16.349 4.5659 16.5557 4.77261 16.7624M2.80877 8.90696C2.29197 8.64856 1.77517 8.33848 1.31006 8.02841C1.36174 7.71833 1.51678 7.40825 1.62014 7.09817C1.7235 6.7881 1.87853 6.5297 2.03357 6.21962C2.60205 6.32298 3.17052 6.47802 3.739 6.63306L3.94574 6.27125L4.20414 5.90949C4.41086 5.70278 4.61758 5.49606 4.77261 5.23766M2.55036 10.6639C2.55036 10.3538 2.55036 10.0954 2.60204 9.78537C2.65372 9.47529 2.7054 9.21689 2.75708 8.9585M6.63306 3.739C6.47802 3.17052 6.32298 2.60205 6.21962 2.03357C6.47802 1.87853 6.7881 1.77517 7.09817 1.62014C7.40825 1.51678 7.71833 1.41342 8.02841 1.31006C8.39016 1.82685 8.70024 2.29197 8.95864 2.80877C9.21703 2.70541 9.52715 2.70545 9.78555 2.65378C10.0956 2.55042 10.4057 2.55042 10.6641 2.55042M5.23772 4.77269C5.44444 4.61765 5.70284 4.41093 5.90955 4.25589L6.27131 3.99749L6.63307 3.79077M13.093 2.80877C13.3514 2.29197 13.6615 1.77517 13.9715 1.31006C14.2816 1.36174 14.5917 1.51678 14.9018 1.62014C15.2118 1.7235 15.4702 1.87853 15.7803 2.03357C15.677 2.60205 15.5219 3.17052 15.3669 3.739L15.7286 3.94562L16.0904 4.20402C16.3488 4.35906 16.5555 4.56578 16.7622 4.7725M11.3359 2.55042C11.646 2.55042 11.9044 2.55042 12.2144 2.6021C12.5245 2.65378 12.7829 2.70545 13.0413 2.75713M18.3126 6.63306C18.8811 6.47802 19.4496 6.32298 20.0181 6.21962C20.1731 6.47802 20.2765 6.78809 20.4315 7.09817C20.5349 7.40825 20.6382 7.71833 20.7416 8.0284C20.2248 8.39016 19.7597 8.70024 19.2429 8.95864C19.3462 9.21703 19.3462 9.52697 19.3979 9.78537C19.4496 10.0438 19.4496 10.3538 19.4496 10.6639M17.2273 5.23766C17.4341 5.44438 17.6408 5.6511 17.7958 5.90949L18.0542 6.27125L18.2609 6.63301M14.7984 11.0258C14.7984 13.1094 13.1094 14.7984 11.0258 14.7984C8.94227 14.7984 7.25321 13.1094 7.25321 11.0258C7.25321 8.94227 8.94227 7.25321 11.0258 7.25321C13.1094 7.25321 14.7984 8.94227 14.7984 11.0258Z" stroke="#222229" stroke-miterlimit="10" stroke-linecap="round"/>
</svg>
