<svg width="24" height="26" viewBox="0 0 24 26" fill="none" xmlns="http://www.w3.org/2000/svg">
<path d="M17.5199 8.9497H9.52789C8.93062 8.9497 8.44711 8.46071 8.44711 7.85665V4.00223C8.44711 3.39817 8.93062 2.90918 9.52789 2.90918H17.5199C18.1172 2.90918 18.6007 3.39817 18.6007 4.00223V7.85665C18.5723 8.46071 18.0888 8.9497 17.5199 8.9497Z" fill="url(#paint0_linear)"/>
<path d="M22.9522 24.0508H20.9613V3.59928C20.9328 1.72959 19.4254 0.205078 17.5768 0.205078H9.44251C7.59382 0.205078 6.08642 1.72959 6.08642 3.59928V3.82939C5.57448 4.86491 2.58813 10.8479 0.398141 15.8817C-0.142246 17.1473 -0.142246 18.2979 0.426583 19.3334C1.62112 21.462 5.00565 22.1811 6.08642 22.3537V24.0508H4.09552C3.69734 24.0508 3.38449 24.3672 3.38449 24.7699C3.38449 25.1726 3.69734 25.489 4.09552 25.489H22.9522C23.3504 25.489 23.6632 25.1726 23.6632 24.7699C23.6632 24.3672 23.3504 24.0508 22.9522 24.0508ZM6.08642 20.8867C4.80656 20.6566 2.44592 19.9662 1.678 18.6143C1.33671 18.0102 1.33671 17.2911 1.70645 16.457C3.12852 13.1778 4.89188 9.46721 6.08642 7.051V20.8867ZM19.5108 24.0508H7.50849V3.59928C7.50849 2.50623 8.36174 1.6433 9.44251 1.6433H17.5768C18.6575 1.6433 19.5108 2.53499 19.5108 3.59928V24.0508Z" fill="url(#paint1_linear)"/>
<defs>
<linearGradient id="paint0_linear" x1="18.6007" y1="8.9497" x2="7.87828" y2="7.66803" gradientUnits="userSpaceOnUse">
<stop stop-color="#7B61FF"/>
<stop offset="1" stop-color="#0A84FF"/>
</linearGradient>
<linearGradient id="paint1_linear" x1="23.6632" y1="25.489" x2="-1.57482" y2="23.8091" gradientUnits="userSpaceOnUse">
<stop stop-color="#7B61FF"/>
<stop offset="1" stop-color="#0A84FF"/>
</linearGradient>
</defs>
</svg>
