<svg width="14" height="21" viewBox="0 0 14 21" fill="none" xmlns="http://www.w3.org/2000/svg">
<path d="M1.47299 7.00781L1.50069 6.48153C1.57693 5.03297 2.09521 3.81924 3.07084 2.87842L1.47299 7.00781ZM1.47299 7.00781H2M1.47299 7.00781H2M2 7.00781H4.00391H4.46824L4.50254 6.54475C4.55732 5.80516 4.8105 5.26952 5.23008 4.88632C5.65822 4.50227 6.24053 4.28906 7.02734 4.28906C7.79022 4.28906 8.35239 4.49801 8.76495 4.87363L8.76491 4.87367L8.77075 4.87883C9.19003 5.24878 9.39844 5.7117 9.39844 6.30859C9.39844 6.8461 9.27351 7.26184 9.05238 7.58457L9.05234 7.58455L9.04882 7.58984C8.82479 7.92589 8.40959 8.30171 7.75287 8.70502C6.90202 9.21264 6.24148 9.78103 5.80539 10.4218L5.80537 10.4218L5.80272 10.4258C5.36527 11.082 5.15972 11.8466 5.16797 12.6978V13.7734V14.2734H5.66797H7.71875H8.21875V13.7734V13.0117C8.21875 12.4569 8.33625 12.0568 8.52875 11.7722C8.74191 11.4692 9.1727 11.0999 9.88481 10.6757L9.88706 10.6743C11.6494 9.61183 12.5781 8.11206 12.5781 6.20312C12.5781 4.83812 12.0494 3.68919 11.0116 2.7906M2 7.00781L11.0116 2.7906M11.0116 2.7906C9.98178 1.89204 8.66619 1.46094 7.10938 1.46094C5.4404 1.46094 4.07142 1.91329 3.0709 2.87836L11.0116 2.7906ZM6.85156 19.7109C7.44406 19.7109 7.96513 19.5169 8.36754 19.1052C8.77481 18.6967 8.96875 18.1747 8.96875 17.582C8.96875 16.9841 8.77642 16.4573 8.36754 16.0472C7.96513 15.6354 7.44406 15.4414 6.85156 15.4414C6.25497 15.4414 5.73152 15.642 5.32389 16.0589C4.9166 16.4673 4.72266 16.9894 4.72266 17.582C4.72266 18.1758 4.91731 18.6986 5.32613 19.1075C5.73496 19.5163 6.25781 19.7109 6.85156 19.7109Z" stroke="#222229"/>
</svg>
