<svg width="259" height="165" viewBox="0 0 259 165" fill="none" xmlns="http://www.w3.org/2000/svg">
<g filter="url(#filter0_d)">
<path d="M4 146.338C4 154.36 10.4759 160.862 18.4644 160.862H239.77C247.759 160.862 254.235 154.36 254.235 146.338V18.5239C254.235 10.5023 247.759 3.99957 239.77 3.99957H18.4644C10.4759 3.99957 4 10.5023 4 18.5239V146.338Z" fill="#E82F23"/>
<path d="M34.365 136.454C34.365 135.008 33.193 133.836 31.7473 133.836C30.3016 133.836 29.1296 135.008 29.1296 136.454C29.1296 137.899 30.3016 139.071 31.7473 139.071C33.193 139.071 34.365 137.899 34.365 136.454Z" fill="white"/>
<path d="M41.6945 136.454C41.6945 135.008 40.5225 133.836 39.0768 133.836C37.6311 133.836 36.4591 135.008 36.4591 136.454C36.4591 137.899 37.6311 139.071 39.0768 139.071C40.5225 139.071 41.6945 137.899 41.6945 136.454Z" fill="white"/>
<path d="M49.024 136.454C49.024 135.008 47.852 133.836 46.4063 133.836C44.9606 133.836 43.7886 135.008 43.7886 136.454C43.7886 137.899 44.9606 139.071 46.4063 139.071C47.852 139.071 49.024 137.899 49.024 136.454Z" fill="white"/>
<path d="M56.3535 136.454C56.3535 135.008 55.1815 133.836 53.7358 133.836C52.2901 133.836 51.1181 135.008 51.1181 136.454C51.1181 137.899 52.2901 139.071 53.7358 139.071C55.1815 139.071 56.3535 137.899 56.3535 136.454Z" fill="white"/>
<path d="M72.152 143.512C71.1033 143.512 70.2167 143.222 69.4924 142.642C68.7739 142.063 68.3249 141.287 68.1453 140.313H69.3621C69.5185 140.962 69.8459 141.481 70.3442 141.869C70.8483 142.257 71.4567 142.451 72.1694 142.451C73.2704 142.451 74.1279 141.97 74.7421 141.008C75.3563 140.041 75.6866 138.676 75.7329 136.915C75.7387 136.88 75.73 136.828 75.7069 136.758C75.6895 136.689 75.6808 136.645 75.6808 136.628H75.6286C75.3563 137.323 74.8957 137.882 74.2467 138.305C73.6035 138.723 72.8734 138.931 72.0564 138.931C70.857 138.931 69.8662 138.54 69.0839 137.758C68.3075 136.97 67.9193 135.976 67.9193 134.777C67.9193 133.525 68.3249 132.494 69.1361 131.683C69.9531 130.866 70.9874 130.457 72.239 130.457C73.0849 130.457 73.8324 130.666 74.4814 131.083C75.1361 131.494 75.6605 132.088 76.0545 132.865C76.6108 133.838 76.8889 135.124 76.8889 136.724C76.8889 138.856 76.4717 140.522 75.6373 141.721C74.8087 142.915 73.647 143.512 72.152 143.512ZM72.2477 137.897C73.1458 137.897 73.899 137.601 74.5074 137.01C75.1158 136.414 75.42 135.681 75.42 134.811C75.42 133.879 75.1158 133.096 74.5074 132.465C73.9048 131.827 73.1545 131.509 72.2563 131.509C71.364 131.509 70.6165 131.819 70.0139 132.439C69.4171 133.059 69.1187 133.826 69.1187 134.742C69.1187 135.657 69.4113 136.414 69.9966 137.01C70.5818 137.601 71.3321 137.897 72.2477 137.897Z" fill="white"/>
<path d="M82.9195 143.512C81.8707 143.512 80.9842 143.222 80.2599 142.642C79.5414 142.063 79.0923 141.287 78.9127 140.313H80.1295C80.286 140.962 80.6133 141.481 81.1117 141.869C81.6158 142.257 82.2242 142.451 82.9369 142.451C84.0378 142.451 84.8954 141.97 85.5096 141.008C86.1238 140.041 86.454 138.676 86.5004 136.915C86.5062 136.88 86.4975 136.828 86.4743 136.758C86.4569 136.689 86.4482 136.645 86.4482 136.628H86.3961C86.1238 137.323 85.6631 137.882 85.0141 138.305C84.371 138.723 83.6409 138.931 82.8239 138.931C81.6245 138.931 80.6336 138.54 79.8514 137.758C79.0749 136.97 78.6867 135.976 78.6867 134.777C78.6867 133.525 79.0923 132.494 79.9035 131.683C80.7205 130.866 81.7548 130.457 83.0064 130.457C83.8524 130.457 84.5998 130.666 85.2488 131.083C85.9036 131.494 86.428 132.088 86.822 132.865C87.3782 133.838 87.6564 135.124 87.6564 136.724C87.6564 138.856 87.2392 140.522 86.4048 141.721C85.5762 142.915 84.4144 143.512 82.9195 143.512ZM83.0151 137.897C83.9132 137.897 84.6665 137.601 85.2749 137.01C85.8833 136.414 86.1875 135.681 86.1875 134.811C86.1875 133.879 85.8833 133.096 85.2749 132.465C84.6723 131.827 83.9219 131.509 83.0238 131.509C82.1315 131.509 81.384 131.819 80.7814 132.439C80.1846 133.059 79.8862 133.826 79.8862 134.742C79.8862 135.657 80.1788 136.414 80.764 137.01C81.3492 137.601 82.0996 137.897 83.0151 137.897Z" fill="white"/>
<path d="M93.6869 143.512C92.6382 143.512 91.7516 143.222 91.0273 142.642C90.3088 142.063 89.8598 141.287 89.6802 140.313H90.897C91.0534 140.962 91.3808 141.481 91.8791 141.869C92.3832 142.257 92.9916 142.451 93.7043 142.451C94.8052 142.451 95.6628 141.97 96.277 141.008C96.8912 140.041 97.2215 138.676 97.2678 136.915C97.2736 136.88 97.2649 136.828 97.2418 136.758C97.2244 136.689 97.2157 136.645 97.2157 136.628H97.1635C96.8912 137.323 96.4305 137.882 95.7816 138.305C95.1384 138.723 94.4083 138.931 93.5913 138.931C92.3919 138.931 91.4011 138.54 90.6188 137.758C89.8424 136.97 89.4542 135.976 89.4542 134.777C89.4542 133.525 89.8598 132.494 90.671 131.683C91.488 130.866 92.5223 130.457 93.7738 130.457C94.6198 130.457 95.3673 130.666 96.0163 131.083C96.671 131.494 97.1954 132.088 97.5894 132.865C98.1457 133.838 98.4238 135.124 98.4238 136.724C98.4238 138.856 98.0066 140.522 97.1722 141.721C96.3436 142.915 95.1819 143.512 93.6869 143.512ZM93.7825 137.897C94.6807 137.897 95.4339 137.601 96.0423 137.01C96.6507 136.414 96.9549 135.681 96.9549 134.811C96.9549 133.879 96.6507 133.096 96.0423 132.465C95.4397 131.827 94.6894 131.509 93.7912 131.509C92.8989 131.509 92.1514 131.819 91.5488 132.439C90.952 133.059 90.6536 133.826 90.6536 134.742C90.6536 135.657 90.9462 136.414 91.5314 137.01C92.1167 137.601 92.867 137.897 93.7825 137.897Z" fill="white"/>
<path d="M104.454 143.512C103.406 143.512 102.519 143.222 101.795 142.642C101.076 142.063 100.627 141.287 100.448 140.313H101.664C101.821 140.962 102.148 141.481 102.647 141.869C103.151 142.257 103.759 142.451 104.472 142.451C105.573 142.451 106.43 141.97 107.044 141.008C107.659 140.041 107.989 138.676 108.035 136.915C108.041 136.88 108.032 136.828 108.009 136.758C107.992 136.689 107.983 136.645 107.983 136.628H107.931C107.659 137.323 107.198 137.882 106.549 138.305C105.906 138.723 105.176 138.931 104.359 138.931C103.159 138.931 102.169 138.54 101.386 137.758C100.61 136.97 100.222 135.976 100.222 134.777C100.222 133.525 100.627 132.494 101.438 131.683C102.255 130.866 103.29 130.457 104.541 130.457C105.387 130.457 106.135 130.666 106.784 131.083C107.438 131.494 107.963 132.088 108.357 132.865C108.913 133.838 109.191 135.124 109.191 136.724C109.191 138.856 108.774 140.522 107.94 141.721C107.111 142.915 105.949 143.512 104.454 143.512ZM104.55 137.897C105.448 137.897 106.201 137.601 106.81 137.01C107.418 136.414 107.722 135.681 107.722 134.811C107.722 133.879 107.418 133.096 106.81 132.465C106.207 131.827 105.457 131.509 104.559 131.509C103.666 131.509 102.919 131.819 102.316 132.439C101.719 133.059 101.421 133.826 101.421 134.742C101.421 135.657 101.714 136.414 102.299 137.01C102.884 137.601 103.634 137.897 104.55 137.897Z" fill="white"/>
<path d="M35.1859 19.0029C36.6916 19.0029 37.1647 20.0828 37.5616 21.161C37.7283 21.6189 41.641 32.3336 41.7586 32.6552C41.7899 32.7449 41.7688 32.8922 41.6308 32.9455C41.492 32.998 39.4591 33.7885 39.3465 33.8308C39.234 33.8739 39.1079 33.8113 39.0672 33.6987C39.0249 33.5879 38.1811 31.252 38.0863 30.9913H32.2872C32.1958 31.252 31.3418 33.5929 31.3037 33.6987C31.2648 33.8062 31.1438 33.879 31.0236 33.8308C30.9034 33.7834 28.8629 32.9929 28.741 32.9455C28.6242 32.8998 28.5709 32.7669 28.6115 32.6552C28.7554 32.254 32.6088 21.7111 32.8051 21.161C33.1877 20.0989 33.6769 19.0029 35.1859 19.0029ZM28.3017 38.175C28.1798 38.175 28.0825 38.2766 28.0825 38.4002V40.9045C28.0825 41.0281 28.1798 41.1279 28.3017 41.1279H42.0642C42.1886 41.1279 42.2859 41.0281 42.2859 40.9045V38.4002C42.2859 38.2766 42.1886 38.175 42.0642 38.175H28.3017ZM35.1724 22.5016L33.2122 28.3879H37.1647L35.1977 22.5016H35.1724Z" fill="black"/>
<path d="M212.274 146.565H208.07L210.699 130.287H214.904L212.274 146.565Z" fill="#030303"/>
<path d="M227.515 130.685C226.686 130.356 225.371 129.992 223.744 129.992C219.592 129.992 216.669 132.209 216.651 135.378C216.616 137.716 218.744 139.014 220.335 139.794C221.962 140.59 222.515 141.11 222.515 141.82C222.498 142.911 221.201 143.414 219.99 143.414C218.312 143.414 217.412 143.154 216.045 142.548L215.492 142.288L214.903 145.942C215.889 146.391 217.706 146.791 219.592 146.808C224.004 146.808 226.876 144.626 226.91 141.249C226.927 139.396 225.803 137.976 223.381 136.816C221.91 136.071 221.01 135.569 221.01 134.807C221.027 134.114 221.771 133.404 223.431 133.404C224.798 133.369 225.802 133.698 226.563 134.027L226.943 134.2L227.515 130.685Z" fill="#030303"/>
<path d="M233.103 140.799C233.449 139.864 234.782 136.244 234.782 136.244C234.764 136.279 235.127 135.292 235.335 134.686L235.629 136.088C235.629 136.088 236.425 139.985 236.598 140.799C235.941 140.799 233.934 140.799 233.103 140.799ZM238.293 130.287H235.041C234.038 130.287 233.276 130.581 232.843 131.638L226.598 146.565H231.01C231.01 146.565 231.736 144.556 231.892 144.123C232.376 144.123 236.668 144.123 237.29 144.123C237.411 144.695 237.792 146.565 237.792 146.565H241.685L238.293 130.287Z" fill="#030303"/>
<path d="M204.558 130.287L200.441 141.387L199.991 139.136C199.23 136.539 196.842 133.716 194.178 132.313L197.949 146.548H202.395L209.004 130.287H204.558Z" fill="#030303"/>
<path d="M196.617 130.287H189.853L189.784 130.616C195.06 131.967 198.555 135.223 199.991 139.137L198.52 131.656C198.278 130.616 197.534 130.322 196.617 130.287Z" fill="#030303"/>
</g>
<defs>
<filter id="filter0_d" x="0" y="0" width="258.235" height="164.863" filterUnits="userSpaceOnUse" color-interpolation-filters="sRGB">
<feFlood flood-opacity="0" result="BackgroundImageFix"/>
<feColorMatrix in="SourceAlpha" type="matrix" values="0 0 0 0 0 0 0 0 0 0 0 0 0 0 0 0 0 0 127 0"/>
<feOffset/>
<feGaussianBlur stdDeviation="2"/>
<feColorMatrix type="matrix" values="0 0 0 0 0 0 0 0 0 0 0 0 0 0 0 0 0 0 0.25 0"/>
<feBlend mode="normal" in2="BackgroundImageFix" result="effect1_dropShadow"/>
<feBlend mode="normal" in="SourceGraphic" in2="effect1_dropShadow" result="shape"/>
</filter>
</defs>
</svg>
