<svg width="200" height="52" viewBox="0 0 200 52" fill="none" xmlns="http://www.w3.org/2000/svg">
<path d="M13.5816 40.9467C10.8476 40.9467 8.23775 40.4765 5.75222 39.5361C3.3022 38.5595 1.38479 37.3116 0 35.7924L1.22501 33.7307C2.53879 35.1414 4.29641 36.2988 6.49788 37.2031C8.73486 38.0712 11.0784 38.5052 13.5284 38.5052C17.0791 38.5052 19.7599 37.818 21.5708 36.4435C23.3817 35.069 24.2872 33.2786 24.2872 31.0722C24.2872 29.3722 23.8078 28.0158 22.8491 27.0031C21.8904 25.9903 20.7009 25.2127 19.2806 24.6701C17.8603 24.1275 15.9429 23.5669 13.5284 22.9882C10.7943 22.3009 8.59283 21.6318 6.92397 20.9807C5.29062 20.3297 3.88808 19.335 2.71633 17.9967C1.58009 16.6222 1.01196 14.7956 1.01196 12.5169C1.01196 10.6722 1.49132 8.99031 2.45002 7.47116C3.40872 5.91584 4.86453 4.68605 6.81745 3.7818C8.80587 2.87754 11.2736 2.42542 14.2208 2.42542C16.2802 2.42542 18.3041 2.73286 20.2926 3.34776C22.281 3.96265 24.0031 4.79457 25.4589 5.8435L24.4469 8.06797C22.9556 7.01903 21.3045 6.22329 19.4936 5.68073C17.7183 5.13818 15.9606 4.86691 14.2208 4.86691C10.7765 4.86691 8.16674 5.57222 6.39136 6.98286C4.61598 8.3935 3.72829 10.2201 3.72829 12.4626C3.72829 14.1627 4.20764 15.519 5.16635 16.5318C6.12505 17.5446 7.31455 18.3222 8.73486 18.8648C10.1552 19.4073 12.0903 19.9861 14.5403 20.601C17.2744 21.2882 19.4581 21.9573 21.0915 22.6084C22.7248 23.2595 24.1096 24.2541 25.2459 25.5924C26.4176 26.8946 27.0035 28.6669 27.0035 30.9095C27.0035 32.7541 26.5064 34.4361 25.5122 35.9552C24.5535 37.4744 23.0622 38.6861 21.0382 39.5903C19.0143 40.4946 16.5288 40.9467 13.5816 40.9467Z" fill="#222229"/>
<path d="M49.371 12.1371C52.8508 12.1371 55.6026 13.168 57.6265 15.2297C59.6505 17.2914 60.6624 20.2573 60.6624 24.1275V40.6754H57.9994V24.3446C57.9994 21.1616 57.2004 18.7382 55.6026 17.0744C54.0403 15.4105 51.8388 14.5786 48.9982 14.5786C45.7315 14.5786 43.1572 15.5733 41.2753 17.5627C39.3934 19.552 38.4525 22.2286 38.4525 25.5924V40.6754H35.7894V0.417969H38.4525V18.268C39.4112 16.3148 40.8315 14.8137 42.7134 13.7648C44.5953 12.6797 46.8145 12.1371 49.371 12.1371Z" fill="#222229"/>
<path d="M81.4042 12.1371C84.8485 12.1371 87.4938 13.0414 89.3402 14.8499C91.1866 16.6222 92.1098 19.2446 92.1098 22.7169V40.6754H89.5532V35.6297C88.6655 37.2935 87.3695 38.5956 85.6651 39.5361C83.9608 40.4403 81.9191 40.8924 79.5401 40.8924C76.4509 40.8924 74.0009 40.151 72.19 38.668C70.4147 37.185 69.527 35.2318 69.527 32.8084C69.527 30.4573 70.3436 28.5584 71.977 27.1116C73.6458 25.6286 76.2912 24.8871 79.9129 24.8871H89.4467V22.6084C89.4467 19.968 88.7365 17.9605 87.3162 16.5861C85.9314 15.2116 83.8898 14.5244 81.1912 14.5244C79.3448 14.5244 77.5694 14.8499 75.8651 15.5009C74.1962 16.152 72.7759 17.0201 71.6042 18.1052L70.2726 16.152C71.6574 14.8861 73.3263 13.9095 75.2792 13.2222C77.2321 12.4988 79.2738 12.1371 81.4042 12.1371ZM79.9129 38.668C82.2209 38.668 84.1738 38.1254 85.7717 37.0403C87.405 35.9552 88.63 34.3818 89.4467 32.3201V27.0031H79.9662C77.2321 27.0031 75.2437 27.5095 74.0009 28.5222C72.7937 29.535 72.19 30.9275 72.19 32.6999C72.19 34.5446 72.8647 36.0095 74.214 37.0946C75.5632 38.1435 77.4629 38.668 79.9129 38.668Z" fill="#222229"/>
<path d="M106.042 18.5392C106.895 16.4775 108.226 14.9041 110.037 13.819C111.848 12.6978 114.049 12.1371 116.641 12.1371V14.7956L116.002 14.7414C112.913 14.7414 110.499 15.7361 108.759 17.7254C107.019 19.6786 106.149 22.4095 106.149 25.918V40.6754H103.486V12.3541H106.042V18.5392Z" fill="#222229"/>
<path d="M124.383 12.3541H127.046V40.6754H124.383V12.3541ZM125.714 5.46371C125.111 5.46371 124.596 5.26478 124.17 4.86691C123.744 4.43286 123.531 3.90839 123.531 3.2935C123.531 2.67861 123.744 2.15414 124.17 1.7201C124.596 1.28605 125.111 1.06903 125.714 1.06903C126.318 1.06903 126.833 1.28605 127.259 1.7201C127.685 2.11797 127.898 2.62435 127.898 3.23924C127.898 3.85414 127.685 4.37861 127.259 4.81265C126.833 5.24669 126.318 5.46371 125.714 5.46371Z" fill="#222229"/>
<path d="M152.256 12.1371C155.736 12.1371 158.488 13.168 160.511 15.2297C162.535 17.2914 163.547 20.2573 163.547 24.1275V40.6754H160.884V24.3446C160.884 21.1616 160.085 18.7382 158.488 17.0744C156.925 15.4105 154.724 14.5786 151.883 14.5786C148.616 14.5786 146.042 15.5733 144.16 17.5627C142.278 19.552 141.337 22.2286 141.337 25.5924V40.6754H138.674V12.3541H141.231V18.485C142.19 16.4956 143.61 14.9403 145.492 13.819C147.409 12.6978 149.664 12.1371 152.256 12.1371Z" fill="#222229"/>
<path d="M200 12.3541V37.6371C200 42.3392 198.882 45.8116 196.645 48.0541C194.408 50.2967 191.034 51.418 186.525 51.418C183.968 51.418 181.554 51.0201 179.281 50.2244C177.009 49.4286 175.18 48.3254 173.795 46.9148L175.233 44.8531C176.618 46.1552 178.287 47.168 180.24 47.8914C182.193 48.6148 184.27 48.9765 186.472 48.9765C190.164 48.9765 192.898 48.0722 194.674 46.2637C196.449 44.4914 197.337 41.7244 197.337 37.9627V33.1882C196.201 35.2499 194.621 36.8414 192.597 37.9627C190.573 39.0839 188.3 39.6446 185.779 39.6446C183.187 39.6446 180.826 39.0658 178.695 37.9084C176.601 36.7148 174.949 35.069 173.742 32.9712C172.535 30.8733 171.931 28.5041 171.931 25.8637C171.931 23.2233 172.535 20.8541 173.742 18.7563C174.949 16.6584 176.601 15.0307 178.695 13.8733C180.826 12.7158 183.187 12.1371 185.779 12.1371C188.336 12.1371 190.644 12.7158 192.703 13.8733C194.763 15.0307 196.343 16.6584 197.443 18.7563V12.3541H200ZM185.992 37.2031C188.158 37.2031 190.111 36.7329 191.851 35.7924C193.591 34.8158 194.94 33.4775 195.899 31.7775C196.893 30.0414 197.39 28.0701 197.39 25.8637C197.39 23.6573 196.893 21.7041 195.899 20.0041C194.94 18.3041 193.591 16.9839 191.851 16.0435C190.111 15.0669 188.158 14.5786 185.992 14.5786C183.826 14.5786 181.873 15.0669 180.134 16.0435C178.429 16.9839 177.08 18.3041 176.086 20.0041C175.127 21.7041 174.648 23.6573 174.648 25.8637C174.648 28.0701 175.127 30.0414 176.086 31.7775C177.08 33.4775 178.429 34.8158 180.134 35.7924C181.873 36.7329 183.826 37.2031 185.992 37.2031Z" fill="#222229"/>
</svg>
