<svg width="20" height="21" viewBox="0 0 20 21" fill="none" xmlns="http://www.w3.org/2000/svg">
<g clip-path="url(#clip0)">
<path d="M10 0.5C4.49417 0.5 0 4.99341 0 10.5C0 16.0058 4.49341 20.5 10 20.5C15.5058 20.5 20 16.0067 20 10.5C20 4.99417 15.5066 0.5 10 0.5ZM10 19.3281C5.13214 19.3281 1.17188 15.3679 1.17188 10.5C1.17188 5.63214 5.13214 1.67188 10 1.67188C14.8679 1.67188 18.8281 5.63214 18.8281 10.5C18.8281 15.3679 14.8679 19.3281 10 19.3281Z" fill="#979797"/>
<path d="M10 6.39844C7.73834 6.39844 5.89844 8.23834 5.89844 10.5C5.89844 12.7617 7.73834 14.6016 10 14.6016C12.2617 14.6016 14.1016 12.7617 14.1016 10.5C14.1016 8.23834 12.2617 6.39844 10 6.39844ZM10 13.4297C8.38455 13.4297 7.07031 12.1154 7.07031 10.5C7.07031 8.88455 8.38455 7.57031 10 7.57031C11.6154 7.57031 12.9297 8.88455 12.9297 10.5C12.9297 12.1154 11.6154 13.4297 10 13.4297Z" fill="#979797"/>
</g>
<defs>
<clipPath id="clip0">
<rect width="20" height="20" fill="white" transform="translate(0 0.5)"/>
</clipPath>
</defs>
</svg>
