<svg width="20" height="12" viewBox="0 0 20 12" fill="none" xmlns="http://www.w3.org/2000/svg">
<path d="M16.0116 6.69929L19.988 0.6875H13.8897L13.7759 1.12863C13.4837 2.26113 12.9353 3.79601 11.9824 4.67705C11.8646 4.78584 11.753 4.87327 11.6503 4.94331V0.6875H6.33893V1.86334H6.83515V4.52827C6.23975 4.0046 5.49162 3.0053 5.29569 1.21164L5.23847 0.6875H0L0.1799 1.41626C0.826718 4.0371 1.79702 6.18415 3.06411 7.79776C4.09849 9.1152 5.33048 10.0825 6.72574 10.6725C7.97177 11.1995 9.11907 11.3288 9.94457 11.3288C10.7038 11.3288 11.1908 11.2194 11.2316 11.2099L11.6795 11.1055L11.7027 9.49026L13.6972 11.2253H20.0001L16.0116 6.69929ZM10.563 6.94053L10.5175 10.1259C9.86095 10.1844 8.56015 10.1867 7.12461 9.56427C5.92573 9.0444 4.86082 8.19312 3.95949 7.03391C2.92723 5.7064 2.10601 3.9695 1.51367 1.86334H4.20027C4.78178 5.23582 7.1214 6.10847 7.22562 6.14555L8.01099 6.4257V1.86334H10.4747V6.4315L11.0932 6.39915C11.1685 6.39518 11.8516 6.34071 12.6583 5.64933C13.5749 4.86366 14.2922 3.59139 14.7936 1.86334H17.8005L14.5342 6.80122L17.3966 10.0493H14.1369L10.563 6.94053Z" fill="#222229"/>
</svg>
